<svg xmlns="http://www.w3.org/2000/svg" xmlns:xlink="http://www.w3.org/1999/xlink" width="700" height="500" viewBox="-350 -250 700 500"><rect width="100%" height="100%" x="-50%" y="-50%" fill="#ce1126"/><path id="a" d="M52.844-154.122c1.438.042 2.626.274 3.437.72.7.38 1.83 1.206 2.594 1.905 1.018.891 2.572 1.216 7.344 1.407 6.808.19 9.535 1.29 11.062 4.28 1.082 2.1 1.078 2.264 1.781 4.032-3.158-.9-6.938-2.193-8.656-1.875-2.354.51-4.906 1.953-4.906 2.844 0 .318.765 1.082 1.656 1.719 2.637.648 3.499.648 8.156 0 6.109-.955 6.558-1.147 8.594-3.438 1.146-1.336 2.797-3.17 3.688-4.187 1.781-1.973 4.328-2.28 5.219-.563.89 1.59-1.408 3.894-4.844 6.375-2.99 2.163-5.092 3.678-10.5 4.25-1.686.191-14.551.134-15.188.5-.636.366 6.618 3.467 13.844 1.313-1.718 3.5-8.906 6.207-15.969 6.843-7.89.764-13.307 2.466-18.906 6.157-5.917 3.88-9.015 7.306-11.687 12.968-2.736 5.6-3.694 10.309-3.375 15.844.381 6.808 3.614 10.313 9.53 10.313 4.073 0 5.685-.764 7.657-3.5 1.273-1.91 1.436-2.778 1.5-10.032 0-6.808.261-8.335 1.406-10.562 2.29-4.518 5.548-6.627 15.219-10.063 4.836-1.718 11.319-4.194 14.5-5.593 6.363-2.673 6.63-2.608 8.156 1.718.51 1.464 1.396 2.592 1.969 2.72 1.845.38 11.703-2.978 17.875-6.032 10.626-5.345 16.153-10.067 21.625-18.656 3.245-5.09 5.6-6.547 8.781-5.657 3.627 1.018 5.655 4.137 5.719 8.782.064 4.072-1.909 7.446-7.062 12.218-8.717 8.08-25.002 15.46-39.063 17.75-4.645.7-6.875 2.48-6.875 5.407 0 4.263 4.643 5.999 15.969 6.062 10.625 0 17.318-2.628 24.062-9.5 4.327-4.517 5.857-5.206 8.656-4.125 1.4.573 2.875 3.615 2.875 5.969 0 4.836-6.383 12.603-12.937 15.594-4.9 2.29-9.398 3.068-16.906 2.75-5.6-.191-7.697-.657-12.469-2.375-9.544-3.5-10.386-3.614-11.531-2.47-.891.892-.892 1.154.062 3.126 1.655 3.181 7.905 9.092 11.531 10.937 8.654 4.39 17.157 3.432 29.5-3.312 6.3-3.436 9.624-3.553 11.47-.563.7 1.146 1.28 2.859 1.28 3.813 0 2.418-3.194 5.859-8.093 8.531-6.3 3.563-10.746 4.688-18.063 4.688-6.553 0-10.69-.998-19.344-4.688-4.39-1.845-6.167-2.054-7.312-.781-1.082 1.4.805 5.086 4.75 9.031 5.917 5.917 17.702 10.389 25.719 9.625 2.29-.19 5.08-1.103 7.562-2.312 5.09-2.545 9.616-2.73 11.906-.375 2.927 2.863 1.77 7.336-2.875 11.28-3.054 2.673-6.224 3.688-11.187 3.688-5.6 0-9.04-1.205-20.937-7.25-10.88-5.471-13.427-6.312-14.063-4.53-.764 1.844 1.274 4.958 7 10.812 11.77 11.898 18.461 14.243 31.25 11.062 9.035-2.29 12.134-.735 11.625 5.5-.382 4.39-1.833 6.463-5.969 8.563-2.672 1.4-3.939 1.593-9.156 1.593-4.9-.063-6.61-.323-9.219-1.468-4.517-2.1-14.463-8.882-20.062-13.782-6.872-6.044-9.531-7.209-9.531-4.218 0 2.926 11.194 18.328 17.874 24.5 2.546 2.354 6.365 5.104 8.72 6.25 3.88 1.908 4.718 2.095 10 2.03 3.117 0 7.737-.12 10.218-.312 5.472-.318 7.25.749 7.25 4.375 0 3.373-4.755 7.88-9.781 9.344-10.371 3.054-21.69-2.216-35.688-16.469-10.37-10.562-11.858-9.91-5.75 2.688 6.49 13.489 14.725 23.085 23.188 27.094 4.39 2.036 5.517 2.165 16.906 1.656 5.026-.255 7.313 1.07 7.313 4.187 0 1.591-.563 2.688-2.344 4.47-6.49 6.489-17.244 6.731-28.188.687-6.172-3.436-21.196-19.903-29.531-32.438-4.454-6.68-5.598-7.51-7.125-5.156-.954 1.4-1.01 2.165-.437 5.219 1.781 9.416 6.285 16.608 13.093 21.062 4.39 2.8 5.421 4.454 4.594 7.063-1.018 3.245-7.245 4.816-11.062 2.843-4.518-2.29-10.245-10.927-15.844-23.843-4.009-9.226-4.278-9.563-6.25-9.563-5.154 0-3.362 10.842 2.937 18.031 2.8 3.182 3.254 5.344 1.282 7.125-1.655 1.527-4.142.956-8.532-1.843-4.072-2.609-6.29-5.242-9.281-11.032-3.754-7.19-5.304-5.329-2.25 2.688 4.263 11.453 14.465 21.622 28.781 28.875 2.227 1.082 4 2.184 4 2.375s-1.284 1.844-2.875 3.562c-1.59 1.782-2.843 3.37-2.843 3.688 0 .636 8.692 4.586 19 8.531l9.25 3.563 4.75-3c6.553-4.009 10.173-6.996 10.937-9.032 1.527-3.944 6.436-6.553 10.063-5.28 1.272.445 2.8.385 5.218-.25 5.6-1.464 9 2.997 9.875 5.312-1.936.288-1.007.22-2.375.156-5.726-.255-6.3-.076-8.781 2.469-2.609 2.672-6.107 4.009-8.906 3.5-1.273-.255-2.93.453-6.875 3.062-2.927 1.845-5.281 3.558-5.281 3.813 0 .636 2.991.638 12.28-.125 6.618-.51 7.72-.757 9.438-2.157 2.609-2.227 5.606-2.68 8.469-1.343 1.273.636 3.534 1.155 5.125 1.218 1.718.064 3.512.612 4.594 1.375 1.845 1.4 3.088 2.121 3.937 4.907-3.455-.058-2.33-.057-4.812-.375-4.263-.637-4.727-.584-6.063.625-.827.7-2.08 1.68-2.844 2.062-1.908.955-6.306.864-8.406-.281-1.336-.636-4.346-.874-11.281-.938-5.217-.063-9.776-.063-10.094 0-.382 0 1.7 1.407 4.563 3.125 4.899 2.99 5.363 3.095 9.562 3.032 5.6-.064 8.766 1.593 9.656 5.156.319 1.272.9 3.569 1.282 4.969.89 3.372 1.23 3.893-1.25 9.718-2.71-6.382-1.798-4.447-2.625-5.656-1.336-1.972-1.85-2.277-5.031-2.531-4.39-.382-6.44-1.72-8.094-5.219-1.082-2.418-2.272-3.436-8.125-7.062-8.017-4.963-7.528-4.95-16.563-.75-4.454 2.1-6.111 3.161-6.875 4.625-1.336 2.672-4.193 3.704-7.375 2.75-2.99-.891-4.307-.395-6.344 2.468-.858 1.241-.916.997-2.187 2.157-.356-1.782-.375-2.031-.375-3.813 0-2.609.315-3.127 3.688-6.562 3.944-3.945 6.355-5.02 9.218-3.938 1.336.51 2.44.34 5.875-1.25 3.818-1.718 5.285-3.125 3.313-3.125-.382 0-6.563-2.295-13.625-5.031l-12.844-4.969-1.906 1.531c-3.5 2.736-9.051 5.282-11.469 5.282-2.227 0-2.488-.179-3.187-2.47C36.48 62.44 29.04 48.113 25.03 42.004c-6.68-10.307-10.353-12.996-13.343-9.687-.955 1.082-1.22 2.305-1.157 6.25C10.658 50.21 17.283 65.414 26 74.003c4.581 4.581 9.61 7.078 15.719 7.97 4.708.635 7.875 1.822 7.875 3.03 0 1.273-3.122 4.982-5.094 6-1.718.891-3.373 1.065-7 .938-4.39-.191-5.207-.424-9.406-2.969-4.136-2.481-4.767-2.702-5.594-1.875s-.886 1.428-.25 3.719c1.336 4.963 4.885 7.232 13.156 8.25 8.463 1.082 11.331 3.649 8.532 7.594-1.846 2.545-5.017 3.875-9.407 3.875-4.963 0-9.243-2.187-14.906-7.532-2.418-2.227-4.65-3.88-5.031-3.625-.891.51-.83 5.601.125 8.72.89 2.99 4.894 7.701 7.312 8.655.955.382 3.403 1.148 5.375 1.657 6.936 1.908 7.93 4.598 3.032 7.843-3.182 2.1-8.463 2.283-12.344.438-2.545-1.145-9.54-7.708-10.875-10.063-1.146-2.1-2.35-.555-1.969 2.563.255 2.609 1.783 5.54 5.219 10.375 2.8 3.817 1.834 8.97-2.938 15.969-3.167 4.67-6.14 8.002-7.531 8.593-.273-.116-.615-.37-1-.687V-106.59c.33.067.664.12 1 .125 1.048-.014 2.119-.34 2.906-.938 1.146-.827 1.144-.935.063-2.844-1.336-2.481-.886-3.384 1.469-2.875 2.1.446 3.994-.394 6.093-2.812 1.909-2.1 1.914-2.336-.25-2.781-3.881-.827-5.22-3.625-1.656-3.625 2.863 0 9.22-4.155 9.156-6-.063-.382-1.255-1.27-2.718-1.97-3.31-1.59-3.398-2.792-.344-3.874 2.99-1.018 7.898-4.32 8.344-5.656.318-.637-.375-1.328-2.157-2.22-3.245-1.653-7.562-5.603-7.562-6.812 0-1.018.94-.96 6.031.375 1.4.382 4.58.688 7.125.688 3.69 0 5.28-.378 8.844-1.969 6.49-2.863 13.184-4.469 17.5-4.344m-5 9.375c-2.794-.13-.25 2.465-1.594 3.344-1.654 1.082-5.726-4.5-3.344 1.875 1.336 1.082 8.353.586 9.625-.75 1.273-1.272.255-3.524-1.781-3.906-1.325-.378-2.261-.532-2.906-.563"/><use xlink:href="#a" transform="scale(-1 1)"/></svg>