<svg xmlns="http://www.w3.org/2000/svg" width="1000" height="500" version="1.0" viewBox="0 0 200 100"><path d="M0 0h200v100H0z" style="opacity:1;fill:#171796;fill-opacity:1;fill-rule:evenodd;stroke:none;stroke-width:1.403;stroke-linecap:square;stroke-miterlimit:4;stroke-dasharray:none;stroke-opacity:1"/><path d="M53 0h100v100z" style="fill:#f7d117;fill-opacity:1;fill-rule:evenodd;stroke:none;stroke-width:1px;stroke-linecap:butt;stroke-linejoin:miter;stroke-opacity:1"/><path d="M81.531 51.125h6.938l2.115 6.56L85 53.626l-5.584 4.06z" style="fill:#fff;fill-opacity:1;fill-rule:evenodd;stroke:none;stroke-width:1px;stroke-linecap:butt;stroke-linejoin:miter;stroke-opacity:1" transform="translate(-50 -51.125)"/><path d="m81.531 51.125-5.566-4.06 6.91-.002L85 40.5l2.125 6.563 6.91.001-5.566 4.061H81.53" style="fill:#fff;fill-opacity:1;fill-rule:evenodd;stroke:none;stroke-width:1px;stroke-linecap:butt;stroke-linejoin:miter;stroke-opacity:1" transform="translate(50 48.875)"/><path d="M79.416 57.686 85 40.5l5.584 17.186-14.619-10.622h18.07z" style="fill:#fff;fill-opacity:1;fill-rule:nonzero;stroke:none;stroke-width:1px;stroke-linecap:butt;stroke-linejoin:miter;stroke-opacity:1" transform="translate(-37.5 -38.625)"/><path d="M79.416 57.686 85 40.5l5.584 17.186-14.619-10.622h18.07z" style="fill:#fff;fill-opacity:1;fill-rule:nonzero;stroke:none;stroke-width:1px;stroke-linecap:butt;stroke-linejoin:miter;stroke-opacity:1" transform="translate(-25 -26.125)"/><path d="M79.416 57.686 85 40.5l5.584 17.186-14.619-10.622h18.07z" style="fill:#fff;fill-opacity:1;fill-rule:nonzero;stroke:none;stroke-width:1px;stroke-linecap:butt;stroke-linejoin:miter;stroke-opacity:1" transform="translate(-12.5 -13.625)"/><path d="M79.416 57.686 85 40.5l5.584 17.186-14.619-10.622h18.07z" style="fill:#fff;fill-opacity:1;fill-rule:nonzero;stroke:none;stroke-width:1px;stroke-linecap:butt;stroke-linejoin:miter;stroke-opacity:1" transform="translate(0 -1.125)"/><path d="M79.416 57.686 85 40.5l5.584 17.186-14.619-10.622h18.07z" style="fill:#fff;fill-opacity:1;fill-rule:nonzero;stroke:none;stroke-width:1px;stroke-linecap:butt;stroke-linejoin:miter;stroke-opacity:1" transform="translate(12.5 11.375)"/><path d="M79.416 57.686 85 40.5l5.584 17.186-14.619-10.622h18.07z" style="fill:#fff;fill-opacity:1;fill-rule:nonzero;stroke:none;stroke-width:1px;stroke-linecap:butt;stroke-linejoin:miter;stroke-opacity:1" transform="translate(25 23.875)"/><path d="M79.416 57.686 85 40.5l5.584 17.186-14.619-10.622h18.07z" style="fill:#fff;fill-opacity:1;fill-rule:nonzero;stroke:none;stroke-width:1px;stroke-linecap:butt;stroke-linejoin:miter;stroke-opacity:1" transform="translate(37.5 36.375)"/></svg>