<svg xmlns="http://www.w3.org/2000/svg" xmlns:xlink="http://www.w3.org/1999/xlink" xml:space="preserve" width="900" height="450" version="1.0" viewBox="0 0 868 434"><path d="M0 0h868v434H0z" style="fill:#ed1c24;fill-opacity:1;fill-rule:evenodd;stroke:none;stroke-width:1;stroke-linecap:round;stroke-linejoin:round;stroke-miterlimit:4;stroke-dasharray:none;stroke-opacity:1"/><path d="M0 289.333h868V434H0z" style="opacity:1;fill:#00a651;fill-opacity:1;fill-rule:evenodd;stroke:none;stroke-width:1;stroke-linecap:round;stroke-linejoin:round;stroke-miterlimit:4;stroke-dasharray:none;stroke-opacity:1"/><path d="M0 0h96v434H0z" style="fill:#fff"/><path d="M28.837 106h4.251v10h4.251v10h4.252v10h4.25v10c1.416-.007 2.867 0 4.252 0 .004-3.32 0-6.67 0-10h4.25v-10h4.252v-10h4.25c.071-3.329-.08-6.69 0-10 1.416.007 2.867 0 4.252 0 .005 3.32 0 6.669 0 10h4.25v10H75.6v10h4.25v10h4.252v10H79.85v10h-4.251v10h-4.251c-.07 3.328.08 6.69 0 10-1.385-.006-2.836-.003-4.251 0-.005-3.32 0-6.669 0-10h-4.251v-10h-4.251v-10h4.25v-12c-1.385.006-2.864 0-4.25 0-.013 2.645 0 5.336 0 8h-4.251v10c-.708-.011-1.425 0-2.126 0-.025 2.643.01 5.346 0 8 .705.022 1.422-.027 2.126 0-.002 2.633 0 5.337 0 8h4.25v8h4.252v6h4.25v10c1.418-.001 2.835.002 4.252 0 .005-3.32 0-6.67 0-10h4.25v-6h4.252v-6h4.25v18h-4.25v8h-4.251v7h-4.251c.009 2-.015 4 0 6 1.416.024 2.834.003 4.25 0v8h4.252v8h4.25v18q-2.124-.004-4.25 0c-.025-1.985-.007-4.005 0-6h-4.251v-6h-4.251v-10c-1.415.007-2.867 0-4.251 0-.005 3.32 0 6.67 0 10h-4.251v6h-4.251v8h-4.251c.009 2.667-.01 5.344 0 8-.7.03-1.428-.02-2.126 0-.017 2.662-.002 5.346 0 8 .705.023 1.423-.026 2.126 0q-.002 5 0 10h4.25v8c1.418-.001 2.835.002 4.252 0 .018-3.982 0-8.007 0-12h-4.251v-10h4.25v-10h4.252c.036-3.333-.055-6.667 0-10 1.416-.023 2.834 0 4.25 0v10H75.6v10h4.25v10h4.252v10H79.85v10h-4.251v10h-4.251v10h-4.251c.004 3.324-.003 6.692 0 10-1.385-.007-2.836-.003-4.251 0-.005-3.32 0-6.669 0-10h-4.251v-10h-4.251v-10h-4.251v-10q-2.127-.001-4.251 0c-.005 3.32 0 6.67 0 10H41.59v10h-4.252v10h-4.25v10c-1.417.023-2.834 0-4.252 0v-10h-4.25v-10h-4.252v-10h-4.25v-10h-4.252v-10h4.251v-10h4.251v-10h4.251c.037-3.334-.047-6.667 0-10 1.415.007 2.867 0 4.251 0 .005 3.32 0 6.669 0 10h4.251v10h4.251v10h-4.25v12c1.384-.007 2.835-.003 4.25 0 .013-2.646 0-5.336 0-8h4.252v-10c.707.011 1.425 0 2.125 0 .026-2.644-.01-5.346 0-8-.705-.023-1.422.026-2.125 0 .006-2.623 0-5.345 0-8h-4.252v-8h-4.25v-6h-4.252v-10c-1.42.017-2.863 0-4.25 0-.021 3.315 0 6.673 0 10h-4.252v6h-4.25v6h-4.252v-18h4.251v-8h4.251v-8h4.251v-6c-1.405-.015-2.835-.002-4.25 0v-7h-4.252v-8h-4.25v-18c1.414.005 2.866 0 4.25 0-.006 1.988.025 4.002 0 6h4.251v6h4.251v10c1.42-.017 2.864 0 4.251 0 .005-3.32 0-6.67 0-10h4.251v-6h4.251v-8h4.252c-.013-2.666.01-5.344 0-8 .698-.03 1.427.02 2.125 0 .015-2.642 0-5.345 0-8-.705-.022-1.422.026-2.125 0v-10h-4.252v-8q-2.126-.002-4.25 0c-.004 3.987 0 8.002 0 12h4.25v10h-4.25v10h-4.252c.002 3.333 0 6.677 0 10-1.404.016-2.836 0-4.25 0v-10h-4.252v-10h-4.25v-10h-4.252v-10h4.251v-10h4.251v-10h4.251v-10h4.251zm17.005 82H41.59v10h-4.252v8h-4.25v7c-1.415-.004-2.847 0-4.252 0 .003 1.968 0 4.005 0 6h4.251v8h4.251v8h4.252v10h4.25v8h4.252v-8h4.25v-10h4.252v-8h4.25v-8h4.252v-6h-4.251v-7h-4.251v-8h-4.251v-10h-4.251v-8h-4.251z" style="fill:#ed1c24;fill-rule:evenodd"/><path d="M39.465 204h4.251c.005 1.332-.009 2.678 0 4 .698.041 1.418.003 2.126 0-.01.999 0 2.01 0 3 1.385-.007 2.865 0 4.25 0 .026-1.001.003-2.024 0-3 .697-.028 1.427-.004 2.126 0 .027-1.333 0-2.667 0-4h4.251v6c-.708-.013-1.426 0-2.125 0-.023 1 .033 2.022 0 3-.698.041-1.418.003-2.126 0v6c.708-.009 1.422 0 2.126 0 .032 1.325-.043 2.688 0 4 .698.041 1.418.003 2.125 0v6h-4.25c-.006-1.332.008-2.679 0-4-.697-.028-1.428-.004-2.126 0-.015-1.32 0-2.677 0-4-1.388.006-2.836.002-4.251 0-.014 1.321-.003 2.678 0 4-.703.01-1.428.003-2.126 0-.016 1.323 0 2.668 0 4h-4.251v-6c.708.013 1.427 0 2.126 0 .01-1.323 0-2.68 0-4 .702-.027 1.417-.004 2.125 0v-6c-.708.011-1.425 0-2.125 0-.022-.989 0-2.01 0-3-.699-.041-1.418-.005-2.126 0z" style="fill:#ed1c24;fill-rule:evenodd"/><path id="b" d="M11.833 257h4.228c-.058 2.663.074 5.358 0 8q-2.113-.001-4.228 0z" style="fill:#ed1c24;fill-rule:evenodd"/><path d="M67.097 434h-4.251v-11h-4.251v-10h-4.251v-10h-4.251v-10q-2.127-.001-4.251 0c-.005 3.32 0 6.67 0 10H41.59v10h-4.252v10h-4.25v11h-4.252v-11h-4.25v-10h-4.252v-10h-4.25v-10h-4.252v-10h4.251v-10h4.251v-10h4.251v-10h4.251c.063-3.329-.08-6.691 0-10 1.416.007 2.867 0 4.251 0 .01 3.31 0 6.67 0 10h4.251v10h4.252v10h4.25v10c1.416.003 2.847 0 4.252 0 .002-3.323 0-6.667 0-10h4.25v-10h4.252v-10h4.25v-10c1.416-.004 2.847 0 4.252 0 .003 3.322 0 6.667 0 10h4.25v10H75.6v10h4.25v10h4.252v10H79.85v10h-4.251v10h-4.251v10h-4.251zm-38.26-71v10h-4.25v10h-4.252v10h4.251v10h4.251v10c1.42-.017 2.864 0 4.251 0 .01-3.311 0-6.67 0-10h4.251v-10h4.252v-10h-4.252v-10h-4.25c-.012-3.331.016-6.68 0-10q-2.127.002-4.252 0m34.009 0v10h-4.251v10h-4.251v10h4.25v10h4.252v10c1.42-.017 2.863 0 4.25 0 .01-3.311 0-6.67 0-10h4.252v-10h4.25v-10h-4.25v-10h-4.251c-.011-3.331.016-6.68 0-10-1.385.004-2.836 0-4.251 0" style="fill:#ed1c24;fill-rule:evenodd"/><path id="c" d="M28.837 383h4.227c-.07 3.328.08 6.69 0 10-1.378-.003-2.82 0-4.227 0z" style="fill:#ed1c24;fill-rule:evenodd"/><path d="M62.846 383h4.226c-.07 3.328.08 6.69 0 10-1.378-.003-2.82 0-4.226 0z" style="fill:#ed1c24;fill-rule:evenodd"/><path id="a" d="M11.833 413h4.251v12q-2.126-.001-4.25 0z" style="fill:#ed1c24;fill-rule:evenodd"/><use xlink:href="#a" width="868" height="434" transform="translate(34.008)"/><use xlink:href="#a" width="868" height="434" transform="translate(68.016)"/><use xlink:href="#a" width="868" height="434" transform="translate(0 -58)"/><use xlink:href="#a" width="868" height="434" transform="translate(34.008 -58)"/><use xlink:href="#a" width="868" height="434" transform="translate(68.016 -58)"/><path d="M39.465 319h6.377c.022 1.988-.001 4.003 0 6 1.388-.007 2.865 0 4.25 0 .019-1.981 0-4 0-6h6.377c.009 1.99 0 4 0 6 .708-.014 1.427 0 2.126 0 .008 1.987 0 4.034 0 6 .697.03 1.427-.02 2.125 0-.006 2.623 0 5.345 0 8h-2.125v6c-.7.034-1.418.004-2.126 0v6h-6.376v-6c-1.418.002-2.835-.007-4.251 0-.019 1.981 0 4 0 6-2.118-.003-4.29 0-6.377 0-.008-1.99 0-4.001 0-6-.708.013-1.427 0-2.126 0-.008-1.987 0-4.035 0-6-.697-.03-1.427.02-2.125 0 .002-2.631 0-5.339 0-8h2.125v-6c.7-.035 1.418-.005 2.126 0zm2.126 14c-.698.03-1.427-.02-2.126 0-.014 1.324 0 2.668 0 4h2.126c-.004 1.332 0 2.675 0 4 .697.009 1.43-.02 2.125 0 .033-1.315 0-2.677 0-4 .7-.018 1.429-.003 2.126 0-.008-1.332 0-2.697 0-4-.698-.03-1.428.02-2.126 0-.026-1.332 0-2.667 0-4h-2.125c-.011 1.334.032 2.682 0 4m10.627 0c-.697.03-1.426-.02-2.125 0-.015 1.324 0 2.668 0 4h2.125c-.003 1.332 0 2.675 0 4 .698.009 1.43-.02 2.126 0 .032-1.315 0-2.677 0-4 .699-.018 1.429-.003 2.125 0-.006-1.303-.003-2.669 0-4-.697-.03-1.428.02-2.125 0-.04-1.315 0-2.666 0-4h-2.126c-.01 1.334.032 2.682 0 4M16.084 319h6.377v6c.708-.014 1.427 0 2.125 0 .009 1.987 0 4.034 0 6 .698.03 1.494.042 2.192.062-.006 2.623-.066 5.283-.066 7.938h-2.126v6c-.7.034-1.417.004-2.125 0v6h-6.377v-6c-.708.013-1.427 0-2.125 0-.006-1.99-.004-4.003 0-6-.698-.03-1.428.02-2.126 0 .006-2.623 0-5.345 0-8h2.126v-6c.7-.035 1.418-.005 2.125 0zm2.126 14c-.698.03-1.426-.02-2.126 0-.02 1.333 0 2.666 0 4h2.126c-.006 1.331 0 2.676 0 4 .697.009 1.43-.02 2.125 0 .029-1.333-.007-2.667 0-4 .7-.018 1.43-.003 2.126 0-.007-1.303-.003-2.669 0-4-.697-.03-1.428.02-2.126 0-.024-1.313-.01-2.67 0-4H18.21c-.01 1.334.032 2.682 0 4M73.473 319h6.377v6c.708-.014 1.427 0 2.125 0 .008 1.987 0 4.034 0 6 .698.03 1.494.042 2.192.062-.006 2.623-.066 5.283-.066 7.938h-2.126v6c-.7.034-1.418.004-2.125 0v6h-6.377v-6c-.708.013-1.427 0-2.125 0-.007-1.99-.004-4.003 0-6-.698-.03-1.428.02-2.126 0 .006-2.623 0-5.345 0-8h2.126v-6c.7-.035 1.418-.005 2.125 0zm2.126 14c-.698.03-1.426-.02-2.126 0-.02 1.333 0 2.666 0 4H75.6c-.006 1.331 0 2.676 0 4 .697.009 1.43-.02 2.125 0 .029-1.333-.007-2.667 0-4 .7-.018 1.43-.003 2.126 0-.007-1.303-.003-2.669 0-4-.698-.03-1.428.02-2.126 0-.025-1.313-.01-2.67 0-4H75.6c-.01 1.334.032 2.682 0 4" style="fill:#ed1c24;fill-rule:evenodd"/><use xlink:href="#a" width="868" height="434" transform="translate(0 -110)"/><use xlink:href="#a" width="868" height="434" transform="translate(34.008 -110)"/><use xlink:href="#a" width="868" height="434" transform="translate(68.016 -110)"/><use xlink:href="#b" width="868" height="434" transform="translate(68.016)"/><use xlink:href="#c" id="d" width="868" height="434" x="0" y="0" transform="translate(17.004 -152)"/><use xlink:href="#d" width="868" height="434" transform="translate(-10.628 -20)"/><use xlink:href="#d" width="868" height="434" transform="translate(10.628 -20)"/><use xlink:href="#d" id="e" width="868" height="434" x="0" y="0" transform="translate(-34.008 -20)"/><use xlink:href="#e" width="868" height="434" transform="translate(68.016)"/><path d="M84.167 177h-4.228c.058-2.663-.074-5.359 0-8q2.113.001 4.228 0zM28.903 0h4.251v11h4.251v10h4.251v10h4.251v10c1.418-.001 2.835.002 4.251 0 .005-3.32 0-6.67 0-10h4.251V21h4.252V11h4.25V0h4.252v11h4.25v10h4.252v10h4.25v10h4.252v10h-4.251v10h-4.251v10h-4.251v10h-4.251c-.063 3.328.08 6.691 0 10-1.416-.008-2.867 0-4.251 0-.01-3.311 0-6.67 0-10H58.66V71h-4.252V61h-4.25V51c-1.416-.004-2.847 0-4.252 0-.002 3.322 0 6.667 0 10h-4.25v10h-4.252v10h-4.25v10c-1.416.003-2.847 0-4.252 0-.003-3.323 0-6.667 0-10h-4.25V71H20.4V61h-4.25V51h-4.252V41h4.251V31h4.251V21h4.251V11h4.251zm38.26 71V61h4.25V51h4.252V41h-4.251V31h-4.251V21c-1.42.017-2.864 0-4.251 0-.01 3.31 0 6.67 0 10H58.66v10h-4.252v10h4.252v10h4.25c.012 3.331-.016 6.68 0 10q2.127-.001 4.252 0m-34.009 0V61h4.251V51h4.251V41h-4.25V31h-4.252V21c-1.42.017-2.863 0-4.25 0-.01 3.31 0 6.67 0 10h-4.252v10h-4.25v10h4.25v10h4.251c.011 3.331-.016 6.68 0 10 1.385-.005 2.836 0 4.251 0" style="fill:#ed1c24;fill-rule:evenodd"/><path d="M67.163 51h-4.227c.07-3.329-.08-6.69 0-10 1.378.002 2.82 0 4.227 0zM33.154 51h-4.226c.07-3.329-.08-6.69 0-10 1.378.002 2.82 0 4.226 0zM84.167 21h-4.251V9q2.126.002 4.25 0z" style="fill:#ed1c24;fill-rule:evenodd"/><use xlink:href="#a" width="868" height="434" transform="rotate(180 30.996 217)"/><use xlink:href="#a" width="868" height="434" transform="rotate(180 13.992 217)"/><use xlink:href="#a" width="868" height="434" transform="rotate(180 48 246)"/><use xlink:href="#a" width="868" height="434" transform="rotate(180 30.996 246)"/><use xlink:href="#a" width="868" height="434" transform="rotate(180 13.992 246)"/><path d="M56.535 115h-6.377c-.022-1.988.001-4.003 0-6-1.388.007-2.865 0-4.25 0-.019 1.981 0 4 0 6H39.53c-.009-1.99 0-4.001 0-6-.708.013-1.427 0-2.126 0-.008-1.987 0-4.035 0-6-.697-.03-1.427.02-2.125 0 .006-2.623 0-5.345 0-8h2.125v-6c.7-.035 1.418-.005 2.126 0v-6h6.376v6c1.418-.002 2.835.006 4.251 0 .019-1.981 0-4.001 0-6 2.118.003 4.29 0 6.377 0 .008 1.99 0 4 0 6 .708-.014 1.427 0 2.126 0 .008 1.987 0 4.034 0 6 .697.03 1.427-.02 2.125 0-.002 2.63 0 5.338 0 8h-2.125v6c-.7.034-1.418.004-2.126 0zm-2.126-14c.698-.03 1.427.02 2.126 0 .014-1.325 0-2.668 0-4h-2.126c.004-1.332 0-2.676 0-4-.697-.009-1.43.02-2.125 0-.033 1.314 0 2.677 0 4-.7.018-1.429.003-2.126 0 .008 1.331 0 2.697 0 4 .698.03 1.428-.02 2.126 0 .026 1.332 0 2.666 0 4h2.125c.011-1.335-.032-2.682 0-4m-10.627 0c.697-.03 1.426.02 2.125 0 .015-1.325 0-2.668 0-4h-2.125c.003-1.332 0-2.676 0-4-.698-.009-1.43.02-2.126 0-.032 1.314 0 2.677 0 4-.699.018-1.429.003-2.125 0 .006 1.303.003 2.668 0 4 .697.03 1.428-.02 2.125 0 .04 1.315 0 2.665 0 4h2.126c.01-1.335-.032-2.682 0-4M79.916 115h-6.377v-6c-.708.013-1.427 0-2.125 0-.009-1.987 0-4.035 0-6-.698-.03-1.494-.042-2.192-.062.006-2.623.066-5.283.066-7.938h2.126v-6c.7-.035 1.417-.005 2.125 0v-6h6.377v6c.708-.014 1.427 0 2.125 0 .006 1.99.004 4.003 0 6 .698.03 1.428-.02 2.126 0-.006 2.623 0 5.345 0 8H82.04v6c-.7.034-1.418.004-2.125 0zm-2.126-14c.698-.03 1.426.02 2.126 0 .02-1.333 0-2.667 0-4H77.79c.006-1.332 0-2.677 0-4-.697-.009-1.43.02-2.125 0-.029 1.332.007 2.666 0 4-.7.018-1.43.003-2.126 0 .007 1.303.003 2.668 0 4 .697.03 1.428-.02 2.126 0 .024 1.313.01 2.67 0 4h2.125c.01-1.335-.032-2.682 0-4M22.527 115H16.15v-6c-.708.013-1.427 0-2.125 0-.008-1.987 0-4.035 0-6-.698-.03-1.494-.042-2.192-.062.006-2.623.066-5.283.066-7.938h2.126v-6c.7-.035 1.418-.005 2.125 0v-6h6.377v6c.708-.014 1.427 0 2.125 0 .007 1.99.004 4.003 0 6 .698.03 1.428-.02 2.126 0-.006 2.623 0 5.345 0 8h-2.126v6c-.7.034-1.418.004-2.125 0zM20.4 101c.698-.03 1.426.02 2.126 0 .02-1.333 0-2.667 0-4H20.4c.006-1.332 0-2.677 0-4-.697-.009-1.43.02-2.125 0-.029 1.332.007 2.666 0 4-.7.018-1.43.003-2.126 0 .007 1.303.003 2.668 0 4 .698.03 1.428-.02 2.126 0 .025 1.313.01 2.67 0 4H20.4c.01-1.335-.032-2.682 0-4" style="fill:#ed1c24;fill-rule:evenodd"/><use xlink:href="#a" width="868" height="434" transform="rotate(180 48 272)"/><use xlink:href="#a" width="868" height="434" transform="rotate(180 30.996 272)"/><use xlink:href="#a" width="868" height="434" transform="rotate(180 13.992 272)"/><use xlink:href="#b" width="868" height="434" transform="rotate(180 13.992 217)"/><use xlink:href="#c" width="868" height="434" transform="rotate(180 39.498 293)"/></svg>