<svg xmlns="http://www.w3.org/2000/svg" width="1200" height="600" version="1.0" viewBox="0 0 6400 3200"><path fill="red" d="M0 0v3200h6400V0z"/><path fill="#fff" d="M1600 0h3200v3200H1600z"/><path fill="red" d="m3199.953 290-209.591 408.71c-23.783 44.42-66.394 40.3-109.005 15.49l-151.739-82.15 113.093 627.77c23.783 114.69-52.522 114.69-90.18 65.1l-264.812-309.95-42.992 157.4c-4.958 20.67-26.756 42.38-59.458 37.21l-334.86-73.61 87.954 334.32c18.828 74.39 33.514 105.19-19.008 124.81L2000 1653.75l576.438 489.54c22.816 18.51 34.343 51.82 26.22 81.98l-50.45 173.1c198.476-23.92 376.419-45.33 574.89-69.22 17.636-.23 46.878 15.44 46.758 36.68L3147.558 3000h96.5l-15.19-632.81c-.12-21.24 26.398-38.27 44.034-38.04 198.471 23.89 376.414 45.3 574.89 69.22l-50.45-173.1c-8.123-30.16 3.405-63.47 26.22-81.98L4400 1653.75l-119.354-58.65c-52.523-19.62-37.837-50.42-19.008-124.81l87.953-334.32-334.86 73.61c-32.702 5.17-54.5-16.54-59.458-37.21l-42.992-157.4-264.813 309.95c-37.657 49.59-113.962 49.59-90.18-65.1l113.093-627.77-151.738 82.15c-42.612 24.81-85.222 28.93-109.005-15.49"/></svg>