<svg xmlns="http://www.w3.org/2000/svg" xml:space="preserve" id="svg1826" width="750" height="500" x="0" y="0" style="shape-rendering:geometricPrecision;text-rendering:geometricPrecision;image-rendering:optimizeQuality" version="1.0" viewBox="-3461 0 6641 4428"><defs id="defs1828"><style id="style1830" type="text/css">.str0,.str1{stroke:#fc0;stroke-width:3}.str0{stroke:#fcd116}.fil3{fill:none}.fil0{fill:#fff}.fil4{fill:#fcd116}</style></defs><path id="21445432" d="M-3461.5 0h6642.001v1476H-3461.5z" style="fill:#ce1126"/><path id="21445344" d="M-3461.5 1476h6642.001v1476H-3461.5z" class="fil0" style="fill:#fff"/><path id="21445520" d="M3180.501 2952v1476H-3461.5V2952z" style="fill:#000"/><g id="g3378"><g id="g1838" style="stroke:#fcd116;stroke-width:8.33394718;stroke-miterlimit:4;stroke-dasharray:none;stroke-opacity:1" transform="matrix(1.00015 0 0 1 .022 0)"><path id="21445608" d="M-141 2880c139 0 272-11 350-33 33-6 33-23 33-45 33-11 16-50 39-50-23 6-28-39-56-33 0-39-39-44-72-33-66 22-183 27-294 27-111-5-227-5-294-27-33-11-72-6-72 33-28-6-33 39-56 33 23 0 6 39 39 50 0 22 0 39 34 45 77 22 210 33 349 33z" class="fil0" style="fill:#fff;stroke:#fcd116;stroke-width:8.33394718;stroke-miterlimit:4;stroke-dasharray:none;stroke-opacity:1"/><path id="path1841" d="M-141 2880c139 0 272-11 350-33 33-6 33-23 33-45 33-11 16-50 39-50-23 6-28-39-56-33 0-39-39-44-72-33-66 22-183 27-294 27-111-5-227-5-294-27-33-11-72-6-72 33-28-6-33 39-56 33 23 0 6 39 39 50 0 22 0 39 34 45 77 22 210 33 349 33z" class="fil3 str0" style="fill:none;stroke:#fcd116;stroke-width:8.33394718;stroke-miterlimit:4;stroke-dasharray:none;stroke-opacity:1"/></g><path id="21445696" d="M-457.047 2741c-11.002 0-11.002 6 0 6 5 0 5-6 0-6z" class="fil4" style="fill:#fcd116;stroke:#fcd116;stroke-width:8.33457661;stroke-miterlimit:4;stroke-dasharray:none;stroke-opacity:1"/><path id="21445784" d="M-457.047 2719c-6.001 0-6.001 11 0 11 11.001 0 11.001-11 0-11z" class="fil4" style="fill:#fcd116;stroke:#fcd116;stroke-width:8.33457661;stroke-miterlimit:4;stroke-dasharray:none;stroke-opacity:1"/><path id="21445872" d="M-457.047 2802c-6.001 0-6.001 11 0 11 5 0 5-11 0-11z" class="fil4" style="fill:#fcd116;stroke:#fcd116;stroke-width:8.33457661;stroke-miterlimit:4;stroke-dasharray:none;stroke-opacity:1"/><path id="21445960" d="M-435.044 2808c-11.002 0-11.002 11 0 11 6.001 0 6.001-11 0-11z" class="fil4" style="fill:#fcd116;stroke:#fcd116;stroke-width:8.33457661;stroke-miterlimit:4;stroke-dasharray:none;stroke-opacity:1"/><path id="21446048" d="M-413.04 2813c-5.001 0-5.001 11 0 11 11.001 0 11.001-11 0-11z" class="fil4" style="fill:#fcd116;stroke:#fcd116;stroke-width:8.33457661;stroke-miterlimit:4;stroke-dasharray:none;stroke-opacity:1"/><path id="21446136" d="M-68.989 2758c-5 0-5 11 0 11 6.001 0 6.001-11 0-11z" class="fil4" style="fill:#fcd116;stroke:#fcd116;stroke-width:8.33457661;stroke-miterlimit:4;stroke-dasharray:none;stroke-opacity:1"/><path id="21446224" d="M-62.988 2780c-11.001 0-11.001 5 0 5 5.001 0 5.001-5 0-5z" class="fil4" style="fill:#fcd116;stroke:#fcd116;stroke-width:8.33457661;stroke-miterlimit:4;stroke-dasharray:none;stroke-opacity:1"/><path id="21446312" d="M-46.985 2835c-5.001 0-5.001 12 0 12 6 0 6-12 0-12z" class="fil4" style="fill:#fcd116;stroke:#fcd116;stroke-width:8.33457661;stroke-miterlimit:4;stroke-dasharray:none;stroke-opacity:1"/><path id="21446400" d="M-23.982 2835c-12.002 0-12.002 12 0 12 5 0 5-12 0-12z" class="fil4" style="fill:#fcd116;stroke:#fcd116;stroke-width:8.33457661;stroke-miterlimit:4;stroke-dasharray:none;stroke-opacity:1"/><path id="21446488" d="M203.052 2791c-11.001 0-11.001 6 0 6 6.001 0 6.001-6 0-6z" class="fil4" style="fill:#fcd116;stroke:#fcd116;stroke-width:8.33457661;stroke-miterlimit:4;stroke-dasharray:none;stroke-opacity:1"/><g id="g1853" style="stroke:#fcd116;stroke-width:8.33394718;stroke-miterlimit:4;stroke-dasharray:none;stroke-opacity:1" transform="matrix(1.00015 0 0 1 .022 0)"><path id="21446576" d="M-435 2719c-6 22-11 44-17 55 0 11 6 17 11 17 17 6 17 6 23-17 5-11 0-11 0 0-6 17-11 23 11 28 16 6 22 0 27-22 0-11-11-6-5 0" class="fil3 str0" style="fill:none;stroke:#fcd116;stroke-width:8.33394718;stroke-miterlimit:4;stroke-dasharray:none;stroke-opacity:1"/></g><g id="g1856" style="stroke:#fcd116;stroke-width:8.33394718;stroke-miterlimit:4;stroke-dasharray:none;stroke-opacity:1" transform="matrix(1.00015 0 0 1 .022 0)"><path id="21311504" d="M-446 2763c-28 6-17 22 5 28" class="fil3 str0" style="fill:none;stroke:#fcd116;stroke-width:8.33394718;stroke-miterlimit:4;stroke-dasharray:none;stroke-opacity:1"/></g><g id="g1859" style="stroke:#fcd116;stroke-width:8.33394718;stroke-miterlimit:4;stroke-dasharray:none;stroke-opacity:1" transform="matrix(1.00015 0 0 1 .022 0)"><path id="21311592" d="M-374 2824c11-5 17-16 17-27-6-17-11-12-6 0 0 11 6 16 22 16 11 0 22-5 34-11 11-5 11-22 0-28-17-5-28 17-12 28 6 6 12 11 23 17 0 5 0 16 11 16 5 6 16-11 16-27v-50" class="fil3 str0" style="fill:none;stroke:#fcd116;stroke-width:8.33394718;stroke-miterlimit:4;stroke-dasharray:none;stroke-opacity:1"/></g><g id="g1862" style="stroke:#fcd116;stroke-width:8.33394718;stroke-miterlimit:4;stroke-dasharray:none;stroke-opacity:1" transform="matrix(1.00015 0 0 1 .022 0)"><path id="21311680" d="M-246 2758c0 16-6 44-6 61" class="fil3 str0" style="fill:none;stroke:#fcd116;stroke-width:8.33394718;stroke-miterlimit:4;stroke-dasharray:none;stroke-opacity:1"/></g><g id="g1865" style="stroke:#fcd116;stroke-width:8.33394718;stroke-miterlimit:4;stroke-dasharray:none;stroke-opacity:1" transform="matrix(1.00015 0 0 1 .022 0)"><path id="21311768" d="M-235 2852c22-17 22-28 22-39-6-16-17-11-11 0 5 6 11 11 22 11 6 0 11-5 11-27 0-6-5-6-5 0 0 5 16 5 22 5 11 6 39 6 44 0 6 0 6 17 6 17 0 5-6 11-6 16-5 12-11 6-17 0 0-11-11-11-16-11h-39" class="fil3 str0" style="fill:none;stroke:#fcd116;stroke-width:8.33394718;stroke-miterlimit:4;stroke-dasharray:none;stroke-opacity:1"/></g><g id="g1868" style="stroke:#fcd116;stroke-width:8.33394718;stroke-miterlimit:4;stroke-dasharray:none;stroke-opacity:1" transform="matrix(1.00015 0 0 1 .022 0)"><path id="21311856" d="M-124 2824c5 0 16-5 22 0 5 0 17-5 17-11 0-16-28-16-17 11" class="fil3 str0" style="fill:none;stroke:#fcd116;stroke-width:8.33394718;stroke-miterlimit:4;stroke-dasharray:none;stroke-opacity:1"/></g><g id="g1871" style="stroke:#fcd116;stroke-width:8.33394718;stroke-miterlimit:4;stroke-dasharray:none;stroke-opacity:1" transform="matrix(1.00015 0 0 1 .022 0)"><path id="21311944" d="M-47 2758c6 22 6 50 0 61-5 5-16 5-16 0 5-6 16-11 22-6 0 6 5 11 17 6 11 0 16 0 16-28 0-6-16-6 0 6" class="fil3 str0" style="fill:none;stroke:#fcd116;stroke-width:8.33394718;stroke-miterlimit:4;stroke-dasharray:none;stroke-opacity:1"/></g><g id="g1874" style="stroke:#fcd116;stroke-width:8.33394718;stroke-miterlimit:4;stroke-dasharray:none;stroke-opacity:1" transform="matrix(1.00015 0 0 1 .022 0)"><path id="21312032" d="M9 2841c11-11 22-33 16-44-11-12-16-12-16 0 0 5 5 11 16 16" class="fil3 str0" style="fill:none;stroke:#fcd116;stroke-width:8.33394718;stroke-miterlimit:4;stroke-dasharray:none;stroke-opacity:1"/></g><g id="g1877" style="stroke:#fcd116;stroke-width:8.33394718;stroke-miterlimit:4;stroke-dasharray:none;stroke-opacity:1" transform="matrix(1.00015 0 0 1 .022 0)"><path id="21312120" d="M48 2830c16-6 16-17 16-28s-5-17-11-11c-11 6-11 17 0 17 22 0 61-6 89-23" class="fil3 str0" style="fill:none;stroke:#fcd116;stroke-width:8.33394718;stroke-miterlimit:4;stroke-dasharray:none;stroke-opacity:1"/></g><g id="g1880" style="stroke:#fcd116;stroke-width:8.33394718;stroke-miterlimit:4;stroke-dasharray:none;stroke-opacity:1" transform="matrix(1.00015 0 0 1 .022 0)"><path id="21312208" d="M87 2802c0-11 5-22 16-22 6-6 22 0 22 11 6 11-5 22-16 17-6-11-11-39-17-61" class="fil3 str0" style="fill:none;stroke:#fcd116;stroke-width:8.33394718;stroke-miterlimit:4;stroke-dasharray:none;stroke-opacity:1"/></g><g id="g1883" style="stroke:#fcd116;stroke-width:8.33394718;stroke-miterlimit:4;stroke-dasharray:none;stroke-opacity:1" transform="matrix(1.00015 0 0 1 .022 0)"><path id="21312296" d="M175 2774c-11-11-39 0-33 11 6 17 39 6 33-11z" class="fil3 str0" style="fill:none;stroke:#fcd116;stroke-width:8.33394718;stroke-miterlimit:4;stroke-dasharray:none;stroke-opacity:1"/></g><g id="g1886" style="stroke:#fcd116;stroke-width:8.33394718;stroke-miterlimit:4;stroke-dasharray:none;stroke-opacity:1" transform="matrix(1.00015 0 0 1 .022 0)"><path id="21312384" d="M175 2780s11-6 17-11" class="fil3 str0" style="fill:none;stroke:#fcd116;stroke-width:8.33394718;stroke-miterlimit:4;stroke-dasharray:none;stroke-opacity:1"/></g><g id="g1889" style="stroke:#fcd116;stroke-width:8.33394718;stroke-miterlimit:4;stroke-dasharray:none;stroke-opacity:1" transform="matrix(1.00015 0 0 1 .022 0)"><path id="21312472" d="M148 2719c11-11 33-11 33 11 0 39 16 55 39 39 0-6 0-11-6 0" class="fil3 str0" style="fill:none;stroke:#fcd116;stroke-width:8.33394718;stroke-miterlimit:4;stroke-dasharray:none;stroke-opacity:1"/></g><g id="g1892" style="stroke:#fcd116;stroke-width:8.33394718;stroke-miterlimit:4;stroke-dasharray:none;stroke-opacity:1" transform="matrix(1.00015 0 0 1 .022 0)"><path id="21312560" d="M-335 2785h11" class="fil3 str0" style="fill:none;stroke:#fcd116;stroke-width:8.33394718;stroke-miterlimit:4;stroke-dasharray:none;stroke-opacity:1"/></g><g id="g1895" style="stroke:#fcd116;stroke-width:8.33394718;stroke-miterlimit:4;stroke-dasharray:none;stroke-opacity:1" transform="matrix(1.00015 0 0 1 .022 0)"><path id="21312648" d="M-296 2791h5" class="fil3 str0" style="fill:none;stroke:#fcd116;stroke-width:8.33394718;stroke-miterlimit:4;stroke-dasharray:none;stroke-opacity:1"/></g><path id="21312736" d="m342.073 2686-34.005-805c-5-122-111.016-94-188.028-50-78.012 50-167.025 50-261.04 17-94.014 33-183.027 33-261.039-17-77.012-44-183.028-72-188.028 50l-34.005 805z" class="fil0" style="fill:#fff;stroke:#fcd116;stroke-width:8.33457661;stroke-miterlimit:4;stroke-dasharray:none;stroke-opacity:1"/><g id="g1899" style="stroke:#fcd116;stroke-width:8.33394718;stroke-miterlimit:4;stroke-dasharray:none;stroke-opacity:1" transform="matrix(1.00015 0 0 1 .022 0)"><path id="21312824" d="m342 2686-34-805c-5-122-111-94-188-50-78 50-167 50-261 17-94 33-183 33-261-17-77-44-183-72-188 50l-34 805" class="fil3 str0" style="fill:none;stroke:#fcd116;stroke-width:8.33394718;stroke-miterlimit:4;stroke-dasharray:none;stroke-opacity:1"/></g><g id="g1902" style="stroke:#fcd116;stroke-width:8.33394718;stroke-miterlimit:4;stroke-dasharray:none;stroke-opacity:1" transform="matrix(1.00015 0 0 1 .022 0)"><path id="21312912" d="M-63 1876c27 16 55 16 72 16-56-39-72-144-67-188q16.5-133.5-66-150c-11 0-17-6-39-6-17-5-33 11-39 22-17-11-28-5-44-16-17-6-45 0-45 39l6-6c11 6 16 0 33 11 11 11 33 22 39 61 11 83 0 161-78 233 17 0 45 0 72-16-11 16-16 22-27 33 33-6 61-17 77-44 6 11 22 27 28 38 6-11 22-27 28-38 16 27 44 38 77 44-11-11-16-17-27-33z" class="fil0" style="fill:#fff;stroke:#fcd116;stroke-width:8.33394718;stroke-miterlimit:4;stroke-dasharray:none;stroke-opacity:1"/><path id="path1905" d="M-63 1876c27 16 55 16 72 16-56-39-72-144-67-188q16.5-133.5-66-150c-11 0-17-6-39-6-17-5-33 11-39 22-17-11-28-5-44-16-17-6-45 0-45 39l6-6c11 6 16 0 33 11 11 11 33 22 39 61 11 83 0 161-78 233 17 0 45 0 72-16-11 16-16 22-27 33 33-6 61-17 77-44 6 11 22 27 28 38 6-11 22-27 28-38 16 27 44 38 77 44-11-11-16-17-27-33z" class="fil3 str0" style="fill:none;stroke:#fcd116;stroke-width:8.33394718;stroke-miterlimit:4;stroke-dasharray:none;stroke-opacity:1"/></g><g id="g1907" style="stroke:#fcd116;stroke-width:8.33394718;stroke-miterlimit:4;stroke-dasharray:none;stroke-opacity:1" transform="matrix(1.00015 0 0 1 .022 0)"><path id="21313000" d="M-91 1770c0 45 11 78 28 111" class="fil3 str1" style="fill:none;stroke:#fcd116;stroke-width:8.33394718;stroke-miterlimit:4;stroke-dasharray:none;stroke-opacity:1"/></g><g id="g1910" style="stroke:#fcd116;stroke-width:8.33394718;stroke-miterlimit:4;stroke-dasharray:none;stroke-opacity:1" transform="matrix(1.00015 0 0 1 .022 0)"><path id="21313088" d="M-113 1865c-11-17-17-50-17-95" class="fil3 str1" style="fill:none;stroke:#fcd116;stroke-width:8.33394718;stroke-miterlimit:4;stroke-dasharray:none;stroke-opacity:1"/></g><g id="g1913" style="stroke:#fcd116;stroke-width:8.33394718;stroke-miterlimit:4;stroke-dasharray:none;stroke-opacity:1" transform="matrix(1.00015 0 0 1 .022 0)"><path id="21313176" d="M-191 1770c0 45-11 78-28 111" class="fil3 str0" style="fill:none;stroke:#fcd116;stroke-width:8.33394718;stroke-miterlimit:4;stroke-dasharray:none;stroke-opacity:1"/></g><g id="g1916" style="stroke:#fcd116;stroke-width:8.33394718;stroke-miterlimit:4;stroke-dasharray:none;stroke-opacity:1" transform="matrix(1.00015 0 0 1 .022 0)"><path id="21313264" d="M-169 1865c11-17 17-50 17-95" class="fil3 str1" style="fill:none;stroke:#fcd116;stroke-width:8.33394718;stroke-miterlimit:4;stroke-dasharray:none;stroke-opacity:1"/></g><path id="21313352" d="M-285.021 1587c11.001 6 16.002 0 33.005 11 11.001 6 33.005 22 39.006 56-6.001-17 5-34 17.002-28-17.002-39-67.01-50-89.013-39z" style="fill:#fc0;stroke:#fcd116;stroke-width:8.33457661;stroke-miterlimit:4;stroke-dasharray:none;stroke-opacity:1"/><g id="g1920" style="stroke:#fcd116;stroke-width:8.33394718;stroke-miterlimit:4;stroke-dasharray:none;stroke-opacity:1" transform="matrix(1.00015 0 0 1 .022 0)"><path id="21313440" d="m-119 2331 67 305-22 22-23-17-38-272 16 272-22 28-22-28 16-272-38 272-23 17-22-22 67-305z" class="fil4" style="fill:#fcd116;stroke:#fcd116;stroke-width:8.33394718;stroke-miterlimit:4;stroke-dasharray:none;stroke-opacity:1"/><path id="path1923" d="m-119 2331 67 305-22 22-23-17-38-272 16 272-22 28-22-28 16-272-38 272-23 17-22-22 67-305z" class="fil3 str0" style="fill:none;stroke:#fcd116;stroke-width:8.33394718;stroke-miterlimit:4;stroke-dasharray:none;stroke-opacity:1"/></g><g id="g1925" style="stroke:#fcd116;stroke-width:8.33394718;stroke-miterlimit:4;stroke-dasharray:none;stroke-opacity:1" transform="matrix(1.00015 0 0 1 .022 0)"><path id="21313528" d="m-535 1853-33 783-56 50 34-805c16-11 44-28 55-28z" class="fil4" style="fill:#fcd116;stroke:#fcd116;stroke-width:8.33394718;stroke-miterlimit:4;stroke-dasharray:none;stroke-opacity:1"/><path id="path1928" d="m-535 1853-33 783-56 50 34-805c16-11 44-28 55-28z" class="fil3 str0" style="fill:none;stroke:#fcd116;stroke-width:8.33394718;stroke-miterlimit:4;stroke-dasharray:none;stroke-opacity:1"/></g><g id="g1930" style="stroke:#fcd116;stroke-width:8.33394718;stroke-miterlimit:4;stroke-dasharray:none;stroke-opacity:1" transform="matrix(1.00015 0 0 1 .022 0)"><path id="21313616" d="m-468 1909-28 655-56 49 34-748c11 11 44 38 50 44z" class="fil4" style="fill:#fcd116;stroke:#fcd116;stroke-width:8.33394718;stroke-miterlimit:4;stroke-dasharray:none;stroke-opacity:1"/><path id="path1933" d="m-468 1909-28 655-56 49 34-748c11 11 44 38 50 44z" class="fil3 str0" style="fill:none;stroke:#fcd116;stroke-width:8.33394718;stroke-miterlimit:4;stroke-dasharray:none;stroke-opacity:1"/></g><g id="g1935" style="stroke:#fcd116;stroke-width:8.33394718;stroke-miterlimit:4;stroke-dasharray:none;stroke-opacity:1" transform="matrix(1.00015 0 0 1 .022 0)"><path id="21313704" d="m-407 1959-22 538-45 44 28-615c11 11 33 27 39 33z" class="fil4" style="fill:#fcd116;stroke:#fcd116;stroke-width:8.33394718;stroke-miterlimit:4;stroke-dasharray:none;stroke-opacity:1"/><path id="path1938" d="m-407 1959-22 538-45 44 28-615c11 11 33 27 39 33z" class="fil3 str0" style="fill:none;stroke:#fcd116;stroke-width:8.33394718;stroke-miterlimit:4;stroke-dasharray:none;stroke-opacity:1"/></g><g id="g1940" style="stroke:#fcd116;stroke-width:8.33394718;stroke-miterlimit:4;stroke-dasharray:none;stroke-opacity:1" transform="matrix(1.00015 0 0 1 .022 0)"><path id="21313792" d="m-341 1987-22 449-44 44 22-510c11 5 33 17 44 17z" class="fil4" style="fill:#fcd116;stroke:#fcd116;stroke-width:8.33394718;stroke-miterlimit:4;stroke-dasharray:none;stroke-opacity:1"/><path id="path1943" d="m-341 1987-22 449-44 44 22-510c11 5 33 17 44 17z" class="fil3 str0" style="fill:none;stroke:#fcd116;stroke-width:8.33394718;stroke-miterlimit:4;stroke-dasharray:none;stroke-opacity:1"/></g><g id="g1945" style="stroke:#fcd116;stroke-width:8.33394718;stroke-miterlimit:4;stroke-dasharray:none;stroke-opacity:1" transform="matrix(1.00015 0 0 1 .022 0)"><path id="21313880" d="m-280 1987-16 388-45 44 17-427c11 0 39 0 44-5z" class="fil4" style="fill:#fcd116;stroke:#fcd116;stroke-width:8.33394718;stroke-miterlimit:4;stroke-dasharray:none;stroke-opacity:1"/><path id="path1948" d="m-280 1987-16 388-45 44 17-427c11 0 39 0 44-5z" class="fil3 str0" style="fill:none;stroke:#fcd116;stroke-width:8.33394718;stroke-miterlimit:4;stroke-dasharray:none;stroke-opacity:1"/></g><g id="g1950" style="stroke:#fcd116;stroke-width:8.33394718;stroke-miterlimit:4;stroke-dasharray:none;stroke-opacity:1" transform="matrix(1.00015 0 0 1 .022 0)"><path id="21313968" d="m253 1853 33 783 56 50-34-805c-16-11-44-28-55-28z" class="fil4" style="fill:#fcd116;stroke:#fcd116;stroke-width:8.33394718;stroke-miterlimit:4;stroke-dasharray:none;stroke-opacity:1"/><path id="path1953" d="m253 1853 33 783 56 50-34-805c-16-11-44-28-55-28z" class="fil3 str0" style="fill:none;stroke:#fcd116;stroke-width:8.33394718;stroke-miterlimit:4;stroke-dasharray:none;stroke-opacity:1"/></g><g id="g1955" style="stroke:#fcd116;stroke-width:8.33394718;stroke-miterlimit:4;stroke-dasharray:none;stroke-opacity:1" transform="matrix(1.00015 0 0 1 .022 0)"><path id="21314056" d="m186 1909 28 655 56 49-34-748c-11 11-44 38-50 44z" class="fil4" style="fill:#fcd116;stroke:#fcd116;stroke-width:8.33394718;stroke-miterlimit:4;stroke-dasharray:none;stroke-opacity:1"/><path id="path1958" d="m186 1909 28 655 56 49-34-748c-11 11-44 38-50 44z" class="fil3 str0" style="fill:none;stroke:#fcd116;stroke-width:8.33394718;stroke-miterlimit:4;stroke-dasharray:none;stroke-opacity:1"/></g><path id="21314144" d="m125.04 1959 23.004 538 44.007 44-28.004-615c-11.002 11-33.005 27-39.006 33z" class="fil4" style="fill:#fcd116;stroke:#fcd116;stroke-width:8.33457661;stroke-miterlimit:4;stroke-dasharray:none;stroke-opacity:1"/><g id="g1961" style="stroke:#fcd116;stroke-width:8.33394718;stroke-miterlimit:4;stroke-dasharray:none;stroke-opacity:1" transform="matrix(1.00015 0 0 1 .022 0)"><path id="21314232" d="m59 1987 22 449 44 44-22-510c-11 5-33 17-44 17z" class="fil4" style="fill:#fcd116;stroke:#fcd116;stroke-width:8.33394718;stroke-miterlimit:4;stroke-dasharray:none;stroke-opacity:1"/><path id="path1964" d="m59 1987 22 449 44 44-22-510c-11 5-33 17-44 17z" class="fil3 str0" style="fill:none;stroke:#fcd116;stroke-width:8.33394718;stroke-miterlimit:4;stroke-dasharray:none;stroke-opacity:1"/></g><g id="g1966" style="stroke:#fcd116;stroke-width:8.33394718;stroke-miterlimit:4;stroke-dasharray:none;stroke-opacity:1" transform="matrix(1.00015 0 0 1 .022 0)"><path id="21314320" d="m-2 1987 16 388 45 44-17-427c-11 0-39 0-44-5z" class="fil4" style="fill:#fcd116;stroke:#fcd116;stroke-width:8.33394718;stroke-miterlimit:4;stroke-dasharray:none;stroke-opacity:1"/><path id="path1969" d="m-2 1987 16 388 45 44-17-427c-11 0-39 0-44-5z" class="fil3 str0" style="fill:none;stroke:#fcd116;stroke-width:8.33394718;stroke-miterlimit:4;stroke-dasharray:none;stroke-opacity:1"/></g><g id="g1971" style="stroke:#fcd116;stroke-width:8.33394718;stroke-miterlimit:4;stroke-dasharray:none;stroke-opacity:1" transform="matrix(1.00015 0 0 1 .022 0)"><path id="21314408" d="m-291 2197-133 472 183 28 78-355z" class="fil0" style="fill:#fff;stroke:#fcd116;stroke-width:8.33394718;stroke-miterlimit:4;stroke-dasharray:none;stroke-opacity:1"/><path id="path1974" d="m-291 2197-133 472 183 28 78-355z" class="fil3 str0" style="fill:none;stroke:#fcd116;stroke-width:8.33394718;stroke-miterlimit:4;stroke-dasharray:none;stroke-opacity:1"/></g><g id="g1976" style="stroke:#fcd116;stroke-width:8.33394718;stroke-miterlimit:4;stroke-dasharray:none;stroke-opacity:1" transform="matrix(1.00015 0 0 1 .022 0)"><path id="21314496" d="m9 2197 133 472-183 28-78-355z" class="fil0" style="fill:#fff;stroke:#fcd116;stroke-width:8.33394718;stroke-miterlimit:4;stroke-dasharray:none;stroke-opacity:1"/><path id="path1979" d="m9 2197 133 472-183 28-78-355z" class="fil3 str0" style="fill:none;stroke:#fcd116;stroke-width:8.33394718;stroke-miterlimit:4;stroke-dasharray:none;stroke-opacity:1"/></g><g id="g1981" style="stroke:#fcd116;stroke-width:8.33394718;stroke-miterlimit:4;stroke-dasharray:none;stroke-opacity:1" transform="matrix(1.00015 0 0 1 .022 0)"><path id="21314584" d="m-335 2358 16 39 50-55" class="fil3 str0" style="fill:none;stroke:#fcd116;stroke-width:8.33394718;stroke-miterlimit:4;stroke-dasharray:none;stroke-opacity:1"/></g><g id="g1984" style="stroke:#fcd116;stroke-width:8.33394718;stroke-miterlimit:4;stroke-dasharray:none;stroke-opacity:1" transform="matrix(1.00015 0 0 1 .022 0)"><path id="21314672" d="m-274 2275 17 155 55-72" class="fil3 str0" style="fill:none;stroke:#fcd116;stroke-width:8.33394718;stroke-miterlimit:4;stroke-dasharray:none;stroke-opacity:1"/></g><g id="g1987" style="stroke:#fcd116;stroke-width:8.33394718;stroke-miterlimit:4;stroke-dasharray:none;stroke-opacity:1" transform="matrix(1.00015 0 0 1 .022 0)"><path id="21314760" d="m-224 2386 33 83" class="fil3 str0" style="fill:none;stroke:#fcd116;stroke-width:8.33394718;stroke-miterlimit:4;stroke-dasharray:none;stroke-opacity:1"/></g><g id="g1990" style="stroke:#fcd116;stroke-width:8.33394718;stroke-miterlimit:4;stroke-dasharray:none;stroke-opacity:1" transform="matrix(1.00015 0 0 1 .022 0)"><path id="21314848" d="m-196 2491-45 45-28-89-27 50-23-55-49 44" class="fil3 str0" style="fill:none;stroke:#fcd116;stroke-width:8.33394718;stroke-miterlimit:4;stroke-dasharray:none;stroke-opacity:1"/></g><g id="g1993" style="stroke:#fcd116;stroke-width:8.33394718;stroke-miterlimit:4;stroke-dasharray:none;stroke-opacity:1" transform="matrix(1.00015 0 0 1 .022 0)"><path id="21314936" d="m-380 2508 34 83 39-50 22 67 44-56 17 84" class="fil3 str0" style="fill:none;stroke:#fcd116;stroke-width:8.33394718;stroke-miterlimit:4;stroke-dasharray:none;stroke-opacity:1"/></g><g id="g1996" style="stroke:#fcd116;stroke-width:8.33394718;stroke-miterlimit:4;stroke-dasharray:none;stroke-opacity:1" transform="matrix(1.00015 0 0 1 .022 0)"><path id="21315024" d="m-385 2658 33-45 28 73 33-56 22 67 34-28" class="fil3 str0" style="fill:none;stroke:#fcd116;stroke-width:8.33394718;stroke-miterlimit:4;stroke-dasharray:none;stroke-opacity:1"/></g><g id="g1999" style="stroke:#fcd116;stroke-width:8.33394718;stroke-miterlimit:4;stroke-dasharray:none;stroke-opacity:1" transform="matrix(1.00015 0 0 1 .022 0)"><path id="21315112" d="m53 2358-16 39-50-55" class="fil3 str0" style="fill:none;stroke:#fcd116;stroke-width:8.33394718;stroke-miterlimit:4;stroke-dasharray:none;stroke-opacity:1"/></g><g id="g2002" style="stroke:#fcd116;stroke-width:8.33394718;stroke-miterlimit:4;stroke-dasharray:none;stroke-opacity:1" transform="matrix(1.00015 0 0 1 .022 0)"><path id="21315200" d="m-8 2275-16 155-56-72" class="fil3 str0" style="fill:none;stroke:#fcd116;stroke-width:8.33394718;stroke-miterlimit:4;stroke-dasharray:none;stroke-opacity:1"/></g><g id="g2005" style="stroke:#fcd116;stroke-width:8.33394718;stroke-miterlimit:4;stroke-dasharray:none;stroke-opacity:1" transform="matrix(1.00015 0 0 1 .022 0)"><path id="21315288" d="m-58 2386-33 83" class="fil3 str0" style="fill:none;stroke:#fcd116;stroke-width:8.33394718;stroke-miterlimit:4;stroke-dasharray:none;stroke-opacity:1"/></g><g id="g2008" style="stroke:#fcd116;stroke-width:8.33394718;stroke-miterlimit:4;stroke-dasharray:none;stroke-opacity:1" transform="matrix(1.00015 0 0 1 .022 0)"><path id="21315376" d="m-85 2491 44 45 22-89 33 50 23-55 50 44" class="fil3 str0" style="fill:none;stroke:#fcd116;stroke-width:8.33394718;stroke-miterlimit:4;stroke-dasharray:none;stroke-opacity:1"/></g><g id="g2011" style="stroke:#fcd116;stroke-width:8.33394718;stroke-miterlimit:4;stroke-dasharray:none;stroke-opacity:1" transform="matrix(1.00015 0 0 1 .022 0)"><path id="21315464" d="m98 2508-34 83-39-50-22 67-44-56-17 84" class="fil3 str0" style="fill:none;stroke:#fcd116;stroke-width:8.33394718;stroke-miterlimit:4;stroke-dasharray:none;stroke-opacity:1"/></g><g id="g2014" style="stroke:#fcd116;stroke-width:8.33394718;stroke-miterlimit:4;stroke-dasharray:none;stroke-opacity:1" transform="matrix(1.00015 0 0 1 .022 0)"><path id="21315552" d="m103 2658-33-45-28 73-33-56-22 67-34-28" class="fil3 str0" style="fill:none;stroke:#fcd116;stroke-width:8.33394718;stroke-miterlimit:4;stroke-dasharray:none;stroke-opacity:1"/></g><g id="g2017" style="stroke:#fcd116;stroke-width:8.33394718;stroke-miterlimit:4;stroke-dasharray:none;stroke-opacity:1" transform="matrix(1.00015 0 0 1 .022 0)"><path id="21315640" d="M-141 1926c56 44 128 66 211 61-6 194-61 327-211 427-150-100-205-233-211-427 83 5 156-17 211-61z" class="fil0" style="fill:#fff;stroke:#fcd116;stroke-width:8.33394718;stroke-miterlimit:4;stroke-dasharray:none;stroke-opacity:1"/><path id="path2020" d="M-141 1926c56 44 128 66 211 61-6 194-61 327-211 427-150-100-205-233-211-427 83 5 156-17 211-61z" class="fil3 str0" style="fill:none;stroke:#fcd116;stroke-width:8.33394718;stroke-miterlimit:4;stroke-dasharray:none;stroke-opacity:1"/></g><g id="g2022" style="stroke:#fcd116;stroke-width:8.33394718;stroke-miterlimit:4;stroke-dasharray:none;stroke-opacity:1" transform="matrix(1.00015 0 0 1 .022 0)"><path id="21315728" d="M-141 2392c117-78 183-211 189-389-72 0-145-16-189-55-50 39-116 55-194 55 11 178 78 311 194 389z" class="fil4" style="fill:#fcd116;stroke:#fcd116;stroke-width:8.33394718;stroke-miterlimit:4;stroke-dasharray:none;stroke-opacity:1"/><path id="path2025" d="M-141 2392c117-78 183-211 189-389-72 0-145-16-189-55-50 39-116 55-194 55 11 178 78 311 194 389z" class="fil3 str0" style="fill:none;stroke:#fcd116;stroke-width:8.33394718;stroke-miterlimit:4;stroke-dasharray:none;stroke-opacity:1"/></g><g id="g2027" style="stroke:#fcd116;stroke-width:8.33394718;stroke-miterlimit:4;stroke-dasharray:none;stroke-opacity:1" transform="matrix(1.00015 0 0 1 .022 0)"><path id="21315816" d="M-330 2669c45 6 95 11 134 6 22 0 38 38-6 44-39 5-100 0-133-6-28-5-89-16-128-27-39-17-11-50 11-45 34 11 78 22 122 28z" class="fil0" style="fill:#fff;stroke:#fcd116;stroke-width:8.33394718;stroke-miterlimit:4;stroke-dasharray:none;stroke-opacity:1"/><path id="path2030" d="M-330 2669c45 6 95 11 134 6 22 0 38 38-6 44-39 5-100 0-133-6-28-5-89-16-128-27-39-17-11-50 11-45 34 11 78 22 122 28z" class="fil3 str0" style="fill:none;stroke:#fcd116;stroke-width:8.33394718;stroke-miterlimit:4;stroke-dasharray:none;stroke-opacity:1"/></g><g id="g2032" style="stroke:#fcd116;stroke-width:8.33394718;stroke-miterlimit:4;stroke-dasharray:none;stroke-opacity:1" transform="matrix(1.00015 0 0 1 .022 0)"><path id="21315904" d="M48 2669c-45 6-95 11-133 6-23 0-39 38 5 44 39 5 100 0 133-6 28-5 89-16 128-27 39-17 11-50-11-45-34 11-78 22-122 28z" class="fil0" style="fill:#fff;stroke:#fcd116;stroke-width:8.33394718;stroke-miterlimit:4;stroke-dasharray:none;stroke-opacity:1"/><path id="path2035" d="M48 2669c-45 6-95 11-133 6-23 0-39 38 5 44 39 5 100 0 133-6 28-5 89-16 128-27 39-17 11-50-11-45-34 11-78 22-122 28z" class="fil3 str0" style="fill:none;stroke:#fcd116;stroke-width:8.33394718;stroke-miterlimit:4;stroke-dasharray:none;stroke-opacity:1"/></g><path id="21315992" d="M-468.049 2647c-34.005-6-50.007 33-39.006 55 5.001-11 28.004-11 33.005-22 6.001-17-5-17 6.001-33z" class="fil0" style="fill:#fff;stroke:#fcd116;stroke-width:8.33457661;stroke-miterlimit:4;stroke-dasharray:none;stroke-opacity:1"/><g id="g2038" style="stroke:#fcd116;stroke-width:8.33394718;stroke-miterlimit:4;stroke-dasharray:none;stroke-opacity:1" transform="matrix(1.00015 0 0 1 .022 0)"><path id="21316080" d="M-468 2647c-34-6-50 33-39 55 0-11 28-11 33-22 6-17-5-17 6-33z" class="fil3 str0" style="fill:none;stroke:#fcd116;stroke-width:8.33394718;stroke-miterlimit:4;stroke-dasharray:none;stroke-opacity:1"/></g><g id="g2041" style="stroke:#fcd116;stroke-width:8.33394718;stroke-miterlimit:4;stroke-dasharray:none;stroke-opacity:1" transform="matrix(1.00015 0 0 1 .022 0)"><path id="21316168" d="M-335 2741c0-22 22-11 22-33 0-11-6-28-17-28s-22 11-22 22c-5 22 17 17 17 39z" class="fil0" style="fill:#fff;stroke:#fcd116;stroke-width:8.33394718;stroke-miterlimit:4;stroke-dasharray:none;stroke-opacity:1"/><path id="path2044" d="M-335 2741c0-22 22-11 22-33 0-11-6-28-17-28s-22 11-22 22c-5 22 17 17 17 39z" class="fil3 str0" style="fill:none;stroke:#fcd116;stroke-width:8.33394718;stroke-miterlimit:4;stroke-dasharray:none;stroke-opacity:1"/></g><g id="g2046" style="stroke:#fcd116;stroke-width:8.33394718;stroke-miterlimit:4;stroke-dasharray:none;stroke-opacity:1" transform="matrix(1.00015 0 0 1 .022 0)"><path id="21316256" d="M-185 2686c33 0 38 44 22 66 0-16-28-22-28-33 0-17 17-17 6-33z" class="fil0" style="fill:#fff;stroke:#fcd116;stroke-width:8.33394718;stroke-miterlimit:4;stroke-dasharray:none;stroke-opacity:1"/><path id="path2049" d="M-185 2686c33 0 38 44 22 66 0-16-28-22-28-33 0-17 17-17 6-33z" class="fil3 str0" style="fill:none;stroke:#fcd116;stroke-width:8.33394718;stroke-miterlimit:4;stroke-dasharray:none;stroke-opacity:1"/></g><path id="21316344" d="M186.05 2647c34.005-6 50.007 33 39.006 55-5.001-11-28.004-11-33.005-22-6.001-17 5-17-6.001-33z" class="fil0" style="fill:#fff;stroke:#fcd116;stroke-width:8.33457661;stroke-miterlimit:4;stroke-dasharray:none;stroke-opacity:1"/><g id="g2052" style="stroke:#fcd116;stroke-width:8.33394718;stroke-miterlimit:4;stroke-dasharray:none;stroke-opacity:1" transform="matrix(1.00015 0 0 1 .022 0)"><path id="21316432" d="M186 2647c34-6 50 33 39 55 0-11-28-11-33-22-6-17 5-17-6-33z" class="fil3 str0" style="fill:none;stroke:#fcd116;stroke-width:8.33394718;stroke-miterlimit:4;stroke-dasharray:none;stroke-opacity:1"/></g><g id="g2055" style="stroke:#fcd116;stroke-width:8.33394718;stroke-miterlimit:4;stroke-dasharray:none;stroke-opacity:1" transform="matrix(1.00015 0 0 1 .022 0)"><path id="21316520" d="M53 2741c0-22-22-11-22-33 0-11 6-28 17-28s22 11 22 22c5 22-17 17-17 39z" class="fil0" style="fill:#fff;stroke:#fcd116;stroke-width:8.33394718;stroke-miterlimit:4;stroke-dasharray:none;stroke-opacity:1"/><path id="path2058" d="M53 2741c0-22-22-11-22-33 0-11 6-28 17-28s22 11 22 22c5 22-17 17-17 39z" class="fil3 str0" style="fill:none;stroke:#fcd116;stroke-width:8.33394718;stroke-miterlimit:4;stroke-dasharray:none;stroke-opacity:1"/></g><g id="g2060" style="stroke:#fcd116;stroke-width:8.33394718;stroke-miterlimit:4;stroke-dasharray:none;stroke-opacity:1" transform="matrix(1.00015 0 0 1 .022 0)"><path id="21316608" d="M-97 2686c-33 0-38 44-22 66 0-16 28-22 28-33 0-17-17-17-6-33z" class="fil0" style="fill:#fff;stroke:#fcd116;stroke-width:8.33394718;stroke-miterlimit:4;stroke-dasharray:none;stroke-opacity:1"/><path id="path2063" d="M-97 2686c-33 0-38 44-22 66 0-16 28-22 28-33 0-17-17-17-6-33z" class="fil3 str0" style="fill:none;stroke:#fcd116;stroke-width:8.33394718;stroke-miterlimit:4;stroke-dasharray:none;stroke-opacity:1"/></g><path id="21316696" d="M-457.047 2658c11.001 0 28.004 5 33.005 11z" class="fil0" style="fill:#fff;stroke:#fcd116;stroke-width:8.33457661;stroke-miterlimit:4;stroke-dasharray:none;stroke-opacity:1"/><g id="g2066" style="stroke:#fcd116;stroke-width:8.33394718;stroke-miterlimit:4;stroke-dasharray:none;stroke-opacity:1" transform="matrix(1.00015 0 0 1 .022 0)"><path id="21316784" d="M-457 2658c11 0 28 5 33 11" class="fil3 str0" style="fill:none;stroke:#fcd116;stroke-width:8.33394718;stroke-miterlimit:4;stroke-dasharray:none;stroke-opacity:1"/></g><path id="21316872" d="M-402.039 2675c6.001 0 28.004 5 39.006 11z" class="fil0" style="fill:#fff;stroke:#fcd116;stroke-width:8.33457661;stroke-miterlimit:4;stroke-dasharray:none;stroke-opacity:1"/><g id="g2070" style="stroke:#fcd116;stroke-width:8.33394718;stroke-miterlimit:4;stroke-dasharray:none;stroke-opacity:1" transform="matrix(1.00015 0 0 1 .022 0)"><path id="21316960" d="M-402 2675c6 0 28 5 39 11" class="fil3 str0" style="fill:none;stroke:#fcd116;stroke-width:8.33394718;stroke-miterlimit:4;stroke-dasharray:none;stroke-opacity:1"/></g><path id="21317048" d="M-202.009 2697c-11.001 0-33.005 0-39.006 5z" class="fil0" style="fill:#fff;stroke:#fcd116;stroke-width:8.33457661;stroke-miterlimit:4;stroke-dasharray:none;stroke-opacity:1"/><g id="g2074" style="stroke:#fcd116;stroke-width:8.33394718;stroke-miterlimit:4;stroke-dasharray:none;stroke-opacity:1" transform="matrix(1.00015 0 0 1 .022 0)"><path id="21317136" d="M-202 2697c-11 0-33 0-39 5" class="fil3 str1" style="fill:none;stroke:#fcd116;stroke-width:8.33394718;stroke-miterlimit:4;stroke-dasharray:none;stroke-opacity:1"/></g><path id="21317224" d="M-263.018 2697c-6-6-28.004-6-39.006 0z" class="fil0" style="fill:#fff;stroke:#fcd116;stroke-width:8.33457661;stroke-miterlimit:4;stroke-dasharray:none;stroke-opacity:1"/><path id="21317312" d="M175.048 2658c-11.001 0-27.004 5-33.005 11z" class="fil0" style="fill:#fff;stroke:#fcd116;stroke-width:8.33457661;stroke-miterlimit:4;stroke-dasharray:none;stroke-opacity:1"/><g id="g2079" style="stroke:#fcd116;stroke-width:8.33394718;stroke-miterlimit:4;stroke-dasharray:none;stroke-opacity:1" transform="matrix(1.00015 0 0 1 .022 0)"><path id="21317400" d="M175 2658c-11 0-27 5-33 11" class="fil3 str0" style="fill:none;stroke:#fcd116;stroke-width:8.33394718;stroke-miterlimit:4;stroke-dasharray:none;stroke-opacity:1"/></g><path id="21317488" d="M120.04 2675c-6.001 0-28.004 5-39.006 11z" class="fil0" style="fill:#fff;stroke:#fcd116;stroke-width:8.33457661;stroke-miterlimit:4;stroke-dasharray:none;stroke-opacity:1"/><g id="g2083" style="stroke:#fcd116;stroke-width:8.33394718;stroke-miterlimit:4;stroke-dasharray:none;stroke-opacity:1" transform="matrix(1.00015 0 0 1 .022 0)"><path id="21317576" d="M120 2675c-6 0-28 5-39 11" class="fil3 str0" style="fill:none;stroke:#fcd116;stroke-width:8.33394718;stroke-miterlimit:4;stroke-dasharray:none;stroke-opacity:1"/></g><path id="21317664" d="M-79.99 2697c11.001 0 33.005 0 39.006 5z" class="fil0" style="fill:#fff;stroke:#fcd116;stroke-width:8.33457661;stroke-miterlimit:4;stroke-dasharray:none;stroke-opacity:1"/><g id="g2087" style="stroke:#fcd116;stroke-width:8.33394718;stroke-miterlimit:4;stroke-dasharray:none;stroke-opacity:1" transform="matrix(1.00015 0 0 1 .022 0)"><path id="21317752" d="M-80 2697c11 0 33 0 39 5" class="fil3 str0" style="fill:none;stroke:#fcd116;stroke-width:8.33394718;stroke-miterlimit:4;stroke-dasharray:none;stroke-opacity:1"/></g><path id="21317840" d="M-18.981 2697c6-6 28.004-6 39.006 0z" class="fil4" style="fill:#fcd116;stroke:#fcd116;stroke-width:8.33457661;stroke-miterlimit:4;stroke-dasharray:none;stroke-opacity:1"/><g id="g2091" style="stroke:#fcd116;stroke-width:8.33394718;stroke-miterlimit:4;stroke-dasharray:none;stroke-opacity:1" transform="matrix(1.00015 0 0 1 .022 0)"><path id="21317928" d="M-19 2697c6-6 28-6 39 0" class="fil3 str0" style="fill:none;stroke:#fcd116;stroke-width:8.33394718;stroke-miterlimit:4;stroke-dasharray:none;stroke-opacity:1"/></g><path id="21318016" d="M-62.988 1604c-11.001-28-34.005-45-61.009-50-11.002 0-23.003-6-39.006-6-17.002-5-33.005 11-39.006 22 17.003 12 22.004 28 33.005 28 17.003 6 22.004 0 39.006-16 17.003-17 56.009-12 67.01 22z" class="fil4" style="fill:#fcd116;stroke:#fcd116;stroke-width:8.33457661;stroke-miterlimit:4;stroke-dasharray:none;stroke-opacity:1"/><path id="21318104" d="M-169.004 1576c-11.001 0-11.001 17 0 17 11.002 0 11.002-17 0-17z" class="fil0" style="fill:#fff;stroke:#fcd116;stroke-width:8.33457661;stroke-miterlimit:4;stroke-dasharray:none;stroke-opacity:1"/><g id="g2096" style="stroke:#fcd116;stroke-width:8.33394718;stroke-miterlimit:4;stroke-dasharray:none;stroke-opacity:1" transform="matrix(1.00015 0 0 1 .022 0)"><path id="21318192" d="M-257 2695c-11 0-33 0-39 6" class="fil3 str0" style="fill:none;stroke:#fcd116;stroke-width:8.33394718;stroke-miterlimit:4;stroke-dasharray:none;stroke-opacity:1"/></g><path id="21318280" d="M-72.99 1985v349c-20.002 22-43.006 41-68.01 58-25.003-17-48.007-36-68.01-58v-350c25.004-9 48.007-21 68.01-36 19.003 16 42.007 28 68.01 37z" style="fill:#fff;stroke:#fcd116;stroke-width:8.33457661;stroke-miterlimit:4;stroke-dasharray:none;stroke-opacity:1"/></g></svg>