<svg xmlns="http://www.w3.org/2000/svg" width="1200" height="600" baseProfile="full" viewBox="-15 -7.5 30 15"><defs><clipPath id="a"><path d="M-15-7.5h30v15h-30z"/></clipPath></defs><g clip-path="url(#a)"><circle r="20" fill="#00247D"/><path stroke="#fff" stroke-width="3" d="m-20-10 40 20m-40 0 40-20"/><path stroke="#CF142B" stroke-width="2" d="m-20-10 40 20m-40 0 40-20"/><path fill="#fff" d="m0 0 20 10h-3L-3 0m3 0 20-10h3L3 0M0 0l-20 10h-3L-3 0m3 0-20-10h3L3 0"/><path stroke="#fff" stroke-width="5" d="M-20 0h40M0-10v20"/><path stroke="#CF142B" stroke-width="3" d="M-20 0h40M0-10v20"/></g></svg>