<svg xmlns="http://www.w3.org/2000/svg" width="1200" height="600" version="1.0"><path d="M0 200h1200v200H0z" style="font-size:12px;fill:#fff;fill-opacity:1;fill-rule:evenodd;stroke-width:1pt"/><path d="M0 400h1200v200H0z" style="font-size:12px;fill:#021272;fill-opacity:1;fill-rule:evenodd;stroke-width:1pt"/><path d="M0 0h1200v200H0z" style="font-size:12px;fill:#d61517;fill-rule:evenodd;stroke-width:1pt"/><g transform="translate(1.778 5.891)scale(.92034)"><path d="M520.458 208.019c40.02-14.237 84.393-21.92 127.762-22.029s87.597 6.696 131.3 22.357l32.532-65.63-22.866-39.83s-40.795 16.756-41.13 16.756-28.764-31.289-28.764-31.289l-36.509 22.059-34.282-26.219-32.248 25.814-37.647-21.76-27.461 32.633-41.161-17.6-22.036 39.467z" style="font-size:12px;fill:#fff;fill-rule:evenodd;stroke:#e5141d;stroke-width:1.73910344;stroke-linecap:round"/><path d="m729.007 189.814 18.628-65.853 39.892-16.19 21.016 35.29-30.174 61.721c-17.346-6.93-26.638-9.9-49.362-14.968z" style="font-size:12px;fill:#00a7bd;fill-rule:evenodd;stroke:#0084fd;stroke-width:.43477526pt"/><path d="m571.095 189.985-17.411-64.74L579.88 93.09l37.278 21.521 6.29 68.055c-18.213 1.352-31.378 3.082-52.354 7.32" style="font-size:12px;fill:none;fill-rule:evenodd;stroke-width:1pt;stroke-opacity:.99607801"/><path d="m623.968 182.683-6.29-68.201 31.701-25.202 33.122 25.14-5.853 68.324c-18.25-.965-31.283-.936-52.68-.061z" style="font-size:12px;fill:#00a7bd;fill-rule:evenodd;stroke:#0084fd;stroke-width:.43477554pt"/><path d="m522.026 204.744-29.55-62.51 19.748-34.507 40.94 17.82 17.297 64.489c-18.691 3.865-28.59 7.024-48.435 14.708z" style="font-size:12px;fill:#00a7bd;fill-rule:evenodd;stroke:#0084fd;stroke-width:.43477588pt;stroke-opacity:.99607801"/><path d="M512.839 170.12c9.305 1.884 15.935 1.952 24.28-.336 9.967-4.082 13.488-9.578 16.734-13.996 1.51 9.33-.068 17.786-11.453 23.752-10.22 4.71-24.006 1.75-29.561-9.42z" style="font-size:12px;fill:#fff;fill-rule:evenodd;stroke:#fff;stroke-width:.43477588pt"/><g style="font-size:12px" transform="matrix(.43895 0 0 .43064 476.763 73.15)"><path d="m410.938 120.565-4.063 1.016.156 7.5-5 1.094-3.497 6.614 2.159 2.044c.111.221-1.703 4.892-1.625 4.892s1.323 1.762 1.323 1.762l1.328 4.063 3.359.468.86 4.766 5.312.859 4.922 3.516.312 2.188 5.625.156 3.829 1.25 13.359-1.563 1.797-2.812.156-3.828 7.188-.235.657-6.105h3.809l-.474-6.875 3.177.286-.82-3.295-1.975-2.683-.39-4.218-5.625-5.625-1.25-7.344s-3.594-1.641-3.594-1.719-.234-4.922-.234-4.922l4.062-5.703-.39-2.265-3.75-.079-2.813 2.344s-3.75.391-3.75.469v1.719s.938 3.203.938 3.281-4.297 0-4.297 0l-.157-5.078-6.093-3.047s-5.703 3.906-5.703 3.984-.313 4.532-.313 4.532l-2.734.781-2.813-4.219-4.922-1.875-2.656-.156-.078 3.281 5.156 6.797z" style="fill:#faf703;fill-opacity:.99607801;fill-rule:evenodd;stroke:#544b20;stroke-width:1pt;stroke-opacity:.99607801"/><path d="m449.234 148.039-1.105-4.088M452.327 141.299l-1.878-2.762" style="fill:none;fill-rule:evenodd;stroke:#544b20;stroke-width:1pt"/><path d="m400.841 138.206 5.856-.332 1.105 5.303 1.988 1.768.332 9.723 1.878.773.553-3.867 4.53-.331.883 7.844-1.104.995.442 1.215 5.413-.11s1.216-2.1 1.326-2.1 3.094-.331 3.094-.221 1.215 2.321 1.215 2.321l.884-2.984s2.873-1.215 2.873-1.104 2.32 3.756 2.32 3.756l3.977-.552-2.43-2.32-.995-5.083 5.524-2.983 2.21 3.757s2.099.11 1.989 0c-.111-.111-2.431-4.309-2.431-4.309v-8.839l4.199-5.745 5.855-.663v-2.431l-5.855-5.414-1.547-7.513-3.315-1.657-.884.994-3.646.332 3.646 5.414v3.535l1.658.884-.332 9.723s-4.088.552-4.088.663-.331 5.413-.331 5.413l-2.541 2.542s-1.437 5.082-1.547 5.082c-.111 0-2.431 3.093-2.431 3.093l-4.53.111s-2.651-2.541-2.651-2.652c0-.11-.442-3.756-.442-3.756s-1.768-.553-1.879-.553-.994-4.088-.994-4.088l-3.094-1.767-.22-2.431-2.984-1.326s-.331-2.21-.442-2.32c-.11-.111-1.436-.994-1.546-.994s-.111-6.077-.111-6.077l2.652-.442-1.485-1.94-.504-1.706v-1.768l2.21-2.21s-3.978-.552-3.978-.442-3.866 1.768-3.866 1.658c.11 0-.111 7.181-.111 7.181l-4.53 1.437-3.646 5.855z" style="fill:#544b20;fill-rule:evenodd;stroke:#544b21;stroke-width:1pt;stroke-opacity:.99998803"/><path d="m423.712 148.039 2.983-1.768-.111-3.425-2.872-.663-1.106-1.105 3.205.553 3.977-.332 1.326-.663c-.552 1.437-.994 1.326-1.105 1.326s-2.209 1.105-2.209 1.105l.11 3.315s6.85.883 6.74.883c-.111 0 0 1.326-.221 1.326s-7.071-1.547-7.071-1.547l-4.309 2.652z" style="fill:#544b20;fill-rule:evenodd;stroke:#544b20;stroke-width:1pt"/><path d="m440.947 127.489-3.977 3.093-2.541 4.53-1.326.221-3.867-5.193-4.419.111s-2.431 6.076-2.431 6.187c0 .11-1.768-.221-1.768-.221l-4.64-5.082s-1.437-2.542-1.216-2.542 11.601.111 11.601.111l-.11-5.524s-1.768-.553-2.652-1.105c.663-.221 6.298-.221 6.298-.221l-2.431 1.657v4.751l10.054.11z" style="fill:#544b20;fill-rule:evenodd;stroke:#544b20;stroke-width:1pt;stroke-opacity:.99999599"/><rect width="2.652" height="2.652" x="419.513" y="130.14" rx=".837" ry=".837" style="fill:#796a3a;fill-opacity:.99607903;fill-rule:evenodd;stroke-width:1pt"/><rect width="2.652" height="2.652" x="432.109" y="129.588" rx=".837" ry=".837" style="fill:#7a6b3a;fill-rule:evenodd;stroke-width:1pt"/><path d="M413.547 121.301c4.198-1.694 7.181-3.056 12.374-3.535 4.898-.516 8.692.184 13.037.994" style="fill:none;fill-rule:evenodd;stroke:#544b20;stroke-width:1pt"/><path d="M415.867 112.352h-3.425l-4.862-5.193 2.763.332 3.204 1.436zM436.528 110.363l7.734-5.965-2.541-.332-2.873 2.651-3.425.553zM431.968 111.459l-12.123.451.11-1.326 4.42-.442.552-1.767s1.326-.11 1.326 0c0 .111.994 1.657.994 1.657l4.309.773zM431.335 106.828l-4.198.11-.332-2.32zM424.264 104.729l-.332 2.319-4.087.663zM401.062 147.044l2.099-5.303-1.878-3.646-1.878 5.414z" style="fill:#544b20;fill-rule:evenodd;stroke:#544b20;stroke-width:1pt"/><path d="m405.371 149.807 2.541-6.298-4.861 5.082z" style="fill:#544b20;fill-rule:evenodd;stroke:#544b20;stroke-width:1pt" transform="translate(-.11 .11)"/></g><g style="font-size:12px" transform="matrix(.43895 0 0 .43064 447.322 74.101)"><path d="m410.938 120.565-4.063 1.016.156 7.5-5 1.094-3.497 6.614 2.159 2.044c.111.221-1.703 4.892-1.625 4.892s1.323 1.762 1.323 1.762l1.328 4.063 3.359.468.86 4.766 5.312.859 4.922 3.516.312 2.188 5.625.156 3.829 1.25 13.359-1.563 1.797-2.812.156-3.828 7.188-.235.657-6.105h3.809l-.474-6.875 3.177.286-.82-3.295-1.975-2.683-.39-4.218-5.625-5.625-1.25-7.344s-3.594-1.641-3.594-1.719-.234-4.922-.234-4.922l4.062-5.703-.39-2.265-3.75-.079-2.813 2.344s-3.75.391-3.75.469v1.719s.938 3.203.938 3.281-4.297 0-4.297 0l-.157-5.078-6.093-3.047s-5.703 3.906-5.703 3.984-.313 4.532-.313 4.532l-2.734.781-2.813-4.219-4.922-1.875-2.656-.156-.078 3.281 5.156 6.797z" style="fill:#faf703;fill-opacity:.99607801;fill-rule:evenodd;stroke:#544b20;stroke-width:1pt;stroke-opacity:.99607801"/><path d="m449.234 148.039-1.105-4.088M452.327 141.299l-1.878-2.762" style="fill:none;fill-rule:evenodd;stroke:#544b20;stroke-width:1pt"/><path d="m400.841 138.206 5.856-.332 1.105 5.303 1.988 1.768.332 9.723 1.878.773.553-3.867 4.53-.331.883 7.844-1.104.995.442 1.215 5.413-.11s1.216-2.1 1.326-2.1 3.094-.331 3.094-.221 1.215 2.321 1.215 2.321l.884-2.984s2.873-1.215 2.873-1.104 2.32 3.756 2.32 3.756l3.977-.552-2.43-2.32-.995-5.083 5.524-2.983 2.21 3.757s2.099.11 1.989 0c-.111-.111-2.431-4.309-2.431-4.309v-8.839l4.199-5.745 5.855-.663v-2.431l-5.855-5.414-1.547-7.513-3.315-1.657-.884.994-3.646.332 3.646 5.414v3.535l1.658.884-.332 9.723s-4.088.552-4.088.663-.331 5.413-.331 5.413l-2.541 2.542s-1.437 5.082-1.547 5.082c-.111 0-2.431 3.093-2.431 3.093l-4.53.111s-2.651-2.541-2.651-2.652c0-.11-.442-3.756-.442-3.756s-1.768-.553-1.879-.553-.994-4.088-.994-4.088l-3.094-1.767-.22-2.431-2.984-1.326s-.331-2.21-.442-2.32c-.11-.111-1.436-.994-1.546-.994s-.111-6.077-.111-6.077l2.652-.442-1.485-1.94-.504-1.706v-1.768l2.21-2.21s-3.978-.552-3.978-.442-3.866 1.768-3.866 1.658c.11 0-.111 7.181-.111 7.181l-4.53 1.437-3.646 5.855z" style="fill:#544b20;fill-rule:evenodd;stroke:#544b21;stroke-width:1pt;stroke-opacity:.99998803"/><path d="m423.712 148.039 2.983-1.768-.111-3.425-2.872-.663-1.106-1.105 3.205.553 3.977-.332 1.326-.663c-.552 1.437-.994 1.326-1.105 1.326s-2.209 1.105-2.209 1.105l.11 3.315s6.85.883 6.74.883c-.111 0 0 1.326-.221 1.326s-7.071-1.547-7.071-1.547l-4.309 2.652z" style="fill:#544b20;fill-rule:evenodd;stroke:#544b20;stroke-width:1pt"/><path d="m440.947 127.489-3.977 3.093-2.541 4.53-1.326.221-3.867-5.193-4.419.111s-2.431 6.076-2.431 6.187c0 .11-1.768-.221-1.768-.221l-4.64-5.082s-1.437-2.542-1.216-2.542 11.601.111 11.601.111l-.11-5.524s-1.768-.553-2.652-1.105c.663-.221 6.298-.221 6.298-.221l-2.431 1.657v4.751l10.054.11z" style="fill:#544b20;fill-rule:evenodd;stroke:#544b20;stroke-width:1pt;stroke-opacity:.99999599"/><rect width="2.652" height="2.652" x="419.513" y="130.14" rx=".837" ry=".837" style="fill:#796a3a;fill-opacity:.99607903;fill-rule:evenodd;stroke-width:1pt"/><rect width="2.652" height="2.652" x="432.109" y="129.588" rx=".837" ry=".837" style="fill:#7a6b3a;fill-rule:evenodd;stroke-width:1pt"/><path d="M413.547 121.301c4.198-1.694 7.181-3.056 12.374-3.535 4.898-.516 8.692.184 13.037.994" style="fill:none;fill-rule:evenodd;stroke:#544b20;stroke-width:1pt"/><path d="M415.867 112.352h-3.425l-4.862-5.193 2.763.332 3.204 1.436zM436.528 110.363l7.734-5.965-2.541-.332-2.873 2.651-3.425.553zM431.968 111.459l-12.123.451.11-1.326 4.42-.442.552-1.767s1.326-.11 1.326 0c0 .111.994 1.657.994 1.657l4.309.773zM431.335 106.828l-4.198.11-.332-2.32zM424.264 104.729l-.332 2.319-4.087.663zM401.062 147.044l2.099-5.303-1.878-3.646-1.878 5.414z" style="fill:#544b20;fill-rule:evenodd;stroke:#544b20;stroke-width:1pt"/><path d="m405.371 149.807 2.541-6.298-4.861 5.082z" style="fill:#544b20;fill-rule:evenodd;stroke:#544b20;stroke-width:1pt" transform="translate(-.11 .11)"/></g><path d="m677.118 182.65 5.894-68.402 36.221-20.84 28 30.347-18.66 65.9c-18.088-3.693-28.408-5.276-51.455-7.004z" style="font-size:12px;fill:#001070;fill-rule:evenodd;stroke:#001071;stroke-width:.43477497pt;stroke-opacity:.99607801"/><g style="font-size:12px" transform="matrix(.43895 0 0 .43064 462.588 99.656)"><path d="m410.938 120.565-4.063 1.016.156 7.5-5 1.094-3.497 6.614 2.159 2.044c.111.221-1.703 4.892-1.625 4.892s1.323 1.762 1.323 1.762l1.328 4.063 3.359.468.86 4.766 5.312.859 4.922 3.516.312 2.188 5.625.156 3.829 1.25 13.359-1.563 1.797-2.812.156-3.828 7.188-.235.657-6.105h3.809l-.474-6.875 3.177.286-.82-3.295-1.975-2.683-.39-4.218-5.625-5.625-1.25-7.344s-3.594-1.641-3.594-1.719-.234-4.922-.234-4.922l4.062-5.703-.39-2.265-3.75-.079-2.813 2.344s-3.75.391-3.75.469v1.719s.938 3.203.938 3.281-4.297 0-4.297 0l-.157-5.078-6.093-3.047s-5.703 3.906-5.703 3.984-.313 4.532-.313 4.532l-2.734.781-2.813-4.219-4.922-1.875-2.656-.156-.078 3.281 5.156 6.797z" style="fill:#faf703;fill-opacity:.99607801;fill-rule:evenodd;stroke:#544b20;stroke-width:1pt;stroke-opacity:.99607801"/><path d="m449.234 148.039-1.105-4.088M452.327 141.299l-1.878-2.762" style="fill:none;fill-rule:evenodd;stroke:#544b20;stroke-width:1pt"/><path d="m400.841 138.206 5.856-.332 1.105 5.303 1.988 1.768.332 9.723 1.878.773.553-3.867 4.53-.331.883 7.844-1.104.995.442 1.215 5.413-.11s1.216-2.1 1.326-2.1 3.094-.331 3.094-.221 1.215 2.321 1.215 2.321l.884-2.984s2.873-1.215 2.873-1.104 2.32 3.756 2.32 3.756l3.977-.552-2.43-2.32-.995-5.083 5.524-2.983 2.21 3.757s2.099.11 1.989 0c-.111-.111-2.431-4.309-2.431-4.309v-8.839l4.199-5.745 5.855-.663v-2.431l-5.855-5.414-1.547-7.513-3.315-1.657-.884.994-3.646.332 3.646 5.414v3.535l1.658.884-.332 9.723s-4.088.552-4.088.663-.331 5.413-.331 5.413l-2.541 2.542s-1.437 5.082-1.547 5.082c-.111 0-2.431 3.093-2.431 3.093l-4.53.111s-2.651-2.541-2.651-2.652c0-.11-.442-3.756-.442-3.756s-1.768-.553-1.879-.553-.994-4.088-.994-4.088l-3.094-1.767-.22-2.431-2.984-1.326s-.331-2.21-.442-2.32c-.11-.111-1.436-.994-1.546-.994s-.111-6.077-.111-6.077l2.652-.442-1.485-1.94-.504-1.706v-1.768l2.21-2.21s-3.978-.552-3.978-.442-3.866 1.768-3.866 1.658c.11 0-.111 7.181-.111 7.181l-4.53 1.437-3.646 5.855z" style="fill:#544b20;fill-rule:evenodd;stroke:#544b21;stroke-width:1pt;stroke-opacity:.99998803"/><path d="m423.712 148.039 2.983-1.768-.111-3.425-2.872-.663-1.106-1.105 3.205.553 3.977-.332 1.326-.663c-.552 1.437-.994 1.326-1.105 1.326s-2.209 1.105-2.209 1.105l.11 3.315s6.85.883 6.74.883c-.111 0 0 1.326-.221 1.326s-7.071-1.547-7.071-1.547l-4.309 2.652z" style="fill:#544b20;fill-rule:evenodd;stroke:#544b20;stroke-width:1pt"/><path d="m440.947 127.489-3.977 3.093-2.541 4.53-1.326.221-3.867-5.193-4.419.111s-2.431 6.076-2.431 6.187c0 .11-1.768-.221-1.768-.221l-4.64-5.082s-1.437-2.542-1.216-2.542 11.601.111 11.601.111l-.11-5.524s-1.768-.553-2.652-1.105c.663-.221 6.298-.221 6.298-.221l-2.431 1.657v4.751l10.054.11z" style="fill:#544b20;fill-rule:evenodd;stroke:#544b20;stroke-width:1pt;stroke-opacity:.99999599"/><rect width="2.652" height="2.652" x="419.513" y="130.14" rx=".837" ry=".837" style="fill:#796a3a;fill-opacity:.99607903;fill-rule:evenodd;stroke-width:1pt"/><rect width="2.652" height="2.652" x="432.109" y="129.588" rx=".837" ry=".837" style="fill:#7a6b3a;fill-rule:evenodd;stroke-width:1pt"/><path d="M413.547 121.301c4.198-1.694 7.181-3.056 12.374-3.535 4.898-.516 8.692.184 13.037.994" style="fill:none;fill-rule:evenodd;stroke:#544b20;stroke-width:1pt"/><path d="M415.867 112.352h-3.425l-4.862-5.193 2.763.332 3.204 1.436zM436.528 110.363l7.734-5.965-2.541-.332-2.873 2.651-3.425.553zM431.968 111.459l-12.123.451.11-1.326 4.42-.442.552-1.767s1.326-.11 1.326 0c0 .111.994 1.657.994 1.657l4.309.773zM431.335 106.828l-4.198.11-.332-2.32zM424.264 104.729l-.332 2.319-4.087.663zM401.062 147.044l2.099-5.303-1.878-3.646-1.878 5.414z" style="fill:#544b20;fill-rule:evenodd;stroke:#544b20;stroke-width:1pt"/><path d="m405.371 149.807 2.541-6.298-4.861 5.082z" style="fill:#544b20;fill-rule:evenodd;stroke:#544b20;stroke-width:1pt" transform="translate(-.11 .11)"/></g><path d="m686.097 170.4-1.815 2.123.14 1.781 3.77-.068c1.21-.286 1.512-.708 1.745-1.2.373-.604.117-.935.21-1.746zM695.174 175.743l-1.536 1.438v1.644l3.352-.068c1.21-.286 1.372-.503 1.606-.993.372-.606.256-.594.349-1.405zM709.907 171.153l-1.745 1.781.07 1.37 3.56.137c1.21-.286 1.024-.228 1.397-.856.372-.605.256-.73.35-1.541zM720.311 174.373l-2.025 1.712v1.713l3.77.342c1.21-.285 1.304-.64 1.607-1.062.372-.605.186-.662.279-1.472z" style="font-size:12px;fill:#a0210c;fill-rule:evenodd;stroke:#a0210c;stroke-width:.43477588pt;stroke-opacity:.99651998"/><path d="m694.965 129.572 7.122 4.726c1.339-1.11 4.124-.437 5.214-.13 1.96.512 3.34 1.672 5.05 1.98 3.129.786 6.878 1.33 9.717 1.021 2.84-.308 5.224-1.792 7.32-2.87v-.685h-1.396c-2.267.815-5.443.86-7.875.54s-3.088-1.41-6.718-2.458l-.28-.685c4.407.209 5.302.095 7.147-.71 1.804-.479 2.617-1.526 3.635-2.249l-.029-.81-1.327-.068c-1.709 1.139-2.798 1.345-5.417 1.105-2.383-.241-4.53-1.598-6.128-1.626-1.696.013-1.616-.797-3.256-.877-2.607-.228-5.425.12-7.891.713-2.956.89-3.399 1.644-4.888 3.083z" style="font-size:12px;fill:#a0210c;fill-rule:evenodd;stroke:#000;stroke-width:.43477588pt"/><path d="M696.348 128.524c.682.155 1.446.351 2.004.668s.413.311 1.012.75c-.096-.567-.068-.527-.454-.972-.386-.446-1.02-.852-1.529-1.217zM702.298 133.631c.014-.614-.303-1.148-.537-1.682-.234-.533-.427-.986-.868-1.52.551.155.854.392 1.323.952.468.561.44 1.122.537 1.926zM703.662 126.132c.166.426.49.718.765 1.627.237.825.35 1.98.35 1.98-.089-.614.07-1.31-.02-1.925s-.427-1.149-.517-1.764zM709.447 126.497l.29 3.405.33-3.203zM708.042 133.55c.138-.553.11-1.108.041-1.662-.068-.554-.262-1.027-.454-1.662.55.473.771 1.068 1.074 1.703 0 .635-.165 1.189-.66 1.621zM714.034 132.05c.02 0 .176 1.156-.088 1.987-.263.831-.449.892-.945 1.338.661-.486 1.24-.649 1.446-1.176.207-.81-.33-2.027-.413-2.149zM715.067 130.956c-.413.068-.496-1.649-.744-2.473.18-.095.358-.068.537.324.193.23.138 1.433.207 2.15zM719.157 130.267l.166-1.42.454-.04v1.216c0 .041-.578.284-.62.244zM718.827 134.077c.262.433.73.946.785 1.42.056.472-.096.702-.454 1.418l.661.04c.358-.573.468-.985.413-1.438s-.276-.906-.744-1.277zM723.745 134.442l.165 1.987.537-.284-.124-1.703z" style="font-size:12px;fill-rule:evenodd;stroke:#000;stroke-width:.43477588pt"/><path d="M694.523 129.922c-1.612.467-2.195 1.357-2.983 2.127l-4.542-2.3c-.736.61-1.02 1.484-.666 2.377.355.893 1.78 2.292 2.793 2.983-.254 1.234-.628 2.165-1.071 3.247-.494 1.217-1.554 2.753-1.585 3.247-.06.565-.245 1.776.6 2.098.846.323 3.564-.223 4.47-.164-.147.486-.5 1.335-.38 1.699s.364.486 1.102.507c-.212.45-.67 1.022-.45 1.291.569.431 1.222.357 1.77.323-.865 1.004-3.029 2.937-3.73 3.8-.744 1.005-.807 2.09.632 1.983-.535.594-1.05 1.167-.968 1.68.124.613.432 1.025 1.461.669-.609 1.377-.209 2.612.006 4.05-.52 1.087-.3 2.094-.428 3.342-1.059.6-1.19 1.381-1.879 2.586-.62 1.305-1.776 1.661-2.417 4.461l4.155 1.036c.153-.576.696-.95.849-1.525.152-.576.14-1.293.066-1.93.825-1.193 2.493-3.659 3.028-4.973.908-.485 1.568-.788 2.248-.788s1.114.404 1.836.788c-.32 1.108-1.215 2.316-1.267 3.868v4.284c-.18 1.064-1.39 1.078-1.901 4.283l3.732.967c.634-1.077 1.638-1.226 1.901-1.658l.27-4.45c.475-2.1 3.42-3.837 3.463-6.12 1.057-.014 1.456.094 1.875-.122.563-.196.756-.513 1.196-.911.17.687.71.747 1.168.747s1.367-.646 1.743-.909c.264.373.404.725.956.855.553.13 2.113-.103 2.748-.256l-3.067 5.018c-.115.483.039.785-.2 1.35-.222.507-.672.75-.874 1.218l3.477.83.555-1.464c.737-.31 1.33-.48 1.717-.952.387-.471.384-1.368.606-1.88 1.188-.863 3.055-2.735 4.366-4.284.89.15 2.151.887 2.63 1.986.067 1.18.154 3.35-.376 4.854l-2.254 3.523-.255.578 3.547 1.264 2.254-1.727.088-2.464c1.132-1.999 2.751-3.091 4.295-4.352 0-.07.165-2.646.103-2.747-.381-.29-.64-.115-.774-.648-.134-.532-.043-1.994.029-2.567.223-.276.693-.594.669-.83-.614-.674-.426-2.418-.238-3.778-.046-1.55 2.07-3.381 2.394-4.284l.132-1.626c-.216-.4-.535-.638-.545-.977s.41-.9.669-1.26l.448-.765-.07-4.007c-.126-.433-.498-1.108-.85-1.177-.353-.07-.87.327-1.263.762l-2.039 1.505c-.977.299-1.831.417-3.55-.012l-2.621.053c-1.377.384-2.095.446-3.39-.118l-1.552.025c-.483.263-1.153.687-1.678.789s-1.234.122-1.76-.04c-4.006.27-3.011.56-4.156.81-.92-.175-.625-.632-4.2-.666l-1.416-.415c-1.788-1.184-3.165-3.076-4.355-5.25 3.724-1.067 5.286-2.174 6.416-4.715l-5.266.197z" style="font-size:12px;fill:#f9f704;fill-opacity:1;fill-rule:evenodd;stroke:#544b20;stroke-width:.43477588pt"/><path d="m692.66 136.421 1.49.632c.183.217.535.466.77.481.232.014.43-.223.63-.394l1.373-.719c-.813-.117-1.062-.622-1.926-.622-.865 0-1.473.454-2.338.622zM699.21 136.791c.484.286 1.363.858 2.088.858.793-.067.78-.622 1.916-.992l1.666-1.347c-1.005.011-3.176.208-4.37.573-1.005.263-1.239.662-1.3.908zM695.397 154.009c0 .123-.206.213-.31.067-.128-1.748-.513-2.974-1.052-4.335.609 1.036 1.114 2.71 1.362 4.268zM699.652 161.18c-.678.068-.945-.032-1.623.037a107 107 0 0 1-.07-5.022c.259.032 1.015.82 1.462 2.064.117.917.285 1.952.231 2.92zM704.154 154.198c.305.084.731.084.83-.118.13-.374-.255-.783-.4-1.241-.502-.985-.78-2.053-.991-2.516-.221-.14-.46-.127-.407.103.288.876.783 3.434.968 3.772zM708.957 153.668c.033.212-.689-.097-.81-.338-.011-.47-.982-3.9-.822-4.032.204-.1.837 1.146 1.041 1.72.048.34.474 1.587.59 2.65zM708.276 160.736c-.017.24.549.043.772-.138.646-1.01 1.447-2.072 1.683-2.476.141-.433.849-3.187.63-3.165-.076-.08-.692 1.366-1.486 2.792-.827 1.453-1.608 2.848-1.599 2.987zM713.093 159.256c-.235.113.472-2.381.529-2.823.129-.699.31-1.952.593-3.576.346 2.268-.062 4.703-1.122 6.399zM715.982 151.622c-.154.135-2.224-3.286-2.033-3.303.053-.151 1.734 2.141 1.974 2.544.1.192.2.484.06.759zM720.825 154.161c-.155-.116-.093-1.208-.4-2.408-.305-1.2-.826-2.355-.723-2.683.097-.173.434-.093.702.138.127.652.426 3.155.777 4.784-.005.157-.18.265-.356.17zM724.209 151.122c-.165-.176.45 1.175.897 2.78.448 1.604.677 4.44.786 4.238.308-.205.255-.459.735-.562.479-.103 2.261.063 2.158-.057-1.103-.983-2.12-1.797-2.88-2.863s-1.262-2.47-1.696-3.536zM728.378 165.755c-.346.25-1 .448-1.192.345-1.051-2.187-1.64-3.616-3.103-5.954-.377-.555-1.315-.47-1.262-.688.035-.253.527-.151.845-.517s.36-.829.557-.997c-.43 1.01.7 2.556 1.333 3.784.42.115.756.112.953.361.048.118-.455.202-.39.622l1.067 2.15c.348.261.884.405 1.402.482.136.12-.106.291-.21.412z" style="font-size:12px;fill-rule:evenodd;stroke:#000;stroke-width:.43477588pt"/><path d="m728.977 189.795 18.778-66.189 39.859-16.057 21.139 35.744-30.256 61.444c-17.114-6.468-26.902-9.923-49.52-14.942" style="font-size:12px;fill:none;fill-rule:evenodd;stroke-width:1pt;stroke-opacity:.99607801"/><path d="M730.563 146.644c.66.036 1.256.094 1.452-.242.403-.83.637-1.515.366-2.055-1.035.083-1.816.56-2.238 1.471.013.317.09.55.42.826z" style="font-size:12px;fill-rule:evenodd;stroke:#000;stroke-width:.43477588pt"/><path d="M741.427 146.02c10.225 2.16 19.69 4.619 29.155 7.672s18.474 6.704 27.635 10.651l-15.336 30.986c-8.56-3.257-17.013-5.883-25.466-8.614s-16.69-5.147-25.25-7.772z" style="font-size:12px;fill:#fdfcfc;fill-rule:evenodd;stroke:#fdfcfc;stroke-width:.43477588pt"/><path d="M739.39 153.34s14.28 3.186 28.118 7.637 27.34 10.165 27.285 10.165c-.107 0-8.697 17.697-8.697 17.697-8.339-3.318-17.108-6.426-25.768-9.218-8.662-2.791-17.323-5.477-26.199-7.531z" style="font-size:12px;fill:#e6151e;fill-rule:evenodd;stroke:#e6151e;stroke-width:.43477588pt"/><path d="M740.577 161.995c1.405-.785 2.356-.997 3.112-2.29h5.057l.065 1.844c1.243.594 1.967 1.252 3.21 1.845 1.242.594 3.004 1.124 4.246 1.718l10.892.954c1.459.233 3.566.848 4.83 1.59s2.076 1.675 2.756 2.862c2.237.785 4.474 1.251 6.775 1.59 2.303.34 5.187.488 7.424.573 1.102.382 1.102.954.583 1.527 0 0-1.232 1.67-4.595 1.685s-7.172-1.876-8.825-1.622c.065 1.018 1.815 3.117 3.825 3.944l-.065 4.834-.908.827-.972-.636c.778-1.145.518-2.481.194-3.626-.745-1.081-.842-1.526-2.236-1.59-1.654-.318-2.853-.763-4.96-2.226l-.778.127c-.454.806-.908 1.357-1.945 1.845l-2.14-.127s-4.928-1.082-4.928-1.146-.064-.763.066-.826c.13-.064 1.685-.064 1.815-.064 1.037.318 3.242.318 3.242.318l-.065-1.845 3.306-.19c-.67-2.29-.886-3.754-3.955-4.262l-9.596.254.13 1.336c-2.399-.318-6.742-.375-8.961.36-1.297.128-3.163.785-4.006.785l-.972-.254c-.649-.191-.649-.382-.39-.955 4.15-.318 4.799-.636 6.03-1.208.066-.381-.453-1.209-.648-1.272-2.593-.127-4.668.063-5.38-.064-1.103-.318-2.595-.89-2.595-.954s-.194-1.018-.13-1.018c.065 0 1.687.446 1.751.446 1.75.317 4.798.19 5.511-.191l.065-1.4c-.065-.636-.518-1.208-.648-1.272s-2.853-.381-3.826-.381c-1.577-.276-1.34-1.06-1.361-1.845z" style="font-size:12px;fill-rule:evenodd;stroke:#010001;stroke-width:.43477588pt;stroke-opacity:.99607801"/><path d="M761.518 173.317c1.47.467 2.55.615 4.734.763l3.306-.19c-.67-2.29-.886-3.754-3.955-4.262l-9.596.254.13 1.336c2.918 1.081 4.344 1.675 5.381 2.1z" style="font-size:12px;fill:#fdfdfd;fill-opacity:.996081;fill-rule:evenodd;stroke:#010001;stroke-width:.43477588pt;stroke-opacity:.99607801"/><path d="m570.955 189.783-17.341-64.629 26.461-32.056 37.105 21.182 6.29 68.485c-18.933 1.403-31.2 3.225-52.515 7.018z" style="font-size:12px;fill:#011171;fill-opacity:.99607801;fill-rule:evenodd;stroke:#011171;stroke-width:.4347754pt"/><path d="m511.37 141.174 6.35 4.937-1.19 8.635 8.175-3.4 6.486 4.929.888-7.942 6.71-2.636-5.548-5.323 1.234-7.895s-8.067 2.92-8.07 2.853c-.005-.067-5.798-4.903-5.862-4.831-.064.07-1.328 7.496-1.328 7.496z" style="font-size:12px;fill:#fbfd10;fill-opacity:.99607801;fill-rule:evenodd;stroke:#fdc605;stroke-width:.43477588pt;stroke-opacity:.99607801"/><path d="m511.511 141.233 27.206 4.402-6.77 2.774-6.539-4.656s5.84 12.316 5.767 12.253-6.188-4.543-6.406-4.731l.571-7.518s-8.677 10.913-8.681 10.846 1.261-8.572 1.261-8.572zM519.147 138.001l6.305 5.345-4.917-12.98zM526.34 135.404c.073.063-.965 7.811-.896 7.807.635-.848 9.031-10.732 8.963-10.728s-7.926 2.98-8.066 2.921" style="font-size:12px;fill:#ffc500;fill-rule:evenodd;stroke-width:1pt"/><path d="m768.138 124.946 1.598 7.799-6.581 5.855 8.47 2.575 1.709 7.88 5.897-5.516 6.85 2.232-.733-7.587 6.13-5.261s-8.073-2.874-8.032-2.927c.04-.054-1.2-7.424-1.296-7.41s-5.94 4.896-5.94 4.896z" style="font-size:12px;fill:#fbfd10;fill-opacity:.99607801;fill-rule:evenodd;stroke:#fdc605;stroke-width:.43477559pt;stroke-opacity:.99607801"/><path d="m768.207 125.08 17.86 20.597-6.987-2.165-1.928-7.703s-3.64 13.123-3.654 13.03c-.014-.095-1.735-7.395-1.777-7.678l5.376-5.392s-13.791 2.857-13.75 2.803c.04-.054 6.595-5.76 6.595-5.76z" style="font-size:12px;fill:#ffc500;fill-rule:evenodd;stroke-width:1pt"/><path d="m776.155 127.442 1.298 8.083 4.779-13.047zM783.35 130.01c.014.094-5.87 5.367-5.815 5.407 1.042-.247 13.943-2.494 13.889-2.534-.056-.04-8.005-2.739-8.074-2.873" style="font-size:12px;fill:#fdc605;fill-rule:evenodd;stroke-width:1pt"/><path d="M553.74 125.405c9.418-4.502 19.989-8.014 31.137-9.546 10.715-1.532 21.438-1.665 32.442-1.642 0 0 1.441 16.853 1.441 16.994-8.649.07-15.094-.09-30.352 1.884-15.172 2.104-21.421 3.907-30.647 7.443z" style="font-size:12px;fill:#e6141d;fill-rule:evenodd;stroke:#e6141d;stroke-width:.43477588pt"/><path d="M561.805 155.238c-.145 0 4.765 17.827 4.765 17.827 9.057-2.286 18.26-4.007 27.46-5.304 9.203-1.296 18.989-2.034 27.902-2.623l-1.578-17.388c-9.394-.566-20.1-.566-29.783.707s-19.084 3.528-28.766 6.78z" style="font-size:12px;fill:#e6141d;fill-opacity:.996081;fill-rule:evenodd;stroke:#e6141d;stroke-width:.43477588pt"/><path d="M518.57 210.288h262.876V378.85c-6.682 65.645-69.776 114.715-127.429 114.34-62.234 2.716-131.056-48.227-136.019-114.902z" style="font-size:12px;fill:#fff;fill-rule:evenodd;stroke:#e5141d;stroke-width:1.73910344"/><path d="M524.037 216.186h251.918v161.537c-6.403 62.91-66.867 109.934-122.117 109.575-59.64 2.602-125.593-46.217-130.35-110.114z" style="font-size:12px;fill:#d61517;fill-rule:evenodd;stroke:#e5141d;stroke-width:1.66661668"/><rect width="50.097" height="53.846" x="574.772" y="217.046" ry="0" style="font-size:12px;fill:#fff;fill-rule:evenodd;stroke-width:1pt"/><path d="m725.336 378.866.013 53.246 28.269.132c13.652-20.451 19.617-40.463 20.9-53.366-.22 0-48.986-.024-49.182-.012z" style="font-size:12px;fill:#fff;fill-rule:evenodd;stroke:#fff;stroke-width:.44570146pt"/><path d="m675.242 432.682.008 51.127c21.718-4.37 39.495-15.213 49.62-22.526l-.083-28.622z" style="font-size:12px;fill:#fff;fill-rule:evenodd;stroke:#fff;stroke-width:.44187398pt"/><path d="m575.12 432.678.104 28.56c17.066 12.046 36.556 19.36 49.536 22.07l-.167-50.611z" style="font-size:12px;fill:#fff;fill-rule:evenodd;stroke:#fff;stroke-width:.44196849pt"/><path d="M524.948 378.885c1.592 20.85 10.966 39.528 20.328 52.607l29.217.608.005-53.237z" style="font-size:12px;fill:#fff;fill-rule:evenodd;stroke:#fff;stroke-width:.44551415pt"/><rect width="50.097" height="53.846" x="524.674" y="270.892" ry="0" style="font-size:12px;fill:#fff;fill-rule:evenodd;stroke-width:1pt"/><rect width="50.097" height="53.846" x="624.869" y="270.892" ry="0" style="font-size:12px;fill:#fff;fill-rule:evenodd;stroke-width:1pt"/><rect width="50.097" height="53.846" x="674.966" y="216.801" ry="0" style="font-size:12px;fill:#fff;fill-rule:evenodd;stroke-width:1pt"/><rect width="50.097" height="53.846" x="725.063" y="270.892" ry="0" style="font-size:12px;fill:#fff;fill-rule:evenodd;stroke-width:1pt"/><rect width="50.097" height="53.846" x="574.772" y="324.738" ry="0" style="font-size:12px;fill:#fff;fill-rule:evenodd;stroke-width:1pt"/><rect width="50.097" height="53.846" x="674.966" y="324.738" ry="0" style="font-size:12px;fill:#fff;fill-rule:evenodd;stroke-width:1pt"/><rect width="50.097" height="53.846" x="624.869" y="378.584" ry="0" style="font-size:12px;fill:#fff;fill-rule:evenodd;stroke-width:1pt"/></g></svg>