<svg xmlns="http://www.w3.org/2000/svg" xml:space="preserve" width="1350" height="900" version="1.0"><path d="M0 0h1350v900H0z" style="fill:#fff"/><path d="M810 450c0 74.559-60.44 135-135 135s-135-60.441-135-135 60.44-135 135-135 135 60.442 135 135" style="fill:#006"/><path d="m675 450-4.115 47.39 3.597 71.529q-3.764-.014-7.518-.27a7.517 7.517 0 0 0-6.475-8.435 7.52 7.52 0 0 0-8.435 6.472 119 119 0 0 1-7.332-1.683l21.987-68.161zm0 0-16.24 44.711-15.04 70.024c-2.42-.66-4.819-1.4-7.192-2.207a7.52 7.52 0 0 0-13.893-5.759 119 119 0 0 1-6.646-3.523l38.879-60.148zm0 0-27.258 38.98-32.651 63.746a117 117 0 0 1-6.376-3.993 7.518 7.518 0 1 0-11.93-9.154 117 117 0 0 1-5.508-5.123L644.4 486.42zm0 0-36.42 30.6-48.035 53.12a118 118 0 0 1-5.126-5.506 7.519 7.519 0 1 0-9.153-11.93q-2.099-3.124-3.994-6.374l63.746-32.65zm0 0-43.098 20.13-60.149 38.88a118 118 0 0 1-3.524-6.645 7.52 7.52 0 1 0-5.755-13.893 118 118 0 0 1-2.207-7.19l70.023-15.04zm0 0-46.84 8.29-68.163 21.987a120 120 0 0 1-1.684-7.33 7.52 7.52 0 0 0-1.962-14.91q-.255-3.756-.27-7.519l71.528 3.594zm0 0-47.39-4.116-71.529 3.597q.015-3.763.27-7.518a7.519 7.519 0 0 0 1.962-14.91 120 120 0 0 1 1.684-7.332l68.163 21.987zm0 0-44.71-16.241-70.024-15.04q.99-3.631 2.208-7.19a7.52 7.52 0 0 0 5.755-13.895 119 119 0 0 1 3.524-6.646l60.15 38.88zm0 0-38.982-27.259-63.746-32.651a119 119 0 0 1 3.994-6.375 7.518 7.518 0 1 0 9.153-11.93q2.475-2.836 5.126-5.508L638.58 419.4zm0 0-30.6-36.42-53.123-48.036a119 119 0 0 1 5.508-5.126 7.519 7.519 0 1 0 11.93-9.153q3.126-2.098 6.376-3.994l32.65 63.744zm0 0-20.132-43.098-38.88-60.15a119 119 0 0 1 6.647-3.523 7.519 7.519 0 1 0 13.894-5.755 118 118 0 0 1 7.19-2.208l15.04 70.024zm0 0-8.291-46.84-21.987-68.163a120 120 0 0 1 7.332-1.684 7.52 7.52 0 0 0 14.91-1.962q3.755-.255 7.518-.27l-3.597 71.528zm0 0 4.113-47.391-3.594-71.528q3.763.015 7.518.27a7.519 7.519 0 0 0 14.91 1.962q3.69.727 7.33 1.684L683.29 403.16zm0 0 16.243-44.71 15.039-70.024q3.63.99 7.19 2.208a7.52 7.52 0 1 0 13.893 5.755q3.382 1.656 6.644 3.524l-38.878 60.149zm0 0 27.26-38.985 32.65-63.744a119 119 0 0 1 6.374 3.994 7.52 7.52 0 0 0 1.389 10.542 7.52 7.52 0 0 0 10.542-1.389 118 118 0 0 1 5.506 5.126l-53.12 48.035zm0 0 36.422-30.6 48.034-53.123a115 115 0 0 1 5.123 5.507 7.524 7.524 0 0 0-1.386 10.544 7.517 7.517 0 0 0 10.54 1.387q2.1 3.125 3.993 6.375l-63.745 32.651zm0 0 43.099-20.133 60.147-38.879a119 119 0 0 1 3.524 6.646 7.52 7.52 0 0 0 5.758 13.894q1.215 3.56 2.208 7.191l-70.025 15.04zm0 0 46.843-8.292 68.16-21.987q.959 3.64 1.684 7.332a7.52 7.52 0 0 0 1.962 14.91q.256 3.755.27 7.518l-71.53-3.597zm0 0 47.39 4.112 71.529-3.594q-.014 3.764-.27 7.519a7.52 7.52 0 0 0-8.434 6.472 7.52 7.52 0 0 0 6.472 8.437 119 119 0 0 1-1.684 7.33l-68.16-21.986zm0 0 44.711 16.242 70.025 15.04c-.661 2.419-1.4 4.816-2.208 7.19a7.52 7.52 0 1 0-5.758 13.893 117 117 0 0 1-3.524 6.644L718.1 470.13zm0 0 38.981 27.26 63.745 32.65a117 117 0 0 1-3.993 6.373c-3.29-2.528-8.012-1.905-10.54 1.388a7.523 7.523 0 0 0 1.386 10.543 115 115 0 0 1-5.123 5.507L711.422 480.6zm0 0 30.6 36.42 53.121 48.036a116 116 0 0 1-5.506 5.123 7.523 7.523 0 0 0-10.542-1.387c-3.295 2.529-3.918 7.25-1.39 10.54a117 117 0 0 1-6.373 3.994l-32.65-63.746zm0 0 20.131 43.098 38.878 60.148a117 117 0 0 1-6.644 3.523 7.523 7.523 0 0 0-9.826-4.068 7.52 7.52 0 0 0-4.067 9.827c-2.373.808-4.77 1.547-7.19 2.207l-15.04-70.024zm0 0 8.29 46.842 21.988 68.16q-3.64.959-7.332 1.684a7.52 7.52 0 0 0-8.437-6.472 7.517 7.517 0 0 0-6.472 8.434q-3.755.258-7.518.27l3.594-71.529z" style="fill:#fff"/><path d="M699.272 450c0 13.401-10.87 24.272-24.272 24.272-13.403 0-24.27-10.87-24.27-24.272 0-13.404 10.867-24.27 24.27-24.27 13.401 0 24.272 10.866 24.272 24.27" style="fill:#006"/><path d="M0 0h1350v300H0z" style="fill:#f93"/><path d="M0 600h1350v300H0z" style="fill:#138808"/></svg>