<svg xmlns="http://www.w3.org/2000/svg" xmlns:xlink="http://www.w3.org/1999/xlink" width="900" height="600"><path fill="#ce1126" d="M0 0h900v200H0z"/><path fill="#fff" d="M0 200h900v200H0z"/><path d="M0 400h900v200H0z"/><g fill="#009e60"><path id="a" d="M0-1 .588.809-.952-.309H.952L-.588.809z" transform="matrix(60 0 0 60 200 300)"/><use xlink:href="#a" x="250"/><use xlink:href="#a" x="500"/><path d="m276.172 341.592-3.303-3.334 3.333-3.303 3.333-3.304 3.304 3.333 3.304 3.334-3.333 3.304-3.334 3.303zm-22.68-1.673c-1.19-.435-3.117-1.864-4.381-3.246-2.382-2.607-2.924-3.824-1.324-2.966 2.387 1.277 7.113 2.108 8.795 1.547 6.204-2.072 7.614-10.353 2.659-15.607-.973-1.031-1.769-2.23-1.769-2.663 0-.434 1.034-1.245 2.297-1.804 1.768-.782 2.632-1.635 3.763-3.712 1.149-2.111 1.62-2.57 2.171-2.113.789.654 3.45 7.006 3.45 8.233 0 .648.962.79 5.316.79h5.316l-.83-1.99c-.458-1.095-1.208-2.568-1.67-3.274-.748-1.143-.752-1.346-.035-1.858a588 588 0 0 1 3.273-2.302c1.357-.95 2.623-2.144 2.813-2.654.47-1.263 3.41-4.91 3.957-4.91.242 0 .442 3.822.442 8.494v8.495h66.363v-24.335l-1.846-1.141-1.847-1.142-1.87 1.427-1.87 1.426v17.394h-27.872c-15.33 0-27.873-.096-27.873-.213 0-.186 13.87-18.917 15.566-21.023.353-.438 1.224-1.633 1.936-2.655s1.437-1.978 1.61-2.124c.175-.146.895-1.101 1.602-2.123.706-1.022 1.53-2.137 1.833-2.479.302-.34 5.326-7.076 11.166-14.966s10.792-14.36 11.007-14.378c.213-.017.517.625.675 1.428.876 4.444 1.549 6.933 2.241 8.3.889 1.75.368 2.403-1.977 2.477-1.112.034-3.667 3.173-15.663 19.229-7.883 10.553-14.414 19.378-14.511 19.61s7.01.422 15.794.422h15.972l.008-5.707c.005-3.139.184-5.954.398-6.256 1.003-1.412 11.562-8.79 12.299-8.595.458.122 3.282 2.086 6.275 4.364l5.442 4.143v35.411h-92.22l-.927 3.425c-1.112 4.104-2.93 7.063-5.372 8.736-2.298 1.574-7.507 2.01-10.583.885m114.941-40.61c0-19.275.174-27.695.577-27.944.317-.196 1.69.813 3.052 2.241s3.79 3.722 5.397 5.097c2.536 2.172 2.8 2.572 2.017 3.049-2.615 1.588-2.548 1.089-2.548 19.41v17.217h5.081c4.513 0 5.346-.154 7.433-1.378 2.59-1.518 2.762-1.317 1.481 1.711-.48 1.13-1.017 3.37-1.195 4.976l-.324 2.92-10.486.144-10.485.144zm7.199-32.71c-1.21-.914-3.642-1.016-5.137-.216-.58.31-1.58.482-2.222.381-1.093-.172-1.044-.3.785-2.026 1.925-1.817 1.943-1.876 1.344-4.12-.777-2.91-.134-4.033 2.435-4.253 1.369-.117 2.214.145 2.998.93 1.207 1.206 1.29 1.55.62 2.606-.343.542-.714.58-1.513.151-1.212-.648-1.73-.323-1.73 1.083 0 .66.953 1.447 2.919 2.411 1.606.788 2.92 1.604 2.92 1.815 0 .493-1.559 2.056-2.028 2.034-.199-.01-.825-.368-1.391-.797M535.97 319.876c.279-7.762 1.08-10.395 3.928-12.895 2.193-1.926 5.33-2.837 8.959-2.603l2.718.175.163-3.175c.207-4.024-.158-5.46-1.496-5.885-1.607-.51-1.28-2.178.667-3.391.953-.594 3.284-2.652 5.181-4.574s3.636-3.493 3.864-3.493.415 7.674.415 17.054v17.055h7.461v-17.55c0-15.243-.11-17.66-.837-18.387-.46-.46-1.06-.837-1.332-.837-1.196 0-.351-2.135 1.237-3.125.952-.594 3.272-2.64 5.155-4.548s3.622-3.346 3.864-3.196c.243.15.44 10.93.44 23.958v23.685h7.462v-48.506l-1.332-1.159c-.733-.637-1.333-1.448-1.333-1.802 0-.353 1.658-1.982 3.684-3.62 2.026-1.636 4.201-3.702 4.833-4.59 2.721-3.821 2.676-4.39 2.676 33.295v34.91h-56.62zm15.872-5.196v-3.465h-2.091c-2.807 0-5.37 2.437-5.37 5.105v1.824h7.46zM598.209 299c0-19.349.174-27.801.579-28.051.318-.197 1.697.815 3.064 2.25 1.368 1.433 3.805 3.736 5.417 5.116 2.547 2.18 2.813 2.582 2.025 3.06-2.623 1.595-2.558 1.093-2.558 19.486v17.283h5.206c4.723 0 5.395-.128 7.237-1.38 1.116-.759 2.161-1.248 2.322-1.088.16.16-.129 1.321-.642 2.579-.514 1.258-1.084 3.606-1.266 5.218l-.332 2.932-10.526.144-10.526.145zm-41.947-28.996c-.94-.344-2.019-.954-2.398-1.354-.58-.613-.292-.672 1.816-.371 3.79.54 6.11-.103 8.224-2.28l1.857-1.912 2.581.917c1.42.504 2.905.792 3.3.64 1.024-.392 2.88-3.335 2.694-4.27-.227-1.143.822-.97 1.47.241 1.271 2.376.21 5.39-2.22 6.308-1.19.45-2.34.462-4.268.05-2.367-.508-2.757-.455-3.795.517-2.327 2.18-5.864 2.758-9.26 1.514m49.173-3.84c-1.213-.918-3.655-1.02-5.157-.217-.582.312-1.585.484-2.23.383-1.097-.173-1.047-.301.788-2.034 1.932-1.824 1.951-1.883 1.35-4.136-.78-2.922-.135-4.049 2.444-4.27 1.375-.117 2.223.146 3.01.933 1.212 1.212 1.294 1.558.623 2.617-.345.545-.718.582-1.52.152-1.216-.65-1.737-.325-1.737 1.087 0 .662.957 1.452 2.931 2.42 1.612.791 2.931 1.61 2.931 1.822 0 .496-1.564 2.064-2.036 2.042-.2-.01-.828-.37-1.397-.8m-42.72-4.949c-1.285-.875-3.994-5.366-4.097-6.793-.09-1.225.127-1.599.998-1.724 1.524-.218 2.228.796 3.401 4.897.958 3.348.868 4.418-.303 3.62"/></g></svg>