<svg xmlns="http://www.w3.org/2000/svg" xmlns:xlink="http://www.w3.org/1999/xlink" width="1155" height="660" viewBox="-770 -440 1540 880"><defs><path id="a" fill="#fff" d="M0 0h1v-2h3v2h5v-3H6v1h2v1H5v-2H0zm2 0h1v-1H2zM0-4h13v-1H0zm13 4h-3v-3h4v-2h1v4h1v-4h1v4h1v-4h1v5h-5v-2h-3v1h2z" transform="translate(-9.5)"/><path id="b" fill="#fff" d="M0 0h9v-2H0zm10 0h9v-2h-9z" transform="translate(-9.5)"/></defs><path fill="#fff" d="M-770-440H770v880H-770z"/><path fill="#239f40" d="M-770-440H770v294H-770z"/><g fill="#da0000"><path d="M-770 146H770v294H-770zM0-106l-16 13 3 208 13 15 13-15 3-208z"/><path d="M32-128a22 22 0 0 1-32 6 22 22 0 0 1-32-6 19 19 0 0 0 32 18 19 19 0 0 0 32-18M40-99A130 130 0 0 1-80 107 120.5 120.5 0 0 0 40-99"/><path d="M-40-99A130 130 0 0 0 80 107 120.5 120.5 0 0 1-40-99M55-103A130 130 0 0 1 77 87a103 103 0 0 0-22-190"/><path d="M-55-103A130 130 0 0 0-77 87a103 103 0 0 1 22-190"/></g><g id="c" transform="matrix(7 0 0 7 0 -160)"><use xlink:href="#a" transform="translate(-100)"/><use xlink:href="#a" transform="translate(-80)"/><use xlink:href="#a" transform="translate(-60)"/><use xlink:href="#a" transform="translate(-40)"/><use xlink:href="#a" transform="translate(-20)"/><use xlink:href="#a"/><use xlink:href="#a" transform="translate(20)"/><use xlink:href="#a" transform="translate(40)"/><use xlink:href="#a" transform="translate(60)"/><use xlink:href="#a" transform="translate(80)"/><use xlink:href="#a" transform="translate(100)"/></g><g id="d" transform="matrix(7 0 0 7 0 -139)"><use xlink:href="#b" transform="translate(-100)"/><use xlink:href="#b" transform="translate(-80)"/><use xlink:href="#b" transform="translate(-60)"/><use xlink:href="#b" transform="translate(-40)"/><use xlink:href="#b" transform="translate(-20)"/><use xlink:href="#b"/><use xlink:href="#b" transform="translate(20)"/><use xlink:href="#b" transform="translate(40)"/><use xlink:href="#b" transform="translate(60)"/><use xlink:href="#b" transform="translate(80)"/><use xlink:href="#b" transform="translate(100)"/></g><use xlink:href="#c" transform="translate(0 355)"/><use xlink:href="#d" transform="translate(0 292)"/></svg>