<svg xmlns="http://www.w3.org/2000/svg" width="600" height="300" version="1.0"><path d="M125 414.862h525v262.5H125z" style="fill:#000;fill-opacity:1;fill-rule:evenodd;stroke:none;stroke-width:1pt;stroke-linecap:butt;stroke-linejoin:miter;stroke-opacity:1" transform="matrix(1.14286 0 0 1.14286 -142.857 -474.128)"/><path d="M125 502.362h525v87.5H125z" style="fill:#fff;fill-opacity:1;fill-rule:evenodd;stroke:none;stroke-width:1pt;stroke-linecap:butt;stroke-linejoin:miter;stroke-opacity:1" transform="matrix(1.14286 0 0 1.14286 -142.857 -474.128)"/><path d="M125 589.862h525v87.5H125z" style="fill:#007a3d;fill-opacity:1;fill-rule:evenodd;stroke:none;stroke-width:1pt;stroke-linecap:butt;stroke-linejoin:miter;stroke-opacity:1" transform="matrix(1.14286 0 0 1.14286 -142.857 -474.128)"/><path d="m125 414.862 262.5 131.25L125 677.362z" style="fill:#ce1126;fill-opacity:1;fill-rule:evenodd;stroke:none;stroke-width:1pt;stroke-linecap:butt;stroke-linejoin:miter;stroke-opacity:1" transform="matrix(1.14286 0 0 1.14286 -142.857 -474.128)"/><path d="m162.5 100.487-21.694 54.952-56.49-17.3 29.438 51.222-48.747 33.378 58.401 8.923-4.296 58.922 43.388-40.097 43.388 40.097-4.296-58.922 58.4-8.923-48.746-33.378 29.437-51.223-56.489 17.3z" style="fill:#fff;fill-opacity:1;fill-rule:evenodd;stroke:none;stroke-width:1pt;stroke-linecap:butt;stroke-linejoin:miter;stroke-opacity:1" transform="matrix(.21429 0 0 .21429 57.879 107.038)"/></svg>