<svg xmlns="http://www.w3.org/2000/svg" width="1800" height="1200" version="1.0"><path fill="#009" d="M0 0h1800v1200H0z"/><path fill="#c00" d="M0 300h1800v600H0z"/><g fill="#fff" fill-rule="evenodd" stroke="#c00" stroke-width="3"><path d="M550.114 631.417h699.773v113.152H550.114z"/><path d="m549.623 744.568-11.303 26.624h723.361l-11.302-26.624z"/><path d="m1108.266 744.551-13.364 26.66h160.366l-13.364-26.66z"/><path d="m1142.074 744.57-6.906 26.623h82.874l-6.906-26.624z"/><path d="m1154.338 744.57-4.464 26.623h53.561l-4.463-26.624zM815.926 744.569l-14.414 26.624h194.977l-14.414-26.624zM546.183 629.696h707.636v26.624H546.183z"/><g stroke-width="1.375"><path d="M462.791 240.46h62.5v50.792h-62.5z" transform="matrix(2.14428 0 0 2.21901 115.729 98.075)"/><path d="M507.5 264.263h6.25v26.986h-6.25zM480 264.263h6.25v26.986H480z" transform="matrix(2.14428 0 0 2.21901 115.729 98.075)"/></g><path d="m858.808 744.657-8.143 26.447h97.719l-8.143-26.447z"/><path d="m872.13 744.433-4.609 20.184h63.317l-4.61-20.184z"/><path d="M816.584 629.021h165.42v115.413h-165.42z"/><path d="M949.12 684.465h13.483v59.883H949.12zM838.279 684.46h13.493v59.883h-13.493zM859.98 604.108h80.002v140.355H859.98z"/><path d="M919.015 684.462h13.483v59.883h-13.483zM866.402 684.464h13.493v59.883h-13.493zM860.6 627.002l38.255 56.823 40.508-56.823zM1156.401 631.417h39.313v139.776h-39.313z"/><path d="M1162.927 631.417h26.183v139.776h-26.183z"/><path stroke-width="1.36" d="m245 280-5 15h60l-5-15z" transform="matrix(2.74274 0 0 1.77494 -112.965 247.588)"/><path stroke-width="1.983" d="m245 280-5 15h60l-5-15z" transform="matrix(1.28947 0 0 1.77494 276.036 247.588)"/><path stroke-width="2.483" d="m245 280-5 15h60l-5-15z" transform="matrix(.82274 0 0 1.77494 401.858 247.588)"/><path stroke-width="3.0001015200000003" d="M557.977 631.418h137.596V744.57H557.977z"/><path stroke-width="3.0001015200000003" d="M584.798 684.481h13.869v59.882h-13.87zM648.594 684.483h13.869v59.883h-13.869zM605.153 631.418h39.314v139.775h-39.314z"/><path stroke-width="3.0001015200000003" d="M611.679 631.418h26.182v139.775h-26.182z"/><path d="M538.32 604.782h723.361v26.624H538.32z"/><path d="m1270.852 618.889 1.182-82.389s-3.548 23.154-14.196 23.154H542.715c-10.648 0-14.198-23.154-14.198-23.154l1.183 82.389z"/><path d="m1263.3 602.903 1.158-64.418s-3.476 23.164-13.907 23.164h-700.55c-10.43 0-13.907-23.164-13.907-23.164l1.158 64.418zM518.24 764.529h760.617v34.231H518.24z"/><path d="M506.627 771.864h783.842v34.231H506.627z"/><path d="M486.306 791.425h827.389v34.231H486.306z"/><path d="M457.274 815.875h885.452v34.231H457.274zM428.433 850.298h943.134v33.85H428.433z"/><path d="M605.152 764.529h39.313v119.808h-39.313z"/><path d="M611.704 764.529h26.209v119.808h-26.209zM1155.536 764.529h39.313v119.808h-39.313z"/><path d="M1162.088 764.529h26.209v119.808h-26.209z"/><rect width="188.703" height="28.62" x="805.649" y="600.181" ry="14.31"/><path d="m997.073 617.008 1.212-94.352s-3.639 23.143-14.56 23.143H816.281c-10.92 0-14.561-23.143-14.561-23.143l1.213 94.352z"/><path d="m981.917 592.547 1.014-75.608s-3.045 18.546-12.182 18.546H830.652c-9.137 0-12.183-18.546-12.183-18.546l1.015 75.608z"/><path d="m853.938 591.967 44.746 38.599 47.38-38.599zM927.18 390.138l.168-20.358c-21.032 0-15.812-22.15-15.812-30.542 6.2-8.445 7.933-20.226-9.37-28.797-16.934 9.566-15.598 20.192-9.368 28.087.093 9.326 6.916 31.252-16.136 31.252l.167 20.358z"/><path d="m942.803 416.205.247-26.85s6.126-4.93 4.15-11.965c-1.977-7.036-10.989 8.87-10.989 8.87h-68.5s-10.365-15.906-12.34-8.87c-1.976 7.035 5.501 11.965 5.501 11.965l.247 26.85zM871.252 354.218h61.505v14.885h-61.505z"/><path d="M866.644 370.617h69.234v14.745h-69.234z"/><path d="m874.995 386.154-.27-15.32c4.368-3.972 6.061 7.87 6.061 7.87s1.8-16.583 20.517-23.96c18.716 7.377 20.517 24.967 20.517 24.967s1.694-12.849 6.061-8.877l-.27 15.32zM879.356 339.63h45.297v14.204h-45.297z"/><path d="m870.796 418.251-.31-17.595c5.017-4.561 6.961 9.04 6.961 9.04s2.068-19.046 23.564-27.517c21.494 8.471 23.562 28.672 23.562 28.672s1.946-14.756 6.962-10.195l-.31 17.595z"/><path d="m952.63 453.041.306-33.303s7.597-6.115 5.147-14.842c-2.452-8.726-13.63 11.004-13.63 11.004h-84.965s-12.857-19.73-15.307-11.004 6.824 14.842 6.824 14.842l.305 33.303z"/><path d="m867.017 453.288-.355-20.154c5.746-5.224 7.973 10.354 7.973 10.354s2.369-21.815 26.99-31.519c24.621 9.704 26.99 32.843 26.99 32.843s2.228-16.902 7.974-11.678l-.356 20.154z"/><path d="m960.768 496.576.355-39.346s8.79-7.224 5.954-17.534-15.768 13-15.768 13h-98.293s-14.873-23.31-17.709-13c-2.835 10.31 7.895 17.534 7.895 17.534l.354 39.346z"/><path d="m861.547 496.223-.41-23.315c6.646-6.045 9.223 11.977 9.223 11.977s2.74-25.237 31.224-36.463c28.483 11.226 31.223 37.995 31.223 37.995s2.578-19.554 9.225-13.51l-.411 23.316z"/><path d="m965.697 542.774.39-43.216s9.684-7.935 6.56-19.26c-3.124-11.324-17.372 14.279-17.372 14.279H846.979s-16.386-25.603-19.51-14.279 8.698 19.26 8.698 19.26l.39 43.216z"/><path d="m970.06 560.005.418-34.355s10.377-6.308 7.03-15.31-18.617 11.35-18.617 11.35H842.843s-17.56-20.353-20.907-11.35c-3.347 9.002 9.32 15.31 9.32 15.31l.418 34.355z"/><path d="m854.043 540.25-.477-27.109c7.728-7.028 10.724 13.927 10.724 13.927s3.186-29.343 36.305-42.396c33.118 13.053 36.304 44.177 36.304 44.177s2.998-22.736 10.726-15.708l-.478 27.11z"/><path d="m851.872 592.192-.027-28.567c8.024-5.18 12.618 22.59 12.618 22.59s1.153-41.83 35.538-51.45c34.383 9.62 35.536 51.45 35.536 51.45s4.596-27.77 12.62-22.59l-.03 28.567z"/><path d="m857.646 630.956-.434-31.443c7.032-8.151 9.758 16.153 9.758 16.153s2.898-34.034 33.03-49.174c30.132 15.14 33.03 51.24 33.03 51.24s2.727-26.37 9.759-18.219l-.435 31.443zM988.524 684.467h13.868v59.883h-13.868zM1082.831 684.464h13.868v59.883h-13.868zM1035.678 684.462h13.868v59.883h-13.868zM1013.487 684.461h13.868v59.883h-13.868zM1057.868 684.461h13.868v59.883h-13.868zM703.602 684.471h13.868v59.883h-13.868zM748.756 684.465h13.868v59.883h-13.868zM726.566 684.464h13.868v59.883h-13.868zM793.91 684.468h13.868v59.883H793.91zM770.946 684.464h13.868v59.883h-13.868z"/><rect width="157.933" height="28.864" x="548.165" y="603.308" ry="14.432"/><path d="m705.71 620.257 1.213-94.351s-3.64 23.143-14.56 23.143H558.919c-10.921 0-14.562-23.143-14.562-23.143l1.213 94.351z"/><path d="m693.07 599.115 1.014-75.608s-9.045 18.546-18.182 18.546H575.805c-9.137 0-18.183-18.546-18.183-18.546l1.014 75.608z"/><path d="m591.795 583.486 33.766 29.128 35.754-29.128zM647.065 447.18l.127-15.362c-15.872 0-11.932-16.715-11.932-23.048 4.678-6.373 5.986-15.263-7.07-21.73-12.78 7.217-11.772 15.236-7.07 21.194.07 7.038 5.219 23.584-12.177 23.584l.126 15.363z"/><path d="m658.855 466.851.187-20.261s4.622-3.72 3.13-9.03c-1.49-5.31-8.292 6.694-8.292 6.694H602.19s-7.822-12.003-9.313-6.694 4.152 9.03 4.152 9.03l.186 20.261zM604.861 420.074h46.414v11.233h-46.414z"/><path d="M601.383 432.449h52.246v11.127h-52.246z"/><path d="m607.685 444.174-.204-11.56c3.296-2.998 4.574 5.938 4.574 5.938s1.359-12.514 15.483-18.08c14.124 5.566 15.482 18.84 15.482 18.84s1.279-9.696 4.575-6.699l-.204 11.561zM610.976 409.066h34.182v10.719h-34.182z"/><path d="m604.517 466.395-.234-13.277c3.785-3.442 5.253 6.821 5.253 6.821s1.56-14.372 17.781-20.765c16.22 6.393 17.781 21.637 17.781 21.637s1.468-11.135 5.253-7.693l-.234 13.277z"/><path d="m666.27 492.649.231-25.132s5.734-4.614 3.884-11.2-10.285 8.304-10.285 8.304h-64.117s-9.702-14.889-11.551-8.304c-1.85 6.586 5.15 11.2 5.15 11.2l.23 25.132z"/><path d="m601.665 492.835-.268-15.208c4.336-3.943 6.017 7.813 6.017 7.813s1.787-16.462 20.367-23.785c18.58 7.323 20.367 24.784 20.367 24.784s1.682-12.755 6.017-8.812l-.268 15.208z"/><path d="m672.412 523.501.268-29.691s6.632-5.452 4.493-13.232c-2.14-7.78-11.9 9.81-11.9 9.81H591.1s-11.224-17.59-13.363-9.81c-2.14 7.78 5.957 13.232 5.957 13.232l.267 29.691z"/><path d="m597.537 517.235-.31-17.594c5.016-4.562 6.96 9.038 6.96 9.038s2.068-19.044 23.563-27.516c21.494 8.472 23.562 28.672 23.562 28.672s1.945-14.756 6.961-10.194l-.31 17.594z"/><path d="m676.131 554.364.295-32.612s7.308-5.989 4.95-14.534-13.11 10.775-13.11 10.775h-81.722s-12.366-19.321-14.723-10.775c-2.358 8.545 6.563 14.534 6.563 14.534l.294 32.612z"/><path d="m679.423 565.367.316-25.925s7.831-4.76 5.305-11.554c-2.526-6.793-14.048 8.566-14.048 8.566h-87.574s-13.25-15.36-15.777-8.566 7.034 11.554 7.034 11.554l.315 25.925z"/><path d="m591.874 550.46-.36-20.458c5.832-5.304 8.093 10.51 8.093 10.51s2.404-22.144 27.397-31.994c24.991 9.85 27.396 33.338 27.396 33.338s2.262-17.158 8.094-11.854l-.361 20.457z"/><path d="m590.236 583.656-.02-21.557c6.054-3.91 9.521 17.047 9.521 17.047s.87-31.566 26.818-38.826c25.946 7.26 26.817 38.826 26.817 38.826s3.468-20.956 9.522-17.047l-.021 21.557z"/><path d="m588.628 631.854-.386-27.925c6.245-7.239 8.666 14.346 8.666 14.346s2.574-30.226 29.335-43.671c26.759 13.445 29.333 45.506 29.333 45.506s2.422-23.42 8.667-16.18l-.386 27.924z"/><rect width="157.933" height="28.864" x="1097.037" y="603.588" ry="14.432"/><path d="m1254.583 620.537 1.213-94.352s-3.64 23.143-14.56 23.143H1107.79c-10.92 0-14.56-23.143-14.56-23.143l1.212 94.352z"/><path d="m1241.942 599.394 1.014-75.608s-9.044 18.546-18.182 18.546h-100.096c-9.138 0-18.183-18.546-18.183-18.546l1.014 75.608z"/><path d="m1140.668 583.766 33.766 29.127 35.754-29.127zM1195.938 447.46l.127-15.363c-15.872 0-11.932-16.715-11.932-23.048 4.678-6.373 5.986-15.263-7.07-21.73-12.78 7.218-11.772 15.236-7.07 21.194.07 7.038 5.218 23.584-12.178 23.584l.127 15.363z"/><path d="m1207.728 467.13.186-20.261s4.623-3.72 3.132-9.03-8.293 6.695-8.293 6.695h-51.692s-7.821-12.004-9.312-6.695c-1.491 5.31 4.151 9.03 4.151 9.03l.186 20.261zM1153.733 420.353h46.414v11.233h-46.414z"/><path d="M1150.256 432.728h52.246v11.127h-52.246z"/><path d="m1156.558 444.453-.204-11.56c3.296-2.998 4.574 5.939 4.574 5.939s1.359-12.514 15.483-18.081c14.123 5.567 15.482 18.84 15.482 18.84s1.278-9.696 4.574-6.699l-.204 11.561zM1159.849 409.345h34.182v10.719h-34.182z"/><path d="m1153.39 466.675-.234-13.278c3.785-3.442 5.253 6.821 5.253 6.821s1.56-14.372 17.78-20.765c16.221 6.393 17.782 21.637 17.782 21.637s1.468-11.135 5.253-7.693l-.234 13.278z"/><path d="m1215.143 492.928.231-25.131s5.733-4.615 3.884-11.2c-1.85-6.586-10.286 8.303-10.286 8.303h-64.116s-9.702-14.889-11.551-8.303 5.15 11.2 5.15 11.2l.23 25.131z"/><path d="m1150.537 493.114-.267-15.208c4.335-3.943 6.016 7.813 6.016 7.813s1.788-16.462 20.368-23.785c18.58 7.323 20.367 24.784 20.367 24.784s1.681-12.755 6.017-8.812l-.268 15.208z"/><path d="m1221.285 523.78.267-29.69s6.633-5.453 4.494-13.233-11.9 9.81-11.9 9.81h-74.174s-11.224-17.59-13.363-9.81c-2.14 7.78 5.957 13.232 5.957 13.232l.267 29.692z"/><path d="m1146.41 517.514-.31-17.594c5.016-4.562 6.96 9.039 6.96 9.039s2.068-19.045 23.563-27.516c21.494 8.471 23.562 28.671 23.562 28.671s1.945-14.755 6.96-10.194l-.31 17.594z"/><path d="m1225.004 554.643.295-32.612s7.307-5.988 4.95-14.534-13.11 10.775-13.11 10.775h-81.722s-12.366-19.321-14.724-10.775c-2.357 8.546 6.564 14.534 6.564 14.534l.294 32.612z"/><path d="m1228.296 565.646.316-25.925s7.831-4.76 5.305-11.554c-2.527-6.793-14.049 8.566-14.049 8.566h-87.573s-13.251-15.36-15.777-8.566 7.033 11.554 7.033 11.554l.316 25.925z"/><path d="m1140.747 550.738-.36-20.457c5.832-5.303 8.093 10.51 8.093 10.51s2.404-22.144 27.397-31.994c24.991 9.85 27.395 33.338 27.395 33.338s2.263-17.157 8.094-11.854l-.36 20.457z"/><path d="m1139.109 583.935-.02-21.557c6.054-3.91 9.52 17.047 9.52 17.047s.871-31.566 26.819-38.826c25.946 7.26 26.817 38.826 26.817 38.826s3.467-20.956 9.522-17.047l-.021 21.557z"/><path d="m1137.5 632.133-.385-27.924c6.245-7.24 8.666 14.345 8.666 14.345s2.574-30.226 29.334-43.671c26.76 13.445 29.334 45.506 29.334 45.506s2.422-23.42 8.667-16.18l-.387 27.924zM879.873 631.214h39.313V770.99h-39.313z"/><path d="M886.399 631.214h26.183V770.99h-26.183z"/><path d="M879.322 764.326h39.313v119.808h-39.313z"/><path d="M885.561 764.326h26.209v119.808h-26.209z"/></g></svg>