<svg xmlns="http://www.w3.org/2000/svg" width="500" height="300" version="1.0"><path d="M125 377.362h500v300H125z" style="fill:#ffc61e;fill-opacity:1;stroke:none;stroke-width:1.25;stroke-linecap:butt;stroke-linejoin:miter;stroke-miterlimit:4;stroke-opacity:1" transform="translate(-125 -377.362)"/><path d="M125 452.362h500v225H125z" style="fill:#fff;fill-opacity:1;stroke:none;stroke-width:1.25;stroke-linecap:butt;stroke-linejoin:miter;stroke-miterlimit:4;stroke-opacity:1" transform="translate(-125 -377.362)"/><path d="M125 527.362h500v150H125z" style="fill:#ce1126;fill-opacity:1;stroke:none;stroke-width:1.25;stroke-linecap:butt;stroke-linejoin:miter;stroke-miterlimit:4;stroke-opacity:1" transform="translate(-125 -377.362)"/><path d="M125 602.362h500v75H125z" style="fill:#3a75c4;fill-opacity:1;stroke:none;stroke-width:1.25;stroke-linecap:butt;stroke-linejoin:miter;stroke-miterlimit:4;stroke-opacity:1" transform="translate(-125 -377.362)"/><path d="m125 677.362 250-150-250-150z" style="fill:#3d8e33;fill-opacity:1;fill-rule:evenodd;stroke:none;stroke-width:.25pt;stroke-linecap:butt;stroke-linejoin:miter;stroke-opacity:1" transform="translate(-125 -377.362)"/><path d="M302.786 421.471a89.675 89.675 0 1 1-179.35 0 89.675 89.675 0 1 1 179.35 0" style="fill:#fff;fill-opacity:1;stroke:none;stroke-width:1.25;stroke-linecap:butt;stroke-linejoin:miter;stroke-miterlimit:4;stroke-opacity:1" transform="matrix(.75272 0 0 .75272 -75.412 -167.249)"/><path d="M302.786 421.471a89.675 89.675 0 1 1-179.35 0 89.675 89.675 0 1 1 179.35 0" style="fill:#3d8e33;fill-opacity:1;stroke:none;stroke-width:1.25;stroke-linecap:butt;stroke-linejoin:miter;stroke-miterlimit:4;stroke-opacity:1" transform="matrix(.75272 0 0 .75272 -45.412 -167.249)"/><path d="M186.313 571.251h9.082l2.805-8.637 2.806 8.637h9.082l-7.347 5.338 2.806 8.637-7.347-5.337-7.346 5.337 2.805-8.637z" style="fill:#fff;fill-opacity:1;fill-rule:evenodd;stroke:none;stroke-width:1pt;stroke-linecap:butt;stroke-linejoin:miter;stroke-opacity:1" transform="translate(-98.2 -376.801)"/><path d="M186.313 571.251h9.082l2.805-8.637 2.806 8.637h9.082l-7.347 5.338 2.806 8.637-7.347-5.337-7.346 5.337 2.805-8.637z" style="fill:#fff;fill-opacity:1;fill-rule:evenodd;stroke:none;stroke-width:1pt;stroke-linecap:butt;stroke-linejoin:miter;stroke-opacity:1" transform="translate(-98.2 -473.426)"/><path d="M186.313 571.251h9.082l2.805-8.637 2.806 8.637h9.082l-7.347 5.338 2.806 8.637-7.347-5.337-7.346 5.337 2.805-8.637z" style="fill:#fff;fill-opacity:1;fill-rule:evenodd;stroke:none;stroke-width:1pt;stroke-linecap:butt;stroke-linejoin:miter;stroke-opacity:1" transform="translate(-98.2 -441.218)"/><path d="M186.313 571.251h9.082l2.805-8.637 2.806 8.637h9.082l-7.347 5.338 2.806 8.637-7.347-5.337-7.346 5.337 2.805-8.637z" style="fill:#fff;fill-opacity:1;fill-rule:evenodd;stroke:none;stroke-width:1pt;stroke-linecap:butt;stroke-linejoin:miter;stroke-opacity:1" transform="translate(-98.2 -409.01)"/></svg>