<svg xmlns="http://www.w3.org/2000/svg" xmlns:xlink="http://www.w3.org/1999/xlink" width="900" height="600" viewBox="-72 -48 144 96"><defs><path id="b" d="M-12-2h24v4h-24z"/><g id="a"><path d="M-12-2h11v4h-11zM1-2h11v4H1z"/></g></defs><rect width="100%" height="100%" x="-50%" y="-50%" fill="#fff"/><g transform="rotate(56.31)"><use xlink:href="#a" transform="translate(0 -38)"/><use xlink:href="#b" transform="translate(0 -44)"/><use xlink:href="#a" transform="translate(0 -50)"/><use xlink:href="#b" transform="translate(0 38)"/><use xlink:href="#a" transform="translate(0 44)"/><use xlink:href="#b" transform="translate(0 50)"/></g><g transform="rotate(-56.31)"><use xlink:href="#b" transform="translate(0 -38)"/><use xlink:href="#b" transform="translate(0 -44)"/><use xlink:href="#b" transform="translate(0 -50)"/><use xlink:href="#a" transform="translate(0 38)"/><use xlink:href="#a" transform="translate(0 44)"/><use xlink:href="#a" transform="translate(0 50)"/><path fill="#ce1126" d="M0 24a24 24 0 0 0 0-48 18 18 0 0 0 0 36"/><path fill="#003f87" d="M0-24A12 12 0 0 0 0 0a12 12 0 0 1 0 24 24 24 0 0 1 0-48"/></g></svg>