<svg xmlns="http://www.w3.org/2000/svg" xmlns:xlink="http://www.w3.org/1999/xlink" width="600" height="300" viewBox="0 0 2000 1000"><defs><path id="b" d="M0-76.45C4-76.5 5.5-79 5.5-82c0-4-5.5-23.05-5.5-23.05S-5.5-86-5.5-82c0 3 1.5 5.55 5.5 5.55"/><path id="d" d="M-1 15C-1 5 8-.14 15.072-.14c9.528 0 14.601 5.683 14.601 13.122 0 4.217-.775 6.863-2.724 10.899 0 0-15.717 32.606-21.836 45.217-.763 1.573-1.009 3.363-1.009 5.989 0 4.053 3.942 7.367 8.074 7.468 3.768.094 7.873-3.504 7.873-7.603 0-4.98-2.59-7.2-5.248-7.2-3.272 0-4.576 1.342-4.576 3.634 0 1.597.773 2.288 1.884 2.288 2.806 0 2.019-3.768 2.019-3.768 1.394.304 2.539 1.725 1.884 3.498 1.02.227 1.974.76 2.725 1.615-.752.728-1.615 1.29-2.725 1.48.657 2.165-.221 3.223-2.12 3.668.383-.833.396-1.599.27-2.322-2.99.848-7.57-.501-7.57-5.652 0-5.113 3.557-9.42 10.228-8.343-1.587-.757-2.394-2.306-2.557-4.037 1.21.47 2.557.538 2.557.538-.78-1.372-1.863-2.554-1.817-5.248 1.237.56 2.385 1.6 3.97.942-2.487-4.883.568-11.6 8.343-13.188-2.845 3.327-4.239 6.92-4.239 10.497 0 11.592 3.23 13.54 3.23 21.599 0 3.371-1.737 7.013-5.181 9.487v-.134c2.276.608 3.734 1.726 4.572 3.245-5.2 1.47-12.759 1.444-16.818-.15C4.216 86.864.96 83.292 0 81.48s-2.823-8.364 0-14.264c3.09-6.457 17.661-37.277 22.204-46.966.964-2.055 1.548-4.235 1.548-6.595 0-5.934-5.45-8.007-8.546-8.007-3.7 0-7.468 2.813-7.468 6.325 0 2.226 1.21 3.566 2.96 3.566 4.184 0 3.93-3.55 3.095-5.786 2.604 1.167 4.117 3.252 3.701 5.45 1.474.201 2.877.899 4.172 2.355-1.019 1.283-2.261 2.253-4.172 2.288.835 3.41-1.454 4.852-3.7 5.652.71-2.503 1.177-5.383-3.096-5.383-3.115 0-5.568-.538-6.998-2.557-.084 2.691-.336 13.323-.336 13.323-.18 3.995 5.36 3.88 8.882 2.691-1.33 4.602-4.054 7.09-10.362 6.46 1.53.64 3.162 2.076 3.162 4.844C5.046 48.622 2 52.772 0 54l-1-39z"/><path id="e" d="M0-35.599s4.753-3.984 6.367-1.986C8.963-34.37-1.615-18.36-1.615-12.722-1.615-3.467 4.575-.95 12.22.371 17.35 1.258 25.7.001 25.7.001c-1.572-2.109-2.595-2.73-5.245-2.898 2.95-1.528 5.954-4.844 5.954-10.007 0-7.962-3.286-11.243-3.286-20.22 0-4.979 4.093-11.317 4.093-11.317-7.234.722-10.82 7.404-8.78 12.745-1.151.165-2.197-.094-3.095-.942-.53 1.48.307 3.198 1.426 4.678-.902.481-1.564.193-3-.103.136 1.525 1.052 3.146 3.294 4.67-6.504-1.684-10.506 2.838-10.506 7.572 0 3.576 2.512 6.139 4.967 6.139.793 0 1.959-.326 2.617-.816.463.984.224 2.301-.253 3.286 1.8-.475 2.941-1.541 2.128-3.76 1.383-.127 2.482-.593 3.23-1.48-.758-.969-1.907-1.526-3.23-1.48 1.007-2.073-.115-3.233-1.749-4.173 0 0 1.04 4.172-1.615 4.172-1.193 0-2.28-.388-2.28-2.142 0-1.528 1.338-3.645 4.433-3.51s5.605 2.129 5.605 7.058c0 4.547-3.677 6.808-8.52 6.954-4.37.135-7.667-2.226-7.667-6.722 0-5.983 8.659-19.622 8.659-24.954 0-4-3.607-6.234-7.135-6.234-4.576 0-8.436 4.52-8.436 4.52L-.003-35.6z"/></defs><path fill="#00afca" d="M0 0h2000v1000H0z"/><use xlink:href="#a" width="2000" height="1000" transform="matrix(-1 0 0 1 240 0)"/><use xlink:href="#b" width="1000" height="500" fill="#fec50c" transform="matrix(1.96064 .39 -.39 1.96064 1080.472 420)"/><use xlink:href="#b" width="1000" height="500" fill="#fec50c" transform="rotate(22.5 -515.498 2925.951)scale(1.99905)"/><use xlink:href="#b" width="1000" height="500" fill="#fec50c" transform="rotate(33.75 -152.038 1990.92)scale(1.99905)"/><use xlink:href="#b" width="1000" height="500" fill="#fec50c" transform="rotate(45 33.253 1514.245)scale(1.99905)"/><use xlink:href="#b" width="1000" height="500" fill="#fec50c" transform="rotate(56.25 147.355 1220.71)scale(1.99905)"/><use xlink:href="#b" width="1000" height="500" fill="#fec50c" transform="rotate(67.5 225.95 1018.52)scale(1.99905)"/><use xlink:href="#b" width="1000" height="500" fill="#fec50c" transform="rotate(78.75 284.35 868.28)scale(1.99905)"/><use xlink:href="#b" width="1000" height="500" fill="#fec50c" transform="rotate(90 330.236 750.236)scale(1.99905)"/><use xlink:href="#b" width="1000" height="500" fill="#fec50c" transform="rotate(101.25 367.894 653.36)scale(1.99905)"/><use xlink:href="#b" width="1000" height="500" fill="#fec50c" transform="rotate(112.5 399.919 570.974)scale(1.99905)"/><use xlink:href="#b" width="1000" height="500" fill="#fec50c" transform="rotate(123.75 427.989 498.762)scale(1.99905)"/><use xlink:href="#b" width="1000" height="500" fill="#fec50c" transform="rotate(135 453.251 433.773)scale(1.99905)"/><use xlink:href="#b" width="1000" height="500" fill="#fec50c" transform="rotate(146.25 476.533 373.879)scale(1.99905)"/><use xlink:href="#b" width="1000" height="500" fill="#fec50c" transform="rotate(157.5 498.464 317.46)scale(1.99905)"/><use xlink:href="#b" width="1000" height="500" fill="#fec50c" transform="rotate(-146.25 603.939 46.121)scale(1.99905)"/><use xlink:href="#b" width="1000" height="500" fill="#fec50c" transform="rotate(-135 627.221 -13.773)scale(1.99905)"/><use xlink:href="#b" width="1000" height="500" fill="#fec50c" transform="rotate(-123.75 652.484 -78.762)scale(1.99905)"/><use xlink:href="#b" width="1000" height="500" fill="#fec50c" transform="rotate(-112.5 680.554 -150.974)scale(1.99905)"/><use xlink:href="#b" width="1000" height="500" fill="#fec50c" transform="rotate(-101.25 712.579 -233.36)scale(1.99905)"/><use xlink:href="#b" width="1000" height="500" fill="#fec50c" transform="matrix(0 -1.99905 1.99905 0 1080.472 420)"/><use xlink:href="#b" width="1000" height="500" fill="#fec50c" transform="rotate(-78.75 796.122 -448.279)scale(1.99905)"/><use xlink:href="#b" width="1000" height="500" fill="#fec50c" transform="rotate(-67.5 854.524 -598.52)scale(1.99905)"/><use xlink:href="#b" width="1000" height="500" fill="#fec50c" transform="rotate(-56.25 933.12 -800.71)scale(1.99905)"/><use xlink:href="#b" width="1000" height="500" fill="#fec50c" transform="rotate(-45 1047.223 -1094.244)scale(1.99905)"/><circle r="68.7" fill="#fec50c" transform="translate(1080.3 420.171)scale(1.95851)"/><use xlink:href="#b" width="1000" height="500" fill="#fec50c" transform="matrix(1.99905 0 0 1.99905 1080.472 420)"/><use xlink:href="#b" width="1000" height="500" fill="#fec50c" transform="rotate(168.75 519.553 263.209)scale(1.99905)"/><use xlink:href="#b" width="1000" height="500" fill="#fec50c" transform="rotate(179.921 540.236 210)scale(1.99905)"/><use xlink:href="#b" width="1000" height="500" fill="#fec50c" transform="rotate(-168.75 560.92 156.792)scale(1.99905)"/><use xlink:href="#b" width="1000" height="500" fill="#fec50c" transform="rotate(-157.5 582.008 102.54)scale(1.99905)"/><use xlink:href="#b" width="1000" height="500" fill="#fec50c" transform="rotate(-33.75 1232.516 -1570.917)scale(1.99905)"/><use xlink:href="#b" width="1000" height="500" fill="#fec50c" transform="rotate(-22.5 1595.984 -2505.946)scale(1.99905)"/><use xlink:href="#b" width="1000" height="500" fill="#fec50c" transform="matrix(1.96064 -.39 .39 1.96064 1080.472 420)"/><path fill="#fec50c" fill-rule="evenodd" d="m1075.8 654.95-2.322 4.643-2.58 5.933-1.547 2.838-1.29 2.58-1.032 2.063-1.29 1.29-3.095-2.58-3.353-2.321-3.612-1.806-3.869-1.548-4.127-1.032-4.128-1.031-4.127-.774-4.385-.516-9.029-.774-9.028-.258-8.77-.516-8.256-1.032-4.643-.774-4.385-1.032-2.322-.773-2.321-.774-2.064-1.032-1.806-1.032-2.837-1.806-2.838-2.063-3.095-2.322-2.838-2.58-5.933-5.675-5.933-5.675-5.933-5.417-5.417-4.901-2.58-1.806-2.579-1.805-2.322-1.032-2.321-.774-4.386-1.032-3.869-1.29-3.87-1.29-3.869-1.805-3.353-1.548-3.354-2.064-3.095-2.063-2.838-2.064-3.095-2.322-2.58-2.321-2.58-2.58-2.579-2.58-4.901-5.416-4.643-5.676-9.287-12.124-9.802-12.382-5.675-5.933-5.933-5.933-3.354-3.095-3.353-2.838-3.612-2.58-3.869-2.837-.774.258-.774.774-.774 1.032-.515 1.29-.774 2.321-.258 1.032-1.806-.774-1.548-.774-1.805-.773-1.548-.516h-3.354l-1.805.516-1.806.773 1.806 2.322 2.321 3.096 2.322 3.61 2.064 3.87 2.063 4.128 1.548 3.869.516 2.064.516 1.548.258 1.805v1.548h-13.93l2.064 3.096 2.322 3.095 2.58 3.096 2.837 2.837 2.837 2.838 2.838 2.837 2.837 2.322 2.58 1.805-2.838.258-3.87.258-3.868.516-2.838.258 2.322 2.064 2.837 2.064 3.096 2.321 3.353 2.322 3.353 2.063 3.354 1.806 3.095 1.032 2.838.774 1.29.258 1.032.258.773.258.516.516.258.258v1.031l-.258.516-.516 1.548-.258 1.548-.258 1.032v.773l.258 1.29.258 1.032.516.516.774.516 1.032.516 1.29.258 1.29.516 1.29.516 1.29.516 1.031.773.258.258v.516l-.258.258-1.032.774-1.032.774-1.031 1.032-1.032 1.29v1.031l-.258 1.032.258 1.29.258 1.548 4.385 1.548 4.643 1.547 2.064.516 2.064.774 1.547.774 1.29.774-8.512 6.707 2.321 2.063 2.838 1.548 3.611 1.806 3.612 1.29 4.127 1.29 3.87.773 3.353.774h3.095l-2.837 2.064-3.612 2.322-3.87 2.063-2.837 2.064 2.58 1.806 3.611 1.805 4.128 2.064 4.9 2.322 11.35 4.9 12.383 4.902 12.898 4.643 12.64 4.128 5.675 1.805 5.16 1.29 4.642 1.29 4.128.774-8.255-.774-7.739-1.032-7.738-1.29-7.223-1.548-7.223-2.063-6.965-2.064-6.707-2.322-6.449-2.58-12.64-5.158-11.866-5.16-5.675-2.321-5.675-2.322-5.417-2.063-5.417-2.064 1.29-.774 1.548-.516 2.063-.774 2.322-.516 4.901-1.548 4.385-1.547-7.738-1.29-10.576-2.064-5.16-1.548-4.385-1.29-1.806-.773-1.547-.774-1.29-.774-.774-.774v-.258l.258-.258.774-.258.774-.516 2.063-.773 2.838-.774 6.19-1.806 5.16-1.806-12.64-2.321-9.802-1.548-3.612-.774-2.837-1.032-1.032-.516-1.032-.774-.774-.516-.516-.773.774-.516 2.322-.516 3.353-.516 3.87-.774 4.127-.516 3.611-1.032 1.806-.516 1.548-.516 1.032-.773 1.031-.774-2.063-.774-2.064-.774-2.58-.516-2.58-.516-5.932-.774-5.933-.774-3.096-.774-2.837-.515-2.838-1.032-2.837-1.032-2.58-1.29-2.321-1.806-2.064-1.805-1.548-2.322.516-.258 1.032-.258h1.29l2.063.258 4.644.258 5.159.258 5.675.516h7.223l2.063-.258 1.548-.516 1.032-.516-6.191-2.58-8.255-3.61-4.643-2.322-4.901-2.322-4.901-2.58-4.901-2.58-4.644-2.837-4.385-3.095-4.127-3.096-3.612-3.095-1.547-1.806-1.548-1.548-1.032-1.547-1.032-1.806-1.032-1.548-.515-1.805-.258-1.548-.258-1.806h1.805l2.064.258 2.064.774 2.063.774 4.128 2.58 4.643 2.579 2.064 1.29 2.321 1.29 2.322 1.031 2.064.774 2.321.516 2.064.258h2.321l2.064-.774-6.19-4.643-6.966-5.933-7.996-6.965-7.997-7.739-7.997-8.254-7.48-8.255-3.354-4.385-3.353-4.127-2.838-4.128-2.58-3.87-.515-1.03v-1.807l.257-.773.258-.774.774-.516.774-.774.774-.516 1.032-.258 1.032-.258h2.063l1.29.258 1.032.258 1.032.774.774.774 4.643 4.643 5.417 5.417 5.675 5.933 6.191 5.933 6.191 5.417 6.191 5.16 3.096 2.063 2.837 1.806 3.096 1.547 2.837 1.032-2.064-1.29-2.321-2.321-3.096-3.096-3.353-3.87-7.481-9.028-8.255-10.576-4.127-5.675-3.87-5.675-3.61-5.675-3.612-5.417-3.096-5.16-2.58-4.642-1.805-4.386-1.548-3.611-.258-1.29v-2.064l.258-.773.516-.774.516-.774.516-.516.774-.516 1.806-.516 1.547-.516h3.612l1.032.258.773.258 1.032.516.774.774 2.064 1.806 2.063 2.58 4.644 5.932 4.9 7.48 5.676 7.998 5.933 8.254 3.095 3.87 3.096 3.869 3.353 3.353 3.612 3.096-4.386-8.513-4.9-9.802-2.58-5.417-2.322-5.417-2.322-5.675-2.063-5.675-1.806-5.933-1.806-5.676-1.29-5.675-1.031-5.675-.516-5.417-.258-5.16.258-2.579.258-2.321.258-2.322.516-2.321.516-.774.258-.774.773-.774.516-.516 1.806-.774 1.806-.516h1.805l1.548.258.774.258.516.258.258.516.258.774 2.58 8.254 2.321 8.771 2.322 9.029 2.321 8.77 2.322 8.77 3.095 8.255 1.548 3.87 1.806 3.87 2.064 3.61 2.321 3.612-1.548-7.48-1.031-6.708-1.032-6.19-.516-5.676-.516-4.901-.258-4.385.258-3.612.258-3.095.516-2.58.774-2.064.516-.773.516-.774.515-.516.774-.516.774-.258h2.322l2.063.774 2.064 1.032 1.806 8.254 1.806 7.997 2.063 7.48 2.322 7.223 2.58 7.223 2.837 7.223 3.095 7.48 3.612 7.482 2.58 4.9 2.58 4.902 2.837 4.901 2.837 4.901 3.096 4.644 3.095 4.643 3.354 4.643 3.353 4.643 6.191 7.739 6.449 7.223 6.707 7.223 6.965 6.706 7.222 6.707 7.481 6.191 7.739 5.933 7.997 5.675 5.417 3.612 5.675 3.353 5.933 3.354 5.675 3.095 9.028 4.386 8.771 4.127 9.287 3.611 9.286 3.354 8.77 2.837 9.03 2.322 9.286 2.063 9.028 1.806 9.545 1.29 9.286 1.032 9.544.774zM1099.3 733.37l4.385.516 2.064.774.516.258v.258h-.516l-.516.258-4.127.774h-3.354l-10.834-.774-13.156-.258-14.188-.258-14.704.258-6.965.258-6.964.516-6.191.515-5.933.516-4.902.774-4.385 1.032-1.548.516-1.547.516-1.29.516-1.032.774.516-2.58 1.032-2.58-1.806.516-1.806.516-1.547.774-1.548.774-1.29.774-1.032 1.032-.774 1.29-.258 1.29-.774-1.806-.515-1.548-.258-1.806-.258-1.548.258-1.29.258-1.547.258-1.29.773-1.29.516-1.032 1.032-1.29 1.032-1.031 1.032-1.032 2.837-1.806 3.096-1.805c1.671 1.013 3.55 1.748 5.417 2.321 1.618.215 3.544-.047 5.417-.516 3.148 2.773 7.358 2.431 10.06-.516.493-.537 1.089-1.361 1.29-2.063.427-1.488.344-3.437 0-5.16l3.095-.257 3.612-.516 3.87-1.032 4.126-1.032 4.128-.774 3.87-1.032 3.61-.516 3.096-.258-1.29 1.032-3.095 2.322-3.612 2.837-2.58 1.806 3.354.774 2.838.516-2.064 2.321-2.064 2.322-2.063 2.322-1.548 2.063 2.064.774 2.063.516 2.322.516h4.643l2.322-.516 2.321-.516 1.806-1.032 2.064 1.032 2.063.774 2.064.516 2.064.516 4.643.516 4.901.516z"/><path fill="#fec50c" fill-rule="evenodd" d="m1020.1 718.67.774.258.774.258.258.774.258.774-.258.774-.258.773-.774.516h-1.806l-.516-.516-.516-.773-.258-.774.258-.774.516-.774.516-.258z"/><path fill="#fec50c" fill-rule="evenodd" d="m1019.8 719.7.516.258.258.516-.258.516-.516.258-.516-.258-.258-.516.258-.516z"/><path fill="#fec50c" d="M1020 723.25a2.365 2.365 0 1 1 0-4.73 2.365 2.365 0 1 1 0 4.73"/><path fill="#fec50c" fill-rule="evenodd" d="m1212.2 746.01-1.806.774-1.805.258-1.548.258-1.29-.258-1.29-.258-1.29-.516-1.031-.516-1.29-.774-2.064-1.548-2.063-1.547-1.032-.774-1.29-.516-1.032-.258h-1.29l-2.321 4.901-3.096 6.191-1.032 1.548-1.031 1.29-1.032.774-1.032.773-1.29.516h-1.29l-1.29-.516-1.547-.774-.516-.773-.516-.774-.516-1.032-.516-1.29-.516-2.321-.258-1.548-1.548 1.29-1.547 1.805-1.29 2.064-1.548 2.322-1.806 2.321-1.805 1.806-1.032 1.032-1.29.774-1.29.515-1.547.516h-.774l-1.29.258-1.29-.258-1.032-.516-3.095-3.611-3.354-3.611-2.321 3.611-2.58 3.096-1.29 1.29-1.29 1.29-1.29 1.03-1.289.775-1.032.516-1.29.258h-1.29l-1.031-.258-1.032-.516-.774-.774-1.032-1.29-.516-1.548-.516-1.547-1.031-2.58-.258-1.29-.516-1.032-.516-.516h-.516l-6.965 11.35-1.032 1.032-1.806.774-2.063.516-2.064.516h-2.321l-1.806-.516-.516-.258-.774-.774-.258-.516v-1.032l1.032-11.35-.774.258-1.032.516-1.032.516-1.031 1.032-2.064 2.322-2.322 2.58-2.321 2.837-2.838 2.321-1.29 1.032-1.29 1.032-1.547.774-1.29.258-1.806.258-1.29-.258-.515-.258-.516-.516-.258-.774v-.774l.258-3.353.516-3.354.258-1.805-.258-1.548-.258-1.548-1.032-1.806-1.548 2.322-2.58 3.354-3.095 3.353-3.353 3.353-1.806 1.29-1.806 1.29-1.548.516-1.29.516-.515-.258h-.774l-.516-.516-.258-.258-.516-.774-.258-.774v-1.032l-.258-1.29.258-9.802-6.449 4.386-7.739 4.9-1.805.775-2.064 1.031-1.806.516-2.063.516-1.806.516h-1.806l-1.806-.258-1.547-.516.774-2.063.773-1.806.774-1.806 1.032-1.548 1.032-1.547 1.032-1.548 1.29-1.29 1.29-1.29 2.837-2.063 3.353-2.064 3.354-1.548 3.87-1.29 3.869-1.032 4.385-.773 4.385-.774 4.385-.516 9.545-.516 9.802-.258h19.605l4.901-.258 4.644-.258 4.643-.258 4.385-.516 4.386-.774 3.869-.774 3.87-1.031 3.61-1.548 3.354-1.548 2.838-2.064 2.837-2.063 2.322-2.838-2.58-5.159 2.064-.258 2.064-.516 2.063-1.032 1.806-1.29.774-.515.774-.774.516-1.032.516-.774.257-1.032v-1.805l-.515-1.032 4.385-.774 4.643-.516 4.901-.258h5.16l10.575.516 10.834.774 11.092 1.29 10.834 1.031 10.576 1.032 9.803.516v3.612l-.258 1.547-.516 1.548-.516 1.548-.516 1.29-.774 1.031-1.032 1.29-1.805 1.806-2.322 1.548-2.322 1.032-2.58.515-2.837.516-2.837-.258-2.58-.258-2.837-.773-2.58-1.29-2.58-1.29-2.063-1.806-2.064-2.063v4.385l-.774 5.675-.516 2.837-.773 2.58-.516 1.032-.774.774-.516.774-.774.516m-207.4-24.248 5.933 2.58 1.548-1.29 2.063-1.548 2.322-1.29 2.064-1.29 7.738-3.095 6.707-3.096 3.354-1.29 2.837-1.548 2.838-1.547 2.321-1.548 5.934-3.87 5.933-3.869 5.675-3.611 5.159-3.612 3.87-3.095 3.095-2.838 3.353-3.095 3.612-3.354 1.29-1.29 1.547-1.031 1.806-1.032 2.063-1.032 4.386-2.063 4.385-1.548 5.933-1.548 6.449-1.548 6.707-1.29 7.48-1.29 9.03-1.031 9.028-1.29 9.286-1.032 9.029-1.547 3.095-.516 2.838-.774 3.095-.774 3.096-.774 3.095-3.87 4.901-5.417 3.354-3.353 3.87-3.095 4.385-3.354 5.159-3.353 7.738-4.643 8.255-4.128 8.513-4.385 8.254-3.87 7.74-3.869 7.222-3.611 5.933-3.096 4.643-3.095 1.29-3.87 1.806-3.869 2.321-3.87 2.838-3.869 3.095-4.127 3.87-4.127 4.127-4.644 5.16-4.9 4.642-4.128 4.902-4.127 2.58-1.806 2.579-1.806 2.837-1.548 2.838-1.547 2.837-1.29 2.838-1.032 3.095-.774 2.838-.774 3.095-.258 2.838-.258 3.095.258 2.838.516-.258 3.096-.774 3.095-1.032 3.096-1.29 3.353-1.805 3.354-2.322 3.353-2.837 3.611-3.354 3.612 2.58-.258 2.321-.516 1.806-.516 1.806-.774 1.548-.516 1.805-.516 2.322-.258 2.58-.258.257 1.806v1.806l-.258 1.805-.515 1.548-.774 1.548-1.032 1.548-1.032 1.29-1.29 1.29-5.417 5.159-5.417 4.9 3.095.259 3.354 1.032 3.353 1.031 2.58.516-3.096 2.322-3.61 2.321-3.612 2.322-4.128 2.322-4.127 2.321-4.127 2.58-4.128 2.837-3.869 3.096 1.806.258 2.321 1.032 1.032.258 1.032.515.774.258.774-.258-5.16 2.838-6.448 3.095-3.096 1.548-2.58 1.548-1.29.774-.773.774-.516.774-.516.773.258 1.032.516.774 1.032.774.774.774-.258 1.032-.516.774-1.032.773-1.032.774-2.322 1.29-3.095 1.29-3.096 1.032-2.837 1.032-2.064 1.031-1.547.774 5.159 5.16-1.806 1.805-1.806 1.29-1.547.774-1.806.774-3.612.516h-4.9l.515 2.321.774 2.322.516 2.58.516 2.579-4.385 3.353-5.418 3.87-5.933 3.87-6.706 3.869-3.87 2.063-3.87 1.806-4.127 1.548-4.385 1.547-4.643 1.548-4.901 1.032-5.16 1.032-5.417.774 9.545.258h8.255l7.738-.774 6.965-.774 6.45-1.29 5.674-1.548 5.675-2.063 5.417-2.064 7.223-3.353 6.965-3.87 6.707-4.127 6.965-4.127-4.128-2.064-4.127-1.29-2.064-.774-2.063-1.032-2.322-1.031-2.321-1.29 2.063-1.548 2.322-1.032 2.837-1.032 3.096-.773 6.19-1.29 6.45-.774 5.675-.774 5.16-.516 2.063-.516 1.805-.516 1.032-.516.774-.774-.258-.258-.516-.515-.774-.258-1.031-.516-2.838-.516-3.611-.516-3.612-.258-3.611-.516-3.096-.774-2.063-.774 6.964-1.547 6.965-1.548 6.191-1.29 5.16-1.29 4.385-1.29 3.87-1.547 1.805-.774 1.29-.774 1.29-.774 1.031-1.032-.258-.258-.516-.516-1.031-.258-1.29-.258-3.354-.258h-3.869l-4.127-.258-3.87-.258-3.353-.515-2.064-.516 1.806-.774 1.806-.774 6.19-1.806 5.418-1.548 4.9-1.29 4.644-1.547 4.901-1.548 4.901-2.064 2.322-1.29 2.064-1.29.774-.773.774-1.032.773-.774.258-.774-.258-.774-.773-.515-.774-.258h-7.223l-3.354.258h-4.643l-1.29-.258-1.031-.516-1.032-.516 10.318-6.707 9.544-6.191 8.513-5.417 7.48-5.16 3.096-2.579 2.838-2.58 2.321-2.58 2.064-2.579 1.548-2.837 1.29-2.838.773-3.095v-3.354h-1.805l-1.806.258-2.064.774-2.064.774-4.127 2.58-4.385 2.58-2.322 1.289-2.063 1.29-2.322 1.032-2.322.773-2.063.516-2.064.258h-2.322l-2.063-.774 6.19-4.643 6.966-5.933 7.996-6.965 7.997-7.738 7.997-8.255 7.48-8.255 3.354-4.385 3.353-4.127 2.838-4.127 2.58-3.87.515-1.032.258-.774-.258-1.031-.258-.774-.258-.774-.773-.516-.774-.774-.774-.258-1.032-.516-1.032-.258h-2.063l-1.032.258-1.29.258-.774.774-1.032.774-4.643 4.643-5.417 5.417-5.675 5.933-6.191 5.933-6.191 5.417-6.191 5.16-3.096 2.063-2.837 1.806-3.096 1.548-2.58 1.29 1.806-1.548 2.322-2.322 3.096-3.095 3.353-3.87 7.48-9.028 8.255-10.576 4.128-5.675 3.87-5.675 3.868-5.418 3.354-5.675 3.095-5.159 2.58-4.643 2.064-4.385 1.29-3.612.257-1.29v-2.063l-.258-.774-.515-.774-.516-.774-.516-.516-.774-.258-1.548-.774-1.806-.516h-3.611l-1.032.258-.774.258-1.032.516-.773.774-2.064 1.806-2.064 2.58-4.643 5.932-4.901 7.481-5.417 7.997-5.933 8.255-3.354 3.869-3.095 3.87-3.354 3.353-3.611 3.095 4.643-8.512 4.643-9.803 2.58-5.417 2.322-5.417 2.321-5.675 2.064-5.675 1.806-5.933 1.805-5.675 1.29-5.675 1.032-5.675.516-5.418.258-5.159-.258-2.58-.258-2.32-.258-2.323-.516-2.321-.258-.774-.516-.774-.774-.774-.516-.516-1.805-.774-1.806-.515h-1.806l-1.548.258-.516.257-.773.258-.258.516-.258.774-2.58 8.513-2.322 8.512-2.321 9.029-2.322 8.77-2.321 8.771-3.096 8.255-1.548 4.127-1.805 3.611-2.064 3.87-2.322 3.353 1.548-7.48 1.032-6.707 1.032-6.191.516-5.676.516-4.9.258-4.386-.258-3.611-.258-3.096-.516-2.58-.774-2.063-.516-.774-.516-.774-.516-.516-.774-.258-.774-.258-.773-.258h-.774l-.774.258-2.064.516-2.064 1.032-1.805 8.254-1.806 7.997-2.064 7.481-2.321 7.223-2.58 7.223-2.837 7.222-3.096 7.481-3.611 7.481-2.58 4.901-2.58 4.901-2.837 4.902-2.837 4.9-3.096 4.644-3.095 4.643-3.354 4.643-3.353 4.644-6.191 7.738-6.45 7.223-6.706 7.223-6.965 6.707-7.223 6.707-7.48 6.19-7.74 5.934-7.996 5.675-5.417 3.611-5.675 3.612-5.675 3.353-5.675 3.353-9.029 4.128-9.028 4.127-9.287 3.353-9.286 3.354-7.74 2.321-7.738 2.322-7.997 1.806-7.996 1.805-7.997 1.29-8.255 1.032-7.996 1.032-8.255.516-.774.258-.774.258-1.547.773-1.806 1.29-2.58 2.322-3.353 3.095-4.127 4.128-4.902 5.417-4.643 5.417-5.417 5.933-2.838 2.837-2.837 2.838-3.354 2.58-3.353 2.58-2.58 1.805-2.58 1.548-2.837 1.29-2.837 1.29-6.191 2.579-6.191 2.321-6.191 2.322-5.417 2.064-2.322 1.031-2.322 1.29-2.063 1.032-1.548 1.032-1.548 1.548-1.29 1.29-.773 1.29-.516 1.29-.258 1.805v1.032"/><path fill="#fec50c" stroke="#00afca" stroke-width=".381" d="M1019.8 721.47a.965.965 0 1 1-.001-1.93.965.965 0 0 1 .001 1.93z"/><use xlink:href="#c" width="2000" height="1000" transform="matrix(1 0 0 -1 0 1000)"/><use xlink:href="#a" width="2000" height="1000" transform="rotate(180 120 500)"/><use xlink:href="#a" width="2000" height="1000" transform="matrix(1 0 0 -1 0 1000)"/><use xlink:href="#c" width="2000" height="1000" transform="rotate(180 120 500)"/><use xlink:href="#a" width="2000" height="1000" transform="rotate(180 120 322.54)"/><use xlink:href="#a" width="2000" height="1000" transform="matrix(1 0 0 -1 0 645.08)"/><use xlink:href="#d" id="a" width="1000" height="500" x="0" y="0" fill="#fec50c" transform="matrix(-2.02202 0 0 -2.02696 120 322.54)"/><use xlink:href="#a" width="2000" height="1000" transform="translate(0 354.92)"/><use xlink:href="#a" width="2000" height="1000" transform="matrix(-1 0 0 1 240 354.92)"/><use xlink:href="#c" width="2000" height="1000" transform="matrix(-1 0 0 1 240 0)"/><use xlink:href="#e" id="c" width="1000" height="500" x="0" y="0" fill="#fec50c" transform="matrix(-2.02202 0 0 2.02696 120 145.08)"/></svg>