<svg xmlns="http://www.w3.org/2000/svg" width="600" height="400"><path fill="#de3131" d="M0 0h600v400H0z"/><g fill="#008400" stroke="#000" stroke-linecap="square" stroke-width=".64"><path stroke-width="1" d="m283.203 176.855-54.346.05 61.866 44.921 9.277-6.738-37.5-27.246 17.139-.049z"/><path stroke-width="1" d="m316.821 176.873-16.84-51.67-23.606 72.718 9.276 6.741 14.324-44.084 5.343 16.285z"/><path stroke-width="1" d="m327.193 208.852 43.938-31.984-76.454.021-3.545 10.905h46.353l-13.837 10.114z"/><path stroke-width="1" d="m299.985 228.597 43.995 31.904-23.645-72.706-11.466-.001 14.323 44.084-13.894-10.034z"/><path stroke-width="1" d="m272.798 208.823-16.747 51.7 61.84-44.955-3.541-10.906-37.5 27.246 5.249-16.315z"/></g></svg>