<svg xmlns="http://www.w3.org/2000/svg" width="900" height="450" viewBox="0 0 240 120"><path fill="#dc171c" d="M0 0h240v120H0z"/><path fill="#47aecf" d="M80 0h80v120H80z"/><g fill="#fbea0f"><circle cx="40" cy="41" r="11"/><circle cx="40" cy="36" r="12" fill="#dc171c"/><path d="M35 23a5 5 0 0 0 10 0c0-2-1.25-2.25-1.25-3s.75-1.75-.75-3c.75 1.25-.5 1.5-.5 2.75S43 21 43 22a1 1 0 0 1-2 0c0-1 1-2 1-3.5s-.25-2-1-3.25S39 13 40 12c-1.5.5-.75 2.5-.75 3.75s-1 2-1 3.5S39 21 39 22a1 1 0 0 1-2 0c0-1 .5-1 .5-2.25s-1.25-1.5-.5-2.75c-1.5 1.25-.75 2.25-.75 3S35 21 35 23"/><circle cx="40" cy="38" r="8"/><circle cx="40" cy="78" r="10"/><path d="M18 54h10v48H18zm34 0h10v48H52zm-22 0 10 6 10-6zm0 8v4h20v-4zm0 28v4h20v-4zm0 6 10 6 10-6z"/></g><circle cx="40" cy="72.7" r="2" fill="#dc171c"/><circle cx="40" cy="83.3" r="2" fill="#dc171c"/><path fill="none" stroke="#dc171c" d="M40 67.5A5.25 5.25 0 0 1 40 78a5.25 5.25 0 0 0 0 10.5"/></svg>