<svg xmlns="http://www.w3.org/2000/svg" width="900" height="600" version="1.0"><path fill="#cf142b" d="M450 0h450v600H450z"/><path fill="#fff" d="M0 0h450v600H0z"/><path d="M100.103 91.325c0 .962-1.089 1.741-2.432 1.741s-2.432-.78-2.432-1.741 1.089-1.741 2.432-1.741 2.432.78 2.432 1.741" style="fill:#f1eeee;fill-opacity:1;fill-rule:evenodd;stroke:none;stroke-width:1pt;stroke-linecap:butt;stroke-linejoin:miter;stroke-opacity:1"/><path d="M24 82.908v44.184h44.182c0 7.362 7.364 14.726 14.728 14.726V186h44.18v-44.182c7.364 0 14.728-7.364 14.728-14.726H186V82.908h-44.182c0-7.362-7.364-14.726-14.728-14.726V24H82.91v44.182c-7.364 0-14.728 7.364-14.728 14.726z" style="font-size:12px;fill:#e60d2e;fill-opacity:1;fill-rule:evenodd;stroke-width:1pt"/><path d="M25.474 84.382v41.236h44.182c0 7.362 7.361 14.729 14.726 14.729v44.182h41.236v-44.182c7.365 0 14.726-7.367 14.726-14.729h44.182V84.382h-44.182c0-7.362-7.361-14.73-14.726-14.73v-44.18H84.382v44.18c-7.365 0-14.726 7.368-14.726 14.73z" style="font-size:12px;fill:#cf142b;fill-opacity:1;fill-rule:evenodd;stroke-width:1pt"/><path d="M26.946 85.852v38.294h44.18c0 7.361 7.364 14.726 14.728 14.726v44.182h38.29v-44.182c7.364 0 14.728-7.365 14.728-14.726h44.18V85.852h-44.18c0-7.362-7.364-14.726-14.729-14.726V26.944H85.854v44.182c-7.364 0-14.728 7.364-14.728 14.726z" style="font-size:12px;fill:#96877d;fill-opacity:1;fill-rule:evenodd;stroke-width:1pt"/><path d="M28.42 87.326v35.346H72.6c0 7.362 7.364 14.729 14.728 14.729v44.181h35.344v-44.181c7.364 0 14.728-7.367 14.728-14.73h44.18V87.327H137.4c0-7.362-7.364-14.727-14.728-14.727V28.418H87.328v44.181c-7.364 0-14.728 7.365-14.728 14.727z" style="font-size:12px;fill:#ccc;fill-opacity:1;fill-rule:evenodd;stroke-width:1pt"/><path d="M87.692 68.949c2.589 2.588.49 8.882-4.686 14.059s-11.47 7.274-14.058 4.686-.49-8.883 4.686-14.059 11.47-7.274 14.058-4.686" style="fill:#d0d0d0;fill-opacity:1;fill-rule:evenodd;stroke:none;stroke-width:1pt;stroke-linecap:butt;stroke-linejoin:miter;stroke-opacity:1"/><path d="M84.569 72.073c2.588 2.588 1.888 7.484-1.562 10.935-3.451 3.45-8.347 4.15-10.935 1.562s-1.888-7.484 1.562-10.935c3.451-3.45 8.347-4.15 10.935-1.562" style="fill:#96877d;fill-opacity:1;fill-rule:evenodd;stroke:none;stroke-width:1pt;stroke-linecap:butt;stroke-linejoin:miter;stroke-opacity:1"/><path d="m71.551 79.883 1.042-1.041 4.165 2.082-2.083-4.165 1.042-1.042 4.165 8.331z" style="fill:#d0d0d0;fill-opacity:1;fill-rule:evenodd;stroke:none;stroke-width:1pt;stroke-linecap:butt;stroke-linejoin:miter;stroke-opacity:1"/><path d="M2.947 107.08H4.42v8.836H2.947z" style="font-size:12px;fill:#d0d0d0;fill-opacity:1;fill-rule:evenodd;stroke-width:1pt" transform="rotate(-45.001)"/><path d="M141.051 87.693c-2.588 2.589-8.882.49-14.058-4.686s-7.274-11.47-4.686-14.059 8.882-.49 14.058 4.687c5.176 5.176 7.274 11.47 4.686 14.058" style="fill:#d0d0d0;fill-opacity:1;fill-rule:evenodd;stroke:none;stroke-width:1pt;stroke-linecap:butt;stroke-linejoin:miter;stroke-opacity:1"/><path d="M137.927 84.57c-2.588 2.587-7.483 1.888-10.934-1.563s-4.15-8.346-1.562-10.934c2.588-2.589 7.484-1.89 10.934 1.562 3.451 3.45 4.15 8.346 1.562 10.934" style="fill:#96877d;fill-opacity:1;fill-rule:evenodd;stroke:none;stroke-width:1pt;stroke-linecap:butt;stroke-linejoin:miter;stroke-opacity:1"/><path d="m130.117 71.552 1.041 1.041-2.082 4.166 4.165-2.083 1.041 1.042-8.33 4.165z" style="fill:#d0d0d0;fill-opacity:1;fill-rule:evenodd;stroke:none;stroke-width:1pt;stroke-linecap:butt;stroke-linejoin:miter;stroke-opacity:1"/><path d="M151.438-41.414h1.473v8.836h-1.473z" style="font-size:12px;fill:#d0d0d0;fill-opacity:1;fill-rule:evenodd;stroke-width:1pt" transform="rotate(45.001)"/><path d="M122.307 141.054c-2.588-2.589-.49-8.883 4.686-14.06 5.176-5.175 11.47-7.274 14.059-4.685 2.588 2.588.49 8.882-4.687 14.058-5.176 5.177-11.47 7.275-14.058 4.687" style="fill:#d0d0d0;fill-opacity:1;fill-rule:evenodd;stroke:none;stroke-width:1pt;stroke-linecap:butt;stroke-linejoin:miter;stroke-opacity:1"/><path d="M125.43 137.93c-2.587-2.589-1.888-7.484 1.563-10.935s8.346-4.15 10.934-1.562 1.889 7.484-1.562 10.934c-3.45 3.451-8.346 4.15-10.934 1.563" style="fill:#96877d;fill-opacity:1;fill-rule:evenodd;stroke:none;stroke-width:1pt;stroke-linecap:butt;stroke-linejoin:miter;stroke-opacity:1"/><path d="m138.448 130.12-1.041 1.04-4.166-2.082 2.083 4.166-1.041 1.041-4.166-8.331z" style="fill:#d0d0d0;fill-opacity:1;fill-rule:evenodd;stroke:none;stroke-width:1pt;stroke-linecap:butt;stroke-linejoin:miter;stroke-opacity:1"/><path d="M2.944-189.906h1.473v8.836H2.944z" style="font-size:12px;fill:#d0d0d0;fill-opacity:1;fill-rule:evenodd;stroke-width:1pt" transform="rotate(134.999)"/><path d="M68.948 122.309c2.588-2.588 8.882-.49 14.059 4.686s7.274 11.47 4.686 14.059-8.883.49-14.059-4.686-7.274-11.47-4.686-14.059" style="fill:#d0d0d0;fill-opacity:1;fill-rule:evenodd;stroke:none;stroke-width:1pt;stroke-linecap:butt;stroke-linejoin:miter;stroke-opacity:1"/><path d="M72.072 125.433c2.588-2.588 7.484-1.889 10.934 1.562 3.451 3.451 4.15 8.347 1.562 10.935s-7.483 1.889-10.934-1.562-4.15-8.347-1.562-10.935" style="fill:#96877d;fill-opacity:1;fill-rule:evenodd;stroke:none;stroke-width:1pt;stroke-linecap:butt;stroke-linejoin:miter;stroke-opacity:1"/><path d="m79.882 138.45-1.041-1.04 2.083-4.167-4.166 2.083-1.041-1.041 8.33-4.166z" style="fill:#d0d0d0;fill-opacity:1;fill-rule:evenodd;stroke:none;stroke-width:1pt;stroke-linecap:butt;stroke-linejoin:miter;stroke-opacity:1"/><path d="M-145.548-41.412h1.473v8.836h-1.473z" style="font-size:12px;fill:#d0d0d0;fill-opacity:1;fill-rule:evenodd;stroke-width:1pt" transform="rotate(-134.999)"/><path d="M135.927 105c.004 17.084-13.844 30.935-30.927 30.935s-30.931-13.85-30.927-30.934C74.069 87.917 87.917 74.066 105 74.066S135.93 87.917 135.927 105z" style="fill:none;fill-opacity:1;fill-rule:evenodd;stroke:#96877d;stroke-width:.49999934;stroke-linecap:butt;stroke-linejoin:miter;stroke-opacity:1"/><path d="M128.563 105.001c.003 13.016-10.548 23.57-23.563 23.57-13.016 0-23.567-10.554-23.564-23.57-.003-13.016 10.548-23.57 23.564-23.57s23.566 10.554 23.563 23.57z" style="fill:none;fill-opacity:1;fill-rule:evenodd;stroke:#96877d;stroke-width:.49999934;stroke-linecap:butt;stroke-linejoin:miter;stroke-opacity:1"/><path d="M94.69 130.037a1.473 1.473 0 1 1-2.945 0 1.473 1.473 0 1 1 2.946 0M118.254 130.037a1.473 1.473 0 1 1-2.946 0 1.473 1.473 0 1 1 2.946 0M104.018 130.038v1.535h-1.964c-1.963 0-1.963 1.536 0 1.536h1.964v1.535c.007 1.592 1.714 1.784 1.839.124l.124-1.66h1.964c1.964 0 1.964-1.535 0-1.535h-1.964v-1.535c0-1.536-1.963-1.536-1.963 0" style="fill:#000;fill-opacity:1;fill-rule:evenodd;stroke:none;stroke-width:1pt;stroke-linecap:butt;stroke-linejoin:miter;stroke-opacity:1"/><path d="M-632.686 780.63c2.62-.663 6.945-.126 6.945-.126s.379 1.8-.757 2.4c1.262.725 5.808.504 5.808.504s-1.768 1.358-2.652 1.894c1.642.158 3.662 2.273 3.662 2.273s-3.788.631-5.43-.252c1.01 2.02.884 3.788.884 3.788s-6.124-1.516-8.333-5.556M-642.913 777.221c-1.484 3.662-12.375-3.157-12.375-3.157s4.798 7.608 11.996 8.46M-778.905 847.048h127.532l9.849-7.829-16.415-8.839-25.254-8.586-10.102-5.556-18.688 1.01-15.657 8.334-21.466 2.526-5.05 5.808-15.91 1.263-25.002-.505 41.67 6.566-34.346-1.768z" style="fill:#96877d;fill-opacity:1;fill-rule:evenodd;stroke:#000;stroke-width:1px;stroke-linecap:butt;stroke-linejoin:miter;stroke-opacity:1" transform="matrix(.19723 0 0 .19723 246.593 -44.46)"/><path d="M-710.215 810.43c-15.973-8.586-20.645 12.564-27.526 17.678 9.28 1.578 16.288-7.135 24.243-11.365 6.033 16.426 15.531 5.556 15.531 5.556s9.912 15.72 23.108 8.586c3.598 2.715 7.576.253 7.576.253s4.798.884 5.808-1.263c2.525.884 5.303-2.273 5.303-2.273s5.493.064 6.566-2.777c8.145 1.452 18.94-16.668 18.94-16.668l3.284-6.313 4.798-1.01s.316-3.157-2.273-3.031c-.063-1.894-1.705-2.904-4.04-2.525.441-1.137-1.263-2.02-1.263-2.02-4.546 1.136-4.798 12.626-4.798 12.626s-7.955 6.061-10.86 7.576c-.126-6.566-11.111-15.468-8.838-19.698 2.272-4.23 9.407 6.503 15.657 4.546s9.321-10.087 9.596-16.415c-1.767-4.293-6.06-11.364-6.06-11.364l-4.041-.253-3.536-8.586s-7.45 4.861-7.323 9.091 7.828 7.83 7.828 7.83-4.441 2.775-8.586 1.514c-.379 4.293 5.05 3.473 7.071 3.536 1.01 3.093 4.04 4.798 4.04 4.798s1.895 4.735-3.03 4.293-10.734-11.788-17.677-6.566c-7.387 5.556 3.283 15.658 3.283 15.658s-6.503 3.409-10.354 12.121c-15.72-13.258-24.939-7.07-42.427-3.535z" style="fill:#96877d;fill-opacity:1;fill-rule:evenodd;stroke:#000;stroke-width:1px;stroke-linecap:butt;stroke-linejoin:miter;stroke-opacity:1" transform="matrix(.19723 0 0 .19723 246.593 -44.46)"/><path d="M-733.196 787.954c6.566 6.187 1.987 16.472 4.546 18.435 2.715 2.084 6.566-1.01 6.566-1.01 6.882 1.831 19.193-2.02 19.193-2.02 5.418 3.03 3.28-1.441 6.566-1.263 2.904 7.45 12.627 6.061 12.627 6.061s-8.902-9.091-14.395-11.617c-4.23 2.526-16.541 2.904-18.688 2.526-2.392-.422-.884-3.346-2.02-5.051 4.527-4.406.947-15.342-1.515-19.446-10.035-6.684-22.022 4.77-12.88 13.385zM-776.848 769.44c-8.26 2.232-22.59-10.67-29.286-5.714s-3.572 17.142.893 23.214c4.361 5.932-6.384 8.08-9.286 11.607-2.728 3.316.893 7.143.893 7.143l3.036 1.964-.536 4.464 1.607 5.358s1.473 1.294 1.964-.358c1.384 1.384.146 5.386 3.572 5.893-1.227-2.563.893-9.643.893-9.643s5.982.447 7.5-2.142-1.429-8.215-1.429-8.215h1.786c-2.01-1.384-2.679-5.535-2.679-5.535s8.304-2.634 8.214-8.929-13.482-12.991-8.571-16.25c5.446-3.616 14.91 9.375 23.036 3.393 8.04-5.92 2.857-.179 2.857-.179s3.675-8.27-4.464-6.071zM-734.206 681.004c-11.048-4.609-33.62-4.893-46.214-11.112-5.525.348-7.987 4.704-8.208 6.44-5.777-.284-9.691 8.807-8.839 10.607-10.512-4.262-15.405 12.374-11.995 15.783-8.965.38-7.86 11.838-8.713 15.026-2.872 6.977.64 9.324 6.314 6.819.852 3.03-.341 4.728-2.905 5.303 15.562 17.808 24.357-10.959 38.007-10.859 17.044-4.99 23.739-13.384 23.739-13.384l6.692.883z" style="fill:#96877d;fill-opacity:1;fill-rule:evenodd;stroke:#000;stroke-width:1px;stroke-linecap:butt;stroke-linejoin:miter;stroke-opacity:1" transform="matrix(.19723 0 0 .19723 246.593 -44.46)"/><path d="M136.75 57.993c0 8.996-7.293 16.289-16.29 16.289-8.995 0-16.288-7.293-16.288-16.289s7.293-16.288 16.289-16.288 16.288 7.292 16.288 16.288z" style="opacity:1;fill:#96877d;fill-opacity:1;fill-rule:nonzero;stroke:#000;stroke-width:1;stroke-linecap:round;stroke-miterlimit:4;stroke-dasharray:none;stroke-dashoffset:0;stroke-opacity:1" transform="matrix(.19723 0 0 .19723 80.844 75.899)"/><path d="M-748.6 796.54c-10.102-1.83-26.833-12.311-28.537-26.011 9.407-36.934 57.932-17.647 62.119-45.426-1.067-18.328 2.215-36.47 12.38-51.801 4.734-5.998 10.858-7.576 10.858-7.576s1.097 3.911-.505 6.566c8.019-.884 19.004 3.598 26.517 4.04 2.21 4.483 2.02 6.124 1.515 8.839s-3.535 2.02-3.535 2.02c-1.96 1.86-4.316 3.751-9.597 2.778-3.977 3.03-12.374 3.788-12.374 3.788s17.551 18.499 14.647 24.244c3.662 1.705 9.091 9.849 9.091 9.849s11.996-6.314 15.91-12.122c6.945 0 18.31 7.26 23.991 8.081a1891 1891 0 0 1 13.89 11.365s-8.27 5.43-11.87-1.768c-4.356.379-13.763-10.039-26.768-6.819-.38 11.554-13.132 19.698-13.132 19.698s11.903-1.666 18.435 2.273c6.755 5.682 16.667 13.385 16.667 13.385l8.84 15.152s-8.082 1.389-11.112-9.092c-3.03 8.46-3.157-5.24-15.153-11.616-3.661.442-5.492.694-8.586-1.768-8.65 2.336-18.877 7.387-31.062 6.06-8.65 2.716-14.963 9.913-23.739 13.89-8.775 3.978-11.364 2.02-11.364 2.02l-7.071.253c-1.02 4.257-.442 10.733-4.293 11.87 2.462 2.651-1.768 13.952-6.061 15.91 2.02 7.26 7.939 9.482 14.142 13.131 0 0 5.493-2.525 9.091.758 3.6 3.283 7.324 12.627 7.324 12.627s-7.49.506-9.849-.505-2.588-3.472-5.303-2.778c-17.11-15.215-26.133-9.163-27.78-12.627-1.687-3.55 4.041-12.816 2.273-18.688z" style="fill:#96877d;fill-opacity:1;fill-rule:evenodd;stroke:#000;stroke-width:1px;stroke-linecap:butt;stroke-linejoin:miter;stroke-opacity:1" transform="matrix(.19723 0 0 .19723 246.593 -44.46)"/><path d="M-789.706 728.726c.893-1.116 7.143 1.25 7.143 1.25l11.429 7.142 23.214 15 8.214 11.965-14.821-4.822-20.536-17.678-11.071-7.143s-4.464-4.598-3.572-5.714zM-652.384 766.74c-8.018-2.02-27.779 21.972-27.779 21.972l14.9 16.162s.442-27.527 12.88-38.133z" style="fill:#96877d;fill-opacity:1;fill-rule:evenodd;stroke:#000;stroke-width:1px;stroke-linecap:butt;stroke-linejoin:miter;stroke-opacity:1" transform="matrix(.19723 0 0 .19723 246.593 -44.46)"/><path d="M-750.116 699.818c-4.372 5.603-4.764 16.898.925 21.454.536 6.855 6.365 20.684 10.944 21.983 5.004 1.418 25.002 6.06 32.83 4.798-1.497 12.688 8.46 22.873 17.678 29.547-.067 1.139-.083 2.528.982 3.936 1.032 1.363 5.876 1.613 6.09.862 2.147 3.02 12.553 4.345 13.307 3 .734-1.309-15.305-12.472-18.864-15.88-3.022-5.638-8.747-18.204-10.101-28.284-7.872-9.365-21.387-9.178-21.387-9.178l.426-18.348.758-20.708-7.324-3.788s1.477-.673 2.273-1.516c1.779.765 5.121-2.808 5.556-3.818 1.685.597 3.21.589 3.505-.312.26-.795.561-4.334 1.176-6.162 5.525-4.865-.807-15.18-9.255-15.35-8.359-.169-10.234 9.972-10.073 10.743.785 3.181.616 4.785 0 5.555-.63.788-3.536 2.526-3.536 2.526s-4.672-2.21-10.354 0-12.059 5.177-12.374 8.839c-2.589.378-6.819 3.725-7.577 6.566-2.272-.442-5.24 1.452-10.101 9.344-8.713 3.85-9.218 22.475-9.218 22.475s-2.351 3.425-2.462 5.24c-.11 1.816.82 3.473 1.957 3.157.127 1.2 1.705 2.273 2.4 1.894.252 1.2 1.985 1.87 3.03 1.705.095.82 3.456.616 3.725-.126.296-.819-.333-4.913.063-5.24.363-.3 3.157 1.83 3.914 1.262s-.144-2.387-.568-3.093c-.379-.632-2.778-1.326-3.346-4.293s1.515-7.072 1.515-7.072 9.47-7.45 10.544-13.826c7.134.694 10.906-5.54 12.942-7.892z" style="fill:#96877d;fill-opacity:1;fill-rule:evenodd;stroke:#000;stroke-width:1px;stroke-linecap:butt;stroke-linejoin:miter;stroke-opacity:1" transform="matrix(.19723 0 0 .19723 246.593 -44.46)"/><path d="M-766.594 673.112c2.162-5.287 9.975-4.798 9.975-4.798s2.794-7.355 13.322-2.967c3.961-3.062 14.394 1.326 14.394 1.326s3.907-5.206 9.029-4.61c9.486 1.106 11.064 9.802 10.48 11.302-5.193 1.31-14.189-4.22-21.024-2.652-3.993 2.257-10.464 4.64-12.88 7.892-6.329.663-13.084-5.824-23.296-5.493zM-746.833 681.888c2.368-1.452 8.176-4.005 12.122-.884 4.135 4.451 10.48 8.586 10.48 8.586l7.198 3.03 3.283 2.021-2.147 32.956c-6.662-6.816-12.905-8.01-17.678-16.036-2.557-3.44-.6-11.711-5.05-17.172s-9.186-9.155-8.208-12.501z" style="fill:#96877d;fill-opacity:1;fill-rule:evenodd;stroke:#000;stroke-width:1px;stroke-linecap:butt;stroke-linejoin:miter;stroke-opacity:1" transform="matrix(.19723 0 0 .19723 246.593 -44.46)"/><path d="M-729.527 691.404s3.772-.714 4.821.179c1.317.446 2.59.826 2.947 1.964 1.428.424 2.41 1.16 2.41 2.232 1.34.357 1.876 2.768 1.876 2.768l-1.25 1.875s-1.429-1.34-1.608-2.768c-.903-.445-2.901-.915-3.392-2.232-1.563-.156-2.567-.96-2.858-2.321-1.45.334-2.946-1.697-2.946-1.697z" style="fill:#96877d;fill-opacity:1;fill-rule:evenodd;stroke:#000;stroke-width:1px;stroke-linecap:butt;stroke-linejoin:miter;stroke-opacity:1" transform="matrix(.19723 0 0 .19723 246.593 -44.46)"/><path d="M-697.588 669.892c-2.146-2.399-5.935-.631-5.935-.631l-10.101 17.425-4.42 3.662-.378 13.637 3.662 12.753-1.263 9.85s5.087-4.773 5.682-7.45c.568-2.558-1.894-10.86-1.894-10.86s-3.03-5.177.631-14.773c3.662-9.597 11.996-17.552 14.016-23.613z" style="fill:#96877d;fill-opacity:1;fill-rule:evenodd;stroke:#000;stroke-width:1px;stroke-linecap:butt;stroke-linejoin:miter;stroke-opacity:1" transform="matrix(.19723 0 0 .19723 246.593 -44.46)"/><path d="M-672.661 685.423s-15.772 22.54-41.594 30.558c-7.135 1.704-4.546-16.668-4.546-16.668l-1.768.505s-3.977 17.994 5.556 18.183c25.948-5.114 45.418-32.432 45.418-32.432zM-661.98 814.976s-2.4 1.767-5.556 0c-1.641-3.789-6.06-4.041-6.06-4.041s-2.847-8.178-7.324-5.808c-.695-4.23-5.556-2.02-5.556-2.02s-.126-6.125-5.809-5.304c1.894-7.008-7.828-6.566-7.828-6.566s-.316-7.892-14.647-6.313c30.872-13.827 55.305 21.718 55.305 21.718M-647.333 818.006s7.134 8.018 10.86 8.081c3.724.063 4.04-7.828 4.04-7.828s1.2 3.409 3.03 2.525c-.189 2.399 2.273 3.03 2.273 3.03s-6.44 14.963-24.748.758M-703.144 821.036l-2.525 10.355s-3.22 2.904-2.273 3.535 6.061-1.01 6.061-1.01 7.955-.947 10.354-3.283c1.642 3.725 5.303 4.04 5.303 4.04s.253-1.578-.252-2.525c1.768.316 3.283-.252 3.283-.252s1.01-2.905-1.263-4.041c.253-2.147 1.326-4.04-2.525-3.788-2.841 3.03-9.85 6.503-11.617 5.303s6.945-5.05 4.546-10.101" style="fill:#96877d;fill-opacity:1;fill-rule:evenodd;stroke:#000;stroke-width:1px;stroke-linecap:butt;stroke-linejoin:miter;stroke-opacity:1" transform="matrix(.19723 0 0 .19723 246.593 -44.46)"/><path d="m67.278 53.542-1.037-.093-.043.48q-.015.165.051.249t.28.128l-.006.072-.893-.08.006-.072a.5.5 0 0 0 .23-.02.25.25 0 0 0 .117-.095.44.44 0 0 0 .054-.196l.043-.48-.83-.075a.9.9 0 0 0-.266.002.18.18 0 0 0-.091.074.4.4 0 0 0-.063.175l-.008.095-.072-.006.101-1.133.072.007-.008.093q-.015.164.074.246.058.053.295.074l1.704.152a.9.9 0 0 0 .267-.001.18.18 0 0 0 .091-.073.36.36 0 0 0 .063-.174l.008-.094.072.007-.176 1.962-.582-.026.006-.068a.8.8 0 0 0 .282-.094.4.4 0 0 0 .14-.154.9.9 0 0 0 .067-.3zm-.833 4.54q-.192.479-.695.684a1.35 1.35 0 0 1-1.048-.01q-.56-.225-.79-.726a1.23 1.23 0 0 1-.028-1.004q.203-.507.701-.71.499-.201 1.073.028.585.234.796.78.184.476-.01.957m-.119-.088a.7.7 0 0 0-.033-.627q-.207-.37-.794-.605-.602-.24-1.03-.112a.69.69 0 0 0-.455.424.77.77 0 0 0 .042.68q.18.334.763.566.631.252 1.04.127.327-.1.467-.453m-5.174 3.367.448-.546 1.526.092a4 4 0 0 1 .136-.17l.04-.045-.595-.488q-.192-.158-.274-.154-.114.002-.208.117l-.066.08-.056-.046.72-.877.056.046-.063.077q-.107.13-.068.255.022.07.196.214L64.267 61q.193.159.275.155.114-.005.21-.12l.063-.078.056.046-.612.746q-.268.326-.442.442a.7.7 0 0 1-.391.119.6.6 0 0 1-.393-.142.62.62 0 0 1-.227-.392q-.037-.236.117-.542l-.934-.06q-.322-.02-.474.03a.8.8 0 0 0-.307.202zm2.245-.59-.07.083q-.241.293-.236.545.005.254.201.414.192.157.41.136a.56.56 0 0 0 .381-.22q.072-.087.166-.26zm-8.13 6.528-.275-.792.067-.017q.178.276.376.389.285.163.645.07.49-.126.646-.58.129-.381.013-.833a1.6 1.6 0 0 0-.314-.634 1.03 1.03 0 0 0-.485-.348.9.9 0 0 0-.509-.02 1.1 1.1 0 0 0-.493.279l.19.741q.05.193.095.245t.114.068.225-.025l.018.072-.993.255-.018-.072.047-.012q.147-.038.177-.15.02-.08-.033-.286l-.202-.785q.187-.174.385-.283a2 2 0 0 1 .457-.176q.744-.19 1.252.187.381.283.501.75.088.339.004.691a1.43 1.43 0 0 1-.383.704 1.34 1.34 0 0 1-.624.335q-.14.036-.26.043a2.4 2.4 0 0 1-.35-.017.5.5 0 0 0-.153-.003.08.08 0 0 0-.053.049q-.015.04.002.137zm-3.995-1.653 1.024.065.205-.406q.077-.15.081-.225.004-.06-.05-.11t-.245-.076l.004-.072.833.053-.005.072q-.168.02-.22.063-.104.087-.244.366l-1.067 2.116-.069-.004-.78-2.257q-.095-.272-.18-.357a.4.4 0 0 0-.247-.105l.005-.072 1.043.066-.005.072q-.159-.002-.217.04a.14.14 0 0 0-.062.105.8.8 0 0 0 .06.276zm.046.148.38 1.096.528-1.038zm-4.438-1.472-.056-.036.467-.592 1.918.727-.026.067-.093-.035q-.157-.06-.264.017-.06.045-.14.256l-.606 1.598q-.087.232-.059.31.04.107.182.16l.093.036-.026.067-1.121-.425.025-.067a.7.7 0 0 0 .291.068.24.24 0 0 0 .145-.055q.053-.048.135-.269l.59-1.556a.5.5 0 0 0 .05-.22.14.14 0 0 0-.046-.081q-.04-.036-.278-.127l-.181-.068q-.285-.108-.416-.11a.56.56 0 0 0-.267.07q-.135.07-.317.265m-3.045-2.016-.043-.05.612-.439 1.642 1.23-.044.057-.08-.06q-.135-.1-.257-.056-.07.026-.206.207l-1.025 1.368q-.148.198-.142.281.01.114.13.205l.08.06-.044.057-.96-.719.044-.057a.7.7 0 0 0 .26.146.24.24 0 0 0 .155-.014q.063-.03.204-.22l.997-1.332a.5.5 0 0 0 .109-.197.14.14 0 0 0-.022-.092q-.027-.045-.232-.198l-.155-.116q-.243-.183-.369-.22a.56.56 0 0 0-.275-.008q-.15.03-.379.167m-2.217-2.33.606.828.443-.102a.7.7 0 0 0 .225-.083q.05-.035.052-.11.004-.073-.099-.235l.059-.043.492.673-.058.043q-.122-.116-.189-.129-.135-.024-.437.047l-2.31.535-.04-.055 1.234-2.045q.148-.246.159-.366a.4.4 0 0 0-.078-.257l.058-.043.617.844-.058.042q-.1-.123-.169-.141a.14.14 0 0 0-.121.02.8.8 0 0 0-.173.223zm-.084.13-.599.994 1.136-.26zm-2.795-1.547-.222-.684 1.388-2.154-1.452.473q-.232.075-.273.146-.056.094-.008.243l.029.087-.069.022-.285-.876.069-.023.029.09q.051.158.17.195.072.021.284-.048l2.123-.69.022.066-1.488 2.32 1.551-.504q.233-.076.273-.144.056-.096.008-.243l-.03-.09.07-.022.285.877-.07.022-.027-.087q-.054-.162-.171-.197-.074-.022-.285.047l-1.751.57q-.093.151-.115.222a.6.6 0 0 0-.022.19q0 .06.036.17zm-1.21-6.896.62-.04v.074a.8.8 0 0 0-.233.063.4.4 0 0 0-.164.164.56.56 0 0 0-.049.265l.006.373 2.023-.034q.244-.004.304-.058.081-.075.078-.23l-.001-.091.072-.001.019 1.122-.072.002-.002-.094q-.003-.167-.105-.237-.064-.041-.286-.038l-2.023.034.005.318a.9.9 0 0 0 .032.264.36.36 0 0 0 .145.171.6.6 0 0 0 .287.081v.074l-.62-.02zm3.48-3.789-.19.682-1.434.531a4 4 0 0 1-.055.21l-.019.058.741.206q.242.068.314.03.103-.048.143-.191l.028-.1.07.02-.305 1.093-.07-.02.027-.096q.044-.16-.04-.26-.048-.055-.266-.117l-1.649-.458q-.24-.068-.314-.03-.102.05-.143.194l-.027.096-.07-.019.26-.93q.112-.406.225-.582a.7.7 0 0 1 .31-.267.6.6 0 0 1 .416-.03.62.62 0 0 1 .366.268q.13.201.112.543l.879-.323q.302-.11.421-.218a.8.8 0 0 0 .2-.309zm-1.816 1.448.03-.105q.102-.366-.004-.595a.53.53 0 0 0-.351-.297.55.55 0 0 0-.43.042.56.56 0 0 0-.26.354q-.03.11-.047.305zm1.042-5.397.506-.773.06.04-.027.042a.58.58 0 0 0-.033.368q.026.113.12.315l.491 1.086.556.363q.204.135.285.122.109-.018.197-.151l.047-.072.06.04-.616.94-.06-.04.05-.078q.093-.14.046-.255-.028-.069-.215-.192l-.524-.343h-1.326a2 2 0 0 0-.3.012.7.7 0 0 0-.203.095.3.3 0 0 0-.078.084l-.06-.04.62-.947.06.04-.031.049a.34.34 0 0 0-.057.165.14.14 0 0 0 .066.135q.058.038.277.04l1.017.004-.398-.882q-.09-.198-.165-.247a.17.17 0 0 0-.097-.03.2.2 0 0 0-.1.03.4.4 0 0 0-.108.12z" style="font-size:4px;font-family:Times New Roman" transform="rotate(161.478 104.94 105.099)scale(2)"/></svg>