<svg xmlns="http://www.w3.org/2000/svg" width="1000" height="500" version="1.0"><path d="M0 1.339h1000V500H0z" style="font-size:12px;fill:#fc3d32;fill-rule:evenodd;stroke-width:1pt;fill-opacity:1"/><path d="M250 333.779h750V500H250z" style="font-size:12px;fill:#009543;fill-rule:evenodd;stroke-width:1pt;fill-opacity:1"/><path d="M250 0h750v166.22H250z" style="font-size:12px;fill:#fff;fill-rule:evenodd;stroke-width:1pt"/><g style="font-size:12px;stroke:#ef2d28"><g transform="matrix(.23319 0 0 .20791 158.988 -10.975)"><rect width="138.189" height="85.039" x="17.717" y="467.717" rx="11.491" ry="12.086" style="fill:#fff;fill-rule:evenodd;stroke-width:1.07231998pt"/><rect width="131.102" height="77.953" x="21.26" y="471.26" rx="10.901" ry="11.078" style="fill:#fff;fill-rule:evenodd;stroke-width:1pt"/><path d="m64.967 396.067 9.722.443.442 5.745 7.955 5.303 6.188-6.629 7.513 5.303-7.071 5.746 1.768 7.955 8.838-.442v10.607l-7.07-.442-3.536 6.629 7.955 7.513-6.187 6.187-6.63-6.629-9.723 2.652.442 9.723-10.606.884-1.326-9.281-8.84-4.862-4.86 6.629-7.514-4.861 4.42-7.513-5.304-4.862H34.03l-.442-13.7 7.513.884 5.304-7.955-6.188-6.187 7.956-7.071 5.745 5.745 9.723-1.768z" style="fill:#fff;fill-rule:evenodd;stroke-width:1pt" transform="matrix(.68108 0 0 .5852 37.972 260.74)"/><ellipse cx="68.944" cy="426.783" rx="11.049" ry="9.944" style="fill:#fff;fill-rule:evenodd;stroke-width:1pt" transform="matrix(.6582 0 0 .70224 38.845 209.625)"/><g style="fill:#fff"><path d="m38.976 474.803-10.63 10.63" style="fill-rule:evenodd;stroke-width:1pt"/><path d="m38.976 474.803-10.63 10.63" style="fill-rule:evenodd;stroke-width:1pt" transform="translate(7.087)"/><path d="m38.976 474.803-10.63 10.63" style="fill-rule:evenodd;stroke-width:1pt" transform="translate(14.173)"/><path d="m38.976 474.803-10.63 10.63" style="fill-rule:evenodd;stroke-width:1pt" transform="translate(21.26)"/><path d="m38.976 474.803-10.63 10.63" style="fill-rule:evenodd;stroke-width:1pt" transform="translate(28.346)"/><path d="m38.976 474.803-10.63 10.63" style="fill-rule:evenodd;stroke-width:1pt" transform="translate(35.433)"/><path d="m38.976 474.803-10.63 10.63" style="fill-rule:evenodd;stroke-width:1pt" transform="translate(42.52)"/><path d="m38.976 474.803-10.63 10.63" style="fill-rule:evenodd;stroke-width:1pt" transform="translate(49.606)"/><path d="m38.976 474.803-10.63 10.63" style="fill-rule:evenodd;stroke-width:1pt" transform="translate(56.693)"/><path d="m38.976 474.803-10.63 10.63" style="fill-rule:evenodd;stroke-width:1pt" transform="translate(63.78)"/><path d="m38.976 474.803-10.63 10.63" style="fill-rule:evenodd;stroke-width:1pt" transform="translate(70.866)"/><path d="m38.976 474.803-10.63 10.63" style="fill-rule:evenodd;stroke-width:1pt" transform="translate(77.953)"/><path d="m38.976 474.803-10.63 10.63" style="fill-rule:evenodd;stroke-width:1pt" transform="translate(49.606)"/><path d="m38.976 474.803-10.63 10.63" style="fill-rule:evenodd;stroke-width:1pt" transform="translate(85.04)"/><path d="m38.976 474.803-10.63 10.63" style="fill-rule:evenodd;stroke-width:1pt" transform="translate(92.126)"/><path d="m38.976 474.803-10.63 10.63" style="fill-rule:evenodd;stroke-width:1pt" transform="translate(99.213)"/><path d="m38.976 474.803-10.63 10.63" style="fill-rule:evenodd;stroke-width:1pt" transform="translate(106.3)"/><path d="m38.976 474.803-10.63 10.63" style="fill-rule:evenodd;stroke-width:1pt" transform="matrix(-1 0 0 1 173.622 0)"/><path d="m38.976 474.803-10.63 10.63" style="fill-rule:evenodd;stroke-width:1pt" transform="matrix(-1 0 0 1 166.536 0)"/><path d="m38.976 474.803-10.63 10.63" style="fill-rule:evenodd;stroke-width:1pt" transform="matrix(-1 0 0 1 159.449 0)"/><path d="m38.976 474.803-10.63 10.63" style="fill-rule:evenodd;stroke-width:1pt" transform="matrix(-1 0 0 1 152.362 0)"/><path d="m38.976 474.803-10.63 10.63" style="fill-rule:evenodd;stroke-width:1pt" transform="matrix(-1 0 0 1 145.276 0)"/><path d="m38.976 474.803-10.63 10.63" style="fill-rule:evenodd;stroke-width:1pt" transform="matrix(-1 0 0 1 138.19 0)"/><path d="m38.976 474.803-10.63 10.63" style="fill-rule:evenodd;stroke-width:1pt" transform="matrix(-1 0 0 1 131.102 0)"/><path d="m38.976 474.803-10.63 10.63" style="fill-rule:evenodd;stroke-width:1pt" transform="matrix(-1 0 0 1 124.016 0)"/><path d="m38.976 474.803-10.63 10.63" style="fill-rule:evenodd;stroke-width:1pt" transform="matrix(-1 0 0 1 116.93 0)"/><path d="m38.976 474.803-10.63 10.63" style="fill-rule:evenodd;stroke-width:1pt" transform="matrix(-1 0 0 1 109.843 0)"/><path d="m38.976 474.803-10.63 10.63" style="fill-rule:evenodd;stroke-width:1pt" transform="matrix(-1 0 0 1 102.756 0)"/><path d="m38.976 474.803-10.63 10.63" style="fill-rule:evenodd;stroke-width:1pt" transform="matrix(-1 0 0 1 95.67 0)"/><path d="m38.976 474.803-10.63 10.63" style="fill-rule:evenodd;stroke-width:1pt" transform="matrix(-1 0 0 1 124.016 0)"/><path d="m38.976 474.803-10.63 10.63" style="fill-rule:evenodd;stroke-width:1pt" transform="matrix(-1 0 0 1 88.583 0)"/><path d="m38.976 474.803-10.63 10.63" style="fill-rule:evenodd;stroke-width:1pt" transform="matrix(-1 0 0 1 81.496 0)"/><path d="m38.976 474.803-10.63 10.63" style="fill-rule:evenodd;stroke-width:1pt" transform="matrix(-1 0 0 1 74.41 0)"/><path d="m38.976 474.803-10.63 10.63" style="fill-rule:evenodd;stroke-width:1pt" transform="matrix(-1 0 0 1 67.323 0)"/></g><g style="fill:#fff"><path d="m38.976 474.803-10.63 10.63" style="fill-rule:evenodd;stroke-width:1pt" transform="translate(0 60.236)"/><path d="m38.976 474.803-10.63 10.63" style="fill-rule:evenodd;stroke-width:1pt" transform="translate(7.087 60.236)"/><path d="m38.976 474.803-10.63 10.63" style="fill-rule:evenodd;stroke-width:1pt" transform="translate(14.173 60.236)"/><path d="m38.976 474.803-10.63 10.63" style="fill-rule:evenodd;stroke-width:1pt" transform="translate(21.26 60.236)"/><path d="m38.976 474.803-10.63 10.63" style="fill-rule:evenodd;stroke-width:1pt" transform="translate(28.346 60.236)"/><path d="m38.976 474.803-10.63 10.63" style="fill-rule:evenodd;stroke-width:1pt" transform="translate(35.433 60.236)"/><path d="m38.976 474.803-10.63 10.63" style="fill-rule:evenodd;stroke-width:1pt" transform="translate(42.52 60.236)"/><path d="m38.976 474.803-10.63 10.63" style="fill-rule:evenodd;stroke-width:1pt" transform="translate(49.606 60.236)"/><path d="m38.976 474.803-10.63 10.63" style="fill-rule:evenodd;stroke-width:1pt" transform="translate(56.693 60.236)"/><path d="m38.976 474.803-10.63 10.63" style="fill-rule:evenodd;stroke-width:1pt" transform="translate(63.78 60.236)"/><path d="m38.976 474.803-10.63 10.63" style="fill-rule:evenodd;stroke-width:1pt" transform="translate(70.866 60.236)"/><path d="m38.976 474.803-10.63 10.63" style="fill-rule:evenodd;stroke-width:1pt" transform="translate(77.953 60.236)"/><path d="m38.976 474.803-10.63 10.63" style="fill-rule:evenodd;stroke-width:1pt" transform="translate(49.606 60.236)"/><path d="m38.976 474.803-10.63 10.63" style="fill-rule:evenodd;stroke-width:1pt" transform="translate(85.04 60.236)"/><path d="m38.976 474.803-10.63 10.63" style="fill-rule:evenodd;stroke-width:1pt" transform="translate(92.126 60.236)"/><path d="m38.976 474.803-10.63 10.63" style="fill-rule:evenodd;stroke-width:1pt" transform="translate(99.212 60.236)"/><path d="m38.976 474.803-10.63 10.63" style="fill-rule:evenodd;stroke-width:1pt" transform="translate(106.3 60.236)"/><path d="m38.976 474.803-10.63 10.63" style="fill-rule:evenodd;stroke-width:1pt" transform="matrix(-1 0 0 1 173.622 60.236)"/><path d="m38.976 474.803-10.63 10.63" style="fill-rule:evenodd;stroke-width:1pt" transform="matrix(-1 0 0 1 166.535 60.236)"/><path d="m38.976 474.803-10.63 10.63" style="fill-rule:evenodd;stroke-width:1pt" transform="matrix(-1 0 0 1 159.449 60.236)"/><path d="m38.976 474.803-10.63 10.63" style="fill-rule:evenodd;stroke-width:1pt" transform="matrix(-1 0 0 1 152.362 60.236)"/><path d="m38.976 474.803-10.63 10.63" style="fill-rule:evenodd;stroke-width:1pt" transform="matrix(-1 0 0 1 145.276 60.236)"/><path d="m38.976 474.803-10.63 10.63" style="fill-rule:evenodd;stroke-width:1pt" transform="matrix(-1 0 0 1 138.19 60.236)"/><path d="m38.976 474.803-10.63 10.63" style="fill-rule:evenodd;stroke-width:1pt" transform="matrix(-1 0 0 1 131.102 60.236)"/><path d="m38.976 474.803-10.63 10.63" style="fill-rule:evenodd;stroke-width:1pt" transform="matrix(-1 0 0 1 124.016 60.236)"/><path d="m38.976 474.803-10.63 10.63" style="fill-rule:evenodd;stroke-width:1pt" transform="matrix(-1 0 0 1 116.93 60.236)"/><path d="m38.976 474.803-10.63 10.63" style="fill-rule:evenodd;stroke-width:1pt" transform="matrix(-1 0 0 1 109.843 60.236)"/><path d="m38.976 474.803-10.63 10.63" style="fill-rule:evenodd;stroke-width:1pt" transform="matrix(-1 0 0 1 102.756 60.236)"/><path d="m38.976 474.803-10.63 10.63" style="fill-rule:evenodd;stroke-width:1pt" transform="matrix(-1 0 0 1 95.67 60.236)"/><path d="m38.976 474.803-10.63 10.63" style="fill-rule:evenodd;stroke-width:1pt" transform="matrix(-1 0 0 1 124.016 60.236)"/><path d="m38.976 474.803-10.63 10.63" style="fill-rule:evenodd;stroke-width:1pt" transform="matrix(-1 0 0 1 88.583 60.236)"/><path d="m38.976 474.803-10.63 10.63" style="fill-rule:evenodd;stroke-width:1pt" transform="matrix(-1 0 0 1 81.496 60.236)"/><path d="m38.976 474.803-10.63 10.63" style="fill-rule:evenodd;stroke-width:1pt" transform="matrix(-1 0 0 1 74.41 60.236)"/><path d="m38.976 474.803-10.63 10.63" style="fill-rule:evenodd;stroke-width:1pt" transform="matrix(-1 0 0 1 67.323 60.236)"/></g></g><g transform="matrix(.23319 0 0 .20791 50.747 -11.711)"><rect width="138.189" height="85.039" x="17.717" y="467.717" rx="11.491" ry="12.086" style="fill:#fff;fill-rule:evenodd;stroke-width:1.07231998pt"/><rect width="131.102" height="77.953" x="21.26" y="471.26" rx="10.901" ry="11.078" style="fill:#fff;fill-rule:evenodd;stroke-width:1pt"/><path d="m64.967 396.067 9.722.443.442 5.745 7.955 5.303 6.188-6.629 7.513 5.303-7.071 5.746 1.768 7.955 8.838-.442v10.607l-7.07-.442-3.536 6.629 7.955 7.513-6.187 6.187-6.63-6.629-9.723 2.652.442 9.723-10.606.884-1.326-9.281-8.84-4.862-4.86 6.629-7.514-4.861 4.42-7.513-5.304-4.862H34.03l-.442-13.7 7.513.884 5.304-7.955-6.188-6.187 7.956-7.071 5.745 5.745 9.723-1.768z" style="fill:#fff;fill-rule:evenodd;stroke-width:1pt" transform="matrix(.68108 0 0 .5852 37.972 260.74)"/><ellipse cx="68.944" cy="426.783" rx="11.049" ry="9.944" style="fill:#fff;fill-rule:evenodd;stroke-width:1pt" transform="matrix(.6582 0 0 .70224 38.845 209.625)"/><g style="fill:#fff"><path d="m38.976 474.803-10.63 10.63" style="fill-rule:evenodd;stroke-width:1pt"/><path d="m38.976 474.803-10.63 10.63" style="fill-rule:evenodd;stroke-width:1pt" transform="translate(7.087)"/><path d="m38.976 474.803-10.63 10.63" style="fill-rule:evenodd;stroke-width:1pt" transform="translate(14.173)"/><path d="m38.976 474.803-10.63 10.63" style="fill-rule:evenodd;stroke-width:1pt" transform="translate(21.26)"/><path d="m38.976 474.803-10.63 10.63" style="fill-rule:evenodd;stroke-width:1pt" transform="translate(28.346)"/><path d="m38.976 474.803-10.63 10.63" style="fill-rule:evenodd;stroke-width:1pt" transform="translate(35.433)"/><path d="m38.976 474.803-10.63 10.63" style="fill-rule:evenodd;stroke-width:1pt" transform="translate(42.52)"/><path d="m38.976 474.803-10.63 10.63" style="fill-rule:evenodd;stroke-width:1pt" transform="translate(49.606)"/><path d="m38.976 474.803-10.63 10.63" style="fill-rule:evenodd;stroke-width:1pt" transform="translate(56.693)"/><path d="m38.976 474.803-10.63 10.63" style="fill-rule:evenodd;stroke-width:1pt" transform="translate(63.78)"/><path d="m38.976 474.803-10.63 10.63" style="fill-rule:evenodd;stroke-width:1pt" transform="translate(70.866)"/><path d="m38.976 474.803-10.63 10.63" style="fill-rule:evenodd;stroke-width:1pt" transform="translate(77.953)"/><path d="m38.976 474.803-10.63 10.63" style="fill-rule:evenodd;stroke-width:1pt" transform="translate(49.606)"/><path d="m38.976 474.803-10.63 10.63" style="fill-rule:evenodd;stroke-width:1pt" transform="translate(85.04)"/><path d="m38.976 474.803-10.63 10.63" style="fill-rule:evenodd;stroke-width:1pt" transform="translate(92.126)"/><path d="m38.976 474.803-10.63 10.63" style="fill-rule:evenodd;stroke-width:1pt" transform="translate(99.213)"/><path d="m38.976 474.803-10.63 10.63" style="fill-rule:evenodd;stroke-width:1pt" transform="translate(106.3)"/><path d="m38.976 474.803-10.63 10.63" style="fill-rule:evenodd;stroke-width:1pt" transform="matrix(-1 0 0 1 173.622 0)"/><path d="m38.976 474.803-10.63 10.63" style="fill-rule:evenodd;stroke-width:1pt" transform="matrix(-1 0 0 1 166.536 0)"/><path d="m38.976 474.803-10.63 10.63" style="fill-rule:evenodd;stroke-width:1pt" transform="matrix(-1 0 0 1 159.449 0)"/><path d="m38.976 474.803-10.63 10.63" style="fill-rule:evenodd;stroke-width:1pt" transform="matrix(-1 0 0 1 152.362 0)"/><path d="m38.976 474.803-10.63 10.63" style="fill-rule:evenodd;stroke-width:1pt" transform="matrix(-1 0 0 1 145.276 0)"/><path d="m38.976 474.803-10.63 10.63" style="fill-rule:evenodd;stroke-width:1pt" transform="matrix(-1 0 0 1 138.19 0)"/><path d="m38.976 474.803-10.63 10.63" style="fill-rule:evenodd;stroke-width:1pt" transform="matrix(-1 0 0 1 131.102 0)"/><path d="m38.976 474.803-10.63 10.63" style="fill-rule:evenodd;stroke-width:1pt" transform="matrix(-1 0 0 1 124.016 0)"/><path d="m38.976 474.803-10.63 10.63" style="fill-rule:evenodd;stroke-width:1pt" transform="matrix(-1 0 0 1 116.93 0)"/><path d="m38.976 474.803-10.63 10.63" style="fill-rule:evenodd;stroke-width:1pt" transform="matrix(-1 0 0 1 109.843 0)"/><path d="m38.976 474.803-10.63 10.63" style="fill-rule:evenodd;stroke-width:1pt" transform="matrix(-1 0 0 1 102.756 0)"/><path d="m38.976 474.803-10.63 10.63" style="fill-rule:evenodd;stroke-width:1pt" transform="matrix(-1 0 0 1 95.67 0)"/><path d="m38.976 474.803-10.63 10.63" style="fill-rule:evenodd;stroke-width:1pt" transform="matrix(-1 0 0 1 124.016 0)"/><path d="m38.976 474.803-10.63 10.63" style="fill-rule:evenodd;stroke-width:1pt" transform="matrix(-1 0 0 1 88.583 0)"/><path d="m38.976 474.803-10.63 10.63" style="fill-rule:evenodd;stroke-width:1pt" transform="matrix(-1 0 0 1 81.496 0)"/><path d="m38.976 474.803-10.63 10.63" style="fill-rule:evenodd;stroke-width:1pt" transform="matrix(-1 0 0 1 74.41 0)"/><path d="m38.976 474.803-10.63 10.63" style="fill-rule:evenodd;stroke-width:1pt" transform="matrix(-1 0 0 1 67.323 0)"/></g><g style="fill:#fff"><path d="m38.976 474.803-10.63 10.63" style="fill-rule:evenodd;stroke-width:1pt" transform="translate(0 60.236)"/><path d="m38.976 474.803-10.63 10.63" style="fill-rule:evenodd;stroke-width:1pt" transform="translate(7.087 60.236)"/><path d="m38.976 474.803-10.63 10.63" style="fill-rule:evenodd;stroke-width:1pt" transform="translate(14.173 60.236)"/><path d="m38.976 474.803-10.63 10.63" style="fill-rule:evenodd;stroke-width:1pt" transform="translate(21.26 60.236)"/><path d="m38.976 474.803-10.63 10.63" style="fill-rule:evenodd;stroke-width:1pt" transform="translate(28.346 60.236)"/><path d="m38.976 474.803-10.63 10.63" style="fill-rule:evenodd;stroke-width:1pt" transform="translate(35.433 60.236)"/><path d="m38.976 474.803-10.63 10.63" style="fill-rule:evenodd;stroke-width:1pt" transform="translate(42.52 60.236)"/><path d="m38.976 474.803-10.63 10.63" style="fill-rule:evenodd;stroke-width:1pt" transform="translate(49.606 60.236)"/><path d="m38.976 474.803-10.63 10.63" style="fill-rule:evenodd;stroke-width:1pt" transform="translate(56.693 60.236)"/><path d="m38.976 474.803-10.63 10.63" style="fill-rule:evenodd;stroke-width:1pt" transform="translate(63.78 60.236)"/><path d="m38.976 474.803-10.63 10.63" style="fill-rule:evenodd;stroke-width:1pt" transform="translate(70.866 60.236)"/><path d="m38.976 474.803-10.63 10.63" style="fill-rule:evenodd;stroke-width:1pt" transform="translate(77.953 60.236)"/><path d="m38.976 474.803-10.63 10.63" style="fill-rule:evenodd;stroke-width:1pt" transform="translate(49.606 60.236)"/><path d="m38.976 474.803-10.63 10.63" style="fill-rule:evenodd;stroke-width:1pt" transform="translate(85.04 60.236)"/><path d="m38.976 474.803-10.63 10.63" style="fill-rule:evenodd;stroke-width:1pt" transform="translate(92.126 60.236)"/><path d="m38.976 474.803-10.63 10.63" style="fill-rule:evenodd;stroke-width:1pt" transform="translate(99.212 60.236)"/><path d="m38.976 474.803-10.63 10.63" style="fill-rule:evenodd;stroke-width:1pt" transform="translate(106.3 60.236)"/><path d="m38.976 474.803-10.63 10.63" style="fill-rule:evenodd;stroke-width:1pt" transform="matrix(-1 0 0 1 173.622 60.236)"/><path d="m38.976 474.803-10.63 10.63" style="fill-rule:evenodd;stroke-width:1pt" transform="matrix(-1 0 0 1 166.535 60.236)"/><path d="m38.976 474.803-10.63 10.63" style="fill-rule:evenodd;stroke-width:1pt" transform="matrix(-1 0 0 1 159.449 60.236)"/><path d="m38.976 474.803-10.63 10.63" style="fill-rule:evenodd;stroke-width:1pt" transform="matrix(-1 0 0 1 152.362 60.236)"/><path d="m38.976 474.803-10.63 10.63" style="fill-rule:evenodd;stroke-width:1pt" transform="matrix(-1 0 0 1 145.276 60.236)"/><path d="m38.976 474.803-10.63 10.63" style="fill-rule:evenodd;stroke-width:1pt" transform="matrix(-1 0 0 1 138.19 60.236)"/><path d="m38.976 474.803-10.63 10.63" style="fill-rule:evenodd;stroke-width:1pt" transform="matrix(-1 0 0 1 131.102 60.236)"/><path d="m38.976 474.803-10.63 10.63" style="fill-rule:evenodd;stroke-width:1pt" transform="matrix(-1 0 0 1 124.016 60.236)"/><path d="m38.976 474.803-10.63 10.63" style="fill-rule:evenodd;stroke-width:1pt" transform="matrix(-1 0 0 1 116.93 60.236)"/><path d="m38.976 474.803-10.63 10.63" style="fill-rule:evenodd;stroke-width:1pt" transform="matrix(-1 0 0 1 109.843 60.236)"/><path d="m38.976 474.803-10.63 10.63" style="fill-rule:evenodd;stroke-width:1pt" transform="matrix(-1 0 0 1 102.756 60.236)"/><path d="m38.976 474.803-10.63 10.63" style="fill-rule:evenodd;stroke-width:1pt" transform="matrix(-1 0 0 1 95.67 60.236)"/><path d="m38.976 474.803-10.63 10.63" style="fill-rule:evenodd;stroke-width:1pt" transform="matrix(-1 0 0 1 124.016 60.236)"/><path d="m38.976 474.803-10.63 10.63" style="fill-rule:evenodd;stroke-width:1pt" transform="matrix(-1 0 0 1 88.583 60.236)"/><path d="m38.976 474.803-10.63 10.63" style="fill-rule:evenodd;stroke-width:1pt" transform="matrix(-1 0 0 1 81.496 60.236)"/><path d="m38.976 474.803-10.63 10.63" style="fill-rule:evenodd;stroke-width:1pt" transform="matrix(-1 0 0 1 74.41 60.236)"/><path d="m38.976 474.803-10.63 10.63" style="fill-rule:evenodd;stroke-width:1pt" transform="matrix(-1 0 0 1 67.323 60.236)"/></g></g><path d="M538.583 531.496c1.717 166.555 24.803 201.969 3.543 201.969s-31.89-92.07-31.89-205.512 14.173-205.512 35.433-205.512-8.913 31.909-7.086 209.055z" style="fill:#fff;fill-rule:evenodd;stroke-width:1pt" transform="matrix(-.37756 -.14862 -.23683 .23694 434.645 76.711)"/><path d="m545.669 779.528-60.236 17.716c56.693 60.236 120.474 85.039 138.189 74.409 17.717-10.629-31.89-35.433-77.953-92.125z" style="fill:#fff;fill-rule:evenodd;stroke-width:1.25" transform="matrix(-.23319 0 0 .20791 198.918 -10.976)"/><path d="m547.272 786.898-50.926 14.74c56.693 60.236 112.766 77.385 127.276 70.015 14.591-7.37-30.287-28.063-76.35-84.755z" style="fill:#fff;fill-rule:evenodd;stroke-width:1.29159999" transform="matrix(-.22714 0 0 .19991 195.983 -4.743)"/><path d="M353.131 634.23c.187 1.273.748 7.068 1.25 9.375 0 3.186.288 5.632.625 8.125.796 2.177.661 4.198 3.125 5.001 1.694 2.631 2.76 3.313 5 4.375 1.527 1.323 3.84 2.642 6.25 3.75 2.499 1.071 4.771 1.218 7.5.625 2.19-1.526 3.804-3.1 5.625-4.375.429-1.973.822-4.903 1.25-6.875-.674 2.024-1.147 5.265-1.25 8.125.24 3.12 1.265 4.481 2.5 6.875" style="fill:none;fill-rule:evenodd;stroke-width:1.78086996" transform="matrix(-.16422 0 0 .14545 172.813 28.637)"/><path d="m389.382 681.731.625-.625c-1.484 1.484-.878.776 2.5-1.25 2.426-1.246 5.015-1.908 8.125-2.5h8.75c3.405 0 5.696.511 8.125 1.25 1.762 1.762 4.393 2.763 6.25 4.375 1.905 1.295 2.722 2.829 3.75 5 1.701 1.701 2.803 4.326 4.375 5.625.704 2.871 2.141 2.773 3.125 5-2.948.227-5.311.631-6.875 2.5-2.597 1.344 2.179-1.317 3.125-2.5 2.046-.618 2.576-1.25 5.625-1.25 2.85-.904 4.579.737 7.5 1.25 1.705.987 2.178 1.25 4.376 1.25" style="fill:none;fill-rule:evenodd;stroke-width:1.78086996" transform="matrix(-.16422 0 0 .14545 174.968 27.819)"/><path d="M438.132 724.857c1.273.075 7.083 1.146 9.376 0 2.552-.696 4.068-2.04 5.625-4.375.767-1.689 0 2.998 0 5 .283 3.68 1.366 3.714 3.125 6.25 1.814 1.163 3.725 2.8 5.625 3.75 1.576 1.366 3.513 2.28 5.625 3.125 1.896.898 4.111 1.813 5.625 3.125 2.09 1.493 1.888 3.278 3.125 5.625-.235 3.057-.733 4.79-2.5 6.25-.738 2.113-2.395 4.205-3.75 5.625-1.545 2.87-3.256 4.224.625 5 2.132.914 3.327.197 5.625 0" style="fill:none;fill-rule:evenodd;stroke-width:1.78086996" transform="matrix(-.16422 0 0 .14545 177.432 26.092)"/><path d="M480.633 771.732c1.536-.391 6.983-2.213 9.375-3.125h8.75c3.391.261 4.037 1.256 6.876 2.5 1.832 1.871 3.089 3.162 5.625 4.376 1.341 1.733 3.953 4.677 5 6.875.745 2.133 1.25 5.018 1.25 8.125-.044 3.648-1.002 4.271-1.25 7.5-.701 2.684-1.839 5.143-3.75 7.5-.265.793-.457.986-1.25 1.25" style="fill:none;fill-rule:evenodd;stroke-width:1.78086996" transform="matrix(-.16422 0 0 .14545 177.945 25.637)"/><path d="M538.134 817.983c.374 0 1.201 2.018 2.5 3.75 2.828 2.906 3.192 3.125 7.5 3.125 3.884-.143 3.522-1.532 6.25-2.5 1.289-2.008 2.896-3.6 4.375-6.25 1.006-1.634 1.89-4.129 3.125-5.625 1.141-1.854 2.563-3.254 3.75-5 1.172-.502 1.618-.984 3.126-1.25-3.6.578-3.915 1.867-6.251 3.75-1.094 1.779-2.181 3.633-3.125 5.625-.361 2.673-1.21 4.779-1.25 8.125 0 3.457.017 5.872 1.25 8.75 1.473 1.545 2.563 3.143 4.375 4.376 1.439 1.405 3.244 3.336 4.376 5 1.96 1.206 3.385 2.189 5.625 3.75 1.884 1.102 3.915 2.234 6.875 2.5 3.67-.262 4.755-1.297 7.5-2.5 2.329-1.713 4.163-2.838 6.25-4.375 1.629-1.141 3.288-3.403 4.375-5 3.382-.846 5.529-.508 7.5 1.25a16.5 16.5 0 0 1 4.375 4.375c1.02.51 2.73 1.99 3.75 2.5" style="fill:none;fill-rule:evenodd;stroke-width:2.37881994" transform="matrix(-.1166 0 0 .11482 156.87 50.248)"/><path d="M503.758 836.109c-.802.334-3.717 2.367-5 3.125-.8 2.631-2.077 4.069-2.5 6.875-.677 2.709-.625 5.692-.625 8.75.685 3.194 2.015 5.557 3.125 8.125 1.974 1.342 2.967 2.33 5.625 3.75 2.494.337 4.94.625 8.126.625 1.904.635 5.615.942 7.5 0 2.783-.376 4.854-1.507 6.875-2.5 2.306-1.307 3.728-2.542 6.25-3.75 1.225-1.801 3.13-3.46 5-5.625 1.556-2.105 2.7-3.286 3.75-5.625-.924 2.669-2.327 4.999-3.125 7.5-1.422 2.661-2.248 3.604-2.5 6.875-.871 2.613-.625 5.76-.625 8.75.274 2.031.418 5.837 1.25 7.5v1.875" style="fill:none;fill-rule:evenodd;stroke-width:1.90974998" transform="matrix(-.14496 0 0 .14329 159.122 27.331)"/><path d="M541.259 799.233v.625c0-1.687.041-.83-.625 2.5-1.179 1.462-3.944 1.868-6.25 1.25-2.022-1.67-1.96-2.935-5.625-3.75-3.542.253-4.892 1.279-6.875 2.5-2.354 1.177-3.438 1.771-5 4.375-.776 2.12-1.209 3.555 1.25 4.375 1.954 1.386 4.277 2.149 6.875 2.5 2.887 0 4.968-.339 6.25 1.25 1.983 2.055 1.875 3.277 1.875 6.875.667 1.112.799 4.394 1.25 5.625 1.736.823 2.755 1.25 5.625 1.25.674-1.931 1.423-5.419 1.875-7.5.489-2.248.64-5.379 1.875-6.875a16.6 16.6 0 0 1 4.375-4.375c.766-1.073 2.223-1.965 3.75-2.5-2.452 1.251-2.801 2.603-3.125 5.625 2.155 1.078 2.731 1.833 6.25 1.875 3.459-.291 4.295-1.169 5.625-3.125.242 3.136 1.243 4.186 1.875 6.875 1.286 1.891 1.832 3.828 3.125 6.25-.551 3.012-1.737 3.163-1.875 6.875-.811 2.435-.723 4.783-2.5 6.251-.792.968-1.384 1.158-3.125 1.25 3.618 0 5.727-.391 8.125-1.875 1.854-1.141 3.255-2.563 5.001-3.75 2.212-1.603 4.947-3.085 7.5-3.751 2.887 0 4.968-.339 6.25 1.25 1.77 1.265 2.959 3.447 3.75 6.251.579 3.244.8 5.404-.625 7.5-1.057 2.408-1.297 3.346 0 6.25 1.452 2.033 3.617 2.272 6.875 3.125 2.379-.128 4.668-.671 6.25-1.25" style="fill:none;fill-rule:evenodd;stroke-width:1.25" transform="matrix(-.23319 0 0 .20791 198.918 -10.976)"/><g transform="matrix(-.23319 0 0 .20791 198.918 -10.976)"><path d="M531.496 359.645c0-165.274 7.937-299.409 17.717-299.409s17.716 134.135 17.716 299.409z" style="fill:#fff;fill-rule:evenodd;stroke-width:1pt" transform="matrix(1.42159 -.73423 .4616 .89375 -716.837 541.071)"/><path d="M531.496 359.645c0-165.274 7.937-299.409 17.717-299.409s17.716 134.135 17.716 299.409" style="fill:#fff;fill-rule:evenodd;stroke-width:1pt" transform="matrix(1.13728 -.58739 .44532 .8622 -554.833 471.77)"/><path d="M563.386 301.181c.189 18.908 0 40.188 0 60.236h-28.347c0-20.048-.189-41.328 0-60.236z" style="fill:#fff;fill-rule:evenodd;stroke-width:1pt" transform="matrix(1.42159 -.73423 .4589 .8885 -716.674 541.388)"/><path d="M559.843 304.724c.189 18.908 0 33.102 0 53.15h-21.26c0-20.048-.189-34.242 0-53.15z" style="fill:#fff;fill-rule:evenodd;stroke-width:1pt" transform="matrix(1.42159 -.73423 .4589 .8885 -716.674 541.388)"/><path d="M542.126 311.811h14.173v38.976h-14.173zM542.126 311.811l14.173 38.976M542.126 350.787l14.173-38.976M542.126 113.386h14.173" style="fill:#fff;fill-rule:evenodd;stroke-width:1pt" transform="matrix(1.42159 -.73423 .4589 .8885 -716.674 541.388)"/><circle cx="545.669" cy="92.126" r="3.543" style="fill:#ef0000;fill-rule:evenodd;stroke-width:1pt" transform="matrix(1.60456 .45375 -.36215 1.5787 -734.9 -170.854)"/></g><path d="M538.583 531.496c1.717 166.555 24.803 201.969 3.543 201.969s-31.89-92.07-31.89-205.512 14.173-205.512 35.433-205.512-8.913 31.909-7.086 209.055z" style="fill:#fff;fill-rule:evenodd;stroke-width:1pt" transform="matrix(.37756 -.14862 .23683 .23694 -184.98 75.976)"/><path d="m545.669 779.528-60.236 17.716c56.693 60.236 120.474 85.039 138.189 74.409 17.717-10.629-31.89-35.433-77.953-92.125z" style="fill:#fff;fill-rule:evenodd;stroke-width:1.25" transform="matrix(.23319 0 0 .20791 50.747 -11.711)"/><path d="m547.272 786.898-50.926 14.74c56.693 60.236 112.766 77.385 127.276 70.015 14.591-7.37-30.287-28.063-76.35-84.755z" style="fill:#fff;fill-rule:evenodd;stroke-width:1.29159999" transform="matrix(.22714 0 0 .19991 53.682 -5.479)"/><path d="M353.131 634.23c.187 1.273.748 7.068 1.25 9.375 0 3.186.288 5.632.625 8.125.796 2.177.661 4.198 3.125 5.001 1.694 2.631 2.76 3.313 5 4.375 1.527 1.323 3.84 2.642 6.25 3.75 2.499 1.071 4.771 1.218 7.5.625 2.19-1.526 3.804-3.1 5.625-4.375.429-1.973.822-4.903 1.25-6.875-.674 2.024-1.147 5.265-1.25 8.125.24 3.12 1.265 4.481 2.5 6.875" style="fill:none;fill-rule:evenodd;stroke-width:1.78086996" transform="matrix(.16422 0 0 .14545 76.852 27.902)"/><path d="m389.382 681.731.625-.625c-1.484 1.484-.878.776 2.5-1.25 2.426-1.246 5.015-1.908 8.125-2.5h8.75c3.405 0 5.696.511 8.125 1.25 1.762 1.762 4.393 2.763 6.25 4.375 1.905 1.295 2.722 2.829 3.75 5 1.701 1.701 2.803 4.326 4.375 5.625.704 2.871 2.141 2.773 3.125 5-2.948.227-5.311.631-6.875 2.5-2.597 1.344 2.179-1.317 3.125-2.5 2.046-.618 2.576-1.25 5.625-1.25 2.85-.904 4.579.737 7.5 1.25 1.705.987 2.178 1.25 4.376 1.25" style="fill:none;fill-rule:evenodd;stroke-width:1.78086996" transform="matrix(.16422 0 0 .14545 74.697 27.084)"/><path d="M438.132 724.857c1.273.075 7.083 1.146 9.376 0 2.552-.696 4.068-2.04 5.625-4.375.767-1.689 0 2.998 0 5 .283 3.68 1.366 3.714 3.125 6.25 1.814 1.163 3.725 2.8 5.625 3.75 1.576 1.366 3.513 2.28 5.625 3.125 1.896.898 4.111 1.813 5.625 3.125 2.09 1.493 1.888 3.278 3.125 5.625-.235 3.057-.733 4.79-2.5 6.25-.738 2.113-2.395 4.205-3.75 5.625-1.545 2.87-3.256 4.224.625 5 2.132.914 3.327.197 5.625 0" style="fill:none;fill-rule:evenodd;stroke-width:1.78086996" transform="matrix(.16422 0 0 .14545 72.233 25.356)"/><path d="M480.633 771.732c1.536-.391 6.983-2.213 9.375-3.125h8.75c3.391.261 4.037 1.256 6.876 2.5 1.832 1.871 3.089 3.162 5.625 4.376 1.341 1.733 3.953 4.677 5 6.875.745 2.133 1.25 5.018 1.25 8.125-.044 3.648-1.002 4.271-1.25 7.5-.701 2.684-1.839 5.143-3.75 7.5-.265.793-.457.986-1.25 1.25" style="fill:none;fill-rule:evenodd;stroke-width:1.78086996" transform="matrix(.16422 0 0 .14545 71.72 24.902)"/><path d="M538.134 817.983c.374 0 1.201 2.018 2.5 3.75 2.828 2.906 3.192 3.125 7.5 3.125 3.884-.143 3.522-1.532 6.25-2.5 1.289-2.008 2.896-3.6 4.375-6.25 1.006-1.634 1.89-4.129 3.125-5.625 1.141-1.854 2.563-3.254 3.75-5 1.172-.502 1.618-.984 3.126-1.25-3.6.578-3.915 1.867-6.251 3.75-1.094 1.779-2.181 3.633-3.125 5.625-.361 2.673-1.21 4.779-1.25 8.125 0 3.457.017 5.872 1.25 8.75 1.473 1.545 2.563 3.143 4.375 4.376 1.439 1.405 3.244 3.336 4.376 5 1.96 1.206 3.385 2.189 5.625 3.75 1.884 1.102 3.915 2.234 6.875 2.5 3.67-.262 4.755-1.297 7.5-2.5 2.329-1.713 4.163-2.838 6.25-4.375 1.629-1.141 3.288-3.403 4.375-5 3.382-.846 5.529-.508 7.5 1.25a16.5 16.5 0 0 1 4.375 4.375c1.02.51 2.73 1.99 3.75 2.5" style="fill:none;fill-rule:evenodd;stroke-width:2.37881994" transform="matrix(.1166 0 0 .11482 92.795 49.513)"/><path d="M503.758 836.109c-.802.334-3.717 2.367-5 3.125-.8 2.631-2.077 4.069-2.5 6.875-.677 2.709-.625 5.692-.625 8.75.685 3.194 2.015 5.557 3.125 8.125 1.974 1.342 2.967 2.33 5.625 3.75 2.494.337 4.94.625 8.126.625 1.904.635 5.615.942 7.5 0 2.783-.376 4.854-1.507 6.875-2.5 2.306-1.307 3.728-2.542 6.25-3.75 1.225-1.801 3.13-3.46 5-5.625 1.556-2.105 2.7-3.286 3.75-5.625-.924 2.669-2.327 4.999-3.125 7.5-1.422 2.661-2.248 3.604-2.5 6.875-.871 2.613-.625 5.76-.625 8.75.274 2.031.418 5.837 1.25 7.5v1.875" style="fill:none;fill-rule:evenodd;stroke-width:1.90974998" transform="matrix(.14496 0 0 .14329 90.543 26.596)"/><path d="M541.259 799.233v.625c0-1.687.041-.83-.625 2.5-1.179 1.462-3.944 1.868-6.25 1.25-2.022-1.67-1.96-2.935-5.625-3.75-3.542.253-4.892 1.279-6.875 2.5-2.354 1.177-3.438 1.771-5 4.375-.776 2.12-1.209 3.555 1.25 4.375 1.954 1.386 4.277 2.149 6.875 2.5 2.887 0 4.968-.339 6.25 1.25 1.983 2.055 1.875 3.277 1.875 6.875.667 1.112.799 4.394 1.25 5.625 1.736.823 2.755 1.25 5.625 1.25.674-1.931 1.423-5.419 1.875-7.5.489-2.248.64-5.379 1.875-6.875a16.6 16.6 0 0 1 4.375-4.375c.766-1.073 2.223-1.965 3.75-2.5-2.452 1.251-2.801 2.603-3.125 5.625 2.155 1.078 2.731 1.833 6.25 1.875 3.459-.291 4.295-1.169 5.625-3.125.242 3.136 1.243 4.186 1.875 6.875 1.286 1.891 1.832 3.828 3.125 6.25-.551 3.012-1.737 3.163-1.875 6.875-.811 2.435-.723 4.783-2.5 6.251-.792.968-1.384 1.158-3.125 1.25 3.618 0 5.727-.391 8.125-1.875 1.854-1.141 3.255-2.563 5.001-3.75 2.212-1.603 4.947-3.085 7.5-3.751 2.887 0 4.968-.339 6.25 1.25 1.77 1.265 2.959 3.447 3.75 6.251.579 3.244.8 5.404-.625 7.5-1.057 2.408-1.297 3.346 0 6.25 1.452 2.033 3.617 2.272 6.875 3.125 2.379-.128 4.668-.671 6.25-1.25" style="fill:none;fill-rule:evenodd;stroke-width:1.25" transform="matrix(.23319 0 0 .20791 50.747 -11.711)"/><g transform="matrix(.23319 0 0 .20791 50.747 -11.711)"><path d="M531.496 359.645c0-165.274 7.937-299.409 17.717-299.409s17.716 134.135 17.716 299.409z" style="fill:#fff;fill-rule:evenodd;stroke-width:1pt" transform="matrix(1.42159 -.73423 .4616 .89375 -716.837 541.071)"/><path d="M531.496 359.645c0-165.274 7.937-299.409 17.717-299.409s17.716 134.135 17.716 299.409" style="fill:#fff;fill-rule:evenodd;stroke-width:1pt" transform="matrix(1.13728 -.58739 .44532 .8622 -554.833 471.77)"/><path d="M563.386 301.181c.189 18.908 0 40.188 0 60.236h-28.347c0-20.048-.189-41.328 0-60.236z" style="fill:#fff;fill-rule:evenodd;stroke-width:1pt" transform="matrix(1.42159 -.73423 .4589 .8885 -716.674 541.388)"/><path d="M559.843 304.724c.189 18.908 0 33.102 0 53.15h-21.26c0-20.048-.189-34.242 0-53.15z" style="fill:#fff;fill-rule:evenodd;stroke-width:1pt" transform="matrix(1.42159 -.73423 .4589 .8885 -716.674 541.388)"/><path d="M542.126 311.811h14.173v38.976h-14.173zM542.126 311.811l14.173 38.976M542.126 350.787l14.173-38.976M542.126 113.386h14.173" style="fill:#fff;fill-rule:evenodd;stroke-width:1pt" transform="matrix(1.42159 -.73423 .4589 .8885 -716.674 541.388)"/><circle cx="545.669" cy="92.126" r="3.543" style="fill:#ef0000;fill-rule:evenodd;stroke-width:1pt" transform="matrix(1.60456 .45375 -.36215 1.5787 -734.9 -170.854)"/></g><g transform="matrix(.23319 0 0 .20791 50.747 -11.711)"><path d="M305.611 396.85c0 124.016.491 170.76-5.62 177.166-5.79 6.857-167.115 0-167.115 35.433s132.873 70.867 172.735 70.866q79.723 0 79.723-106.299V396.85z" style="fill:#fff;fill-rule:evenodd;stroke-width:1pt" transform="matrix(1.33334 0 0 1 -141.736 0)"/><path d="M265.748 396.85v17.717q53.15 8.859 106.299 0V396.85q-53.15 8.859-106.299 0z" style="fill:#fff;fill-rule:evenodd;stroke-width:1pt" transform="matrix(1 0 0 .99999 0 35.437)"/><path d="M265.748 396.85v17.717q53.15 8.859 106.299 0V396.85q-53.15 8.859-106.299 0z" style="fill:#fff;fill-rule:evenodd;stroke-width:1pt" transform="matrix(1 0 0 .99999 0 .004)"/><path d="M265.748 396.85v17.717q53.15 8.859 106.299 0V396.85q-53.15 8.859-106.299 0z" style="fill:#fff;fill-rule:evenodd;stroke-width:1pt" transform="matrix(1 0 0 .99999 0 17.72)"/><path d="M265.748 396.85v17.717q53.15 8.859 106.299 0V396.85q-53.15 8.859-106.299 0z" style="fill:#fff;fill-rule:evenodd;stroke-width:1pt" transform="matrix(1 0 0 .99999 0 53.154)"/><ellipse cx="256.89" cy="210.827" rx="8.858" ry="26.575" style="fill:#fff;fill-rule:evenodd;stroke-width:4.46283007" transform="matrix(.54545 0 0 .14383 130.458 394.317)"/><ellipse cx="292.323" cy="246.26" rx="8.858" ry="26.575" style="fill:#fff;fill-rule:evenodd;stroke-width:4.46283007" transform="matrix(.54545 0 0 .14383 130.458 391.131)"/><ellipse cx="327.756" cy="263.976" rx="8.858" ry="26.575" style="fill:#fff;fill-rule:evenodd;stroke-width:4.46285009" transform="matrix(.54545 0 0 .14383 130.458 390.495)"/><ellipse cx="363.189" cy="263.976" rx="8.858" ry="26.575" style="fill:#fff;fill-rule:evenodd;stroke-width:4.46285009" transform="matrix(.54545 0 0 .14383 130.458 390.495)"/><ellipse cx="398.622" cy="246.26" rx="8.858" ry="26.575" style="fill:#fff;fill-rule:evenodd;stroke-width:4.46283007" transform="matrix(.54545 0 0 .14383 130.458 391.131)"/><ellipse cx="434.055" cy="210.827" rx="8.858" ry="26.575" style="fill:#fff;fill-rule:evenodd;stroke-width:4.46283007" transform="matrix(.54545 0 0 .14383 130.458 394.317)"/><path d="m265.748 485.433 106.299 95.669M276.378 485.433l95.669 85.039M290.551 488.976l81.496 70.866M301.181 488.976l70.866 60.237M311.811 488.976l60.236 49.607M322.441 488.976l49.606 38.977M333.071 488.976l38.976 28.347M343.701 488.976l28.346 21.26M354.331 488.976l17.716 14.174M364.961 488.976l7.086 7.087" style="fill:#fff;fill-rule:evenodd;stroke-width:1pt"/><path d="m265.748 485.433 106.299 95.669" style="fill:#fff;fill-rule:evenodd;stroke-width:1pt" transform="translate(0 10.63)"/><path d="m265.748 485.433 116.929 106.299M276.378 485.433l102.756 92.126M290.551 488.976l81.496 70.866M301.181 488.976l70.866 60.237M311.811 488.976l60.236 49.607M322.441 488.976l49.606 38.977M333.071 488.976l38.976 28.347M343.701 488.976l28.346 21.26M354.331 488.976l17.716 14.174M364.961 488.976l7.086 7.087" style="fill:#fff;fill-rule:evenodd;stroke-width:1pt" transform="matrix(-1 0 0 1 637.795 0)"/><path d="m265.748 485.433 116.929 106.299" style="fill:#fff;fill-rule:evenodd;stroke-width:1pt" transform="matrix(-1 0 0 1 637.795 10.63)"/><path d="m265.748 485.433 116.929 106.299" style="fill:#fff;fill-rule:evenodd;stroke-width:1pt" transform="matrix(-1 0 0 1 637.795 21.26)"/><path d="m265.748 485.433 116.929 106.299" style="fill:#fff;fill-rule:evenodd;stroke-width:1pt" transform="matrix(-1 0 0 1 637.795 31.89)"/><path d="m265.748 485.433 116.929 106.299" style="fill:#fff;fill-rule:evenodd;stroke-width:1pt" transform="matrix(-1 0 0 1 637.795 42.52)"/><path d="m265.748 485.433 116.929 106.299" style="fill:#fff;fill-rule:evenodd;stroke-width:1pt" transform="matrix(-1 0 0 1 637.795 53.15)"/><path d="m265.748 485.433 116.929 106.299" style="fill:#fff;fill-rule:evenodd;stroke-width:1pt" transform="matrix(-1 0 0 1 637.795 63.78)"/><path d="m265.748 485.433 116.929 106.299" style="fill:#fff;fill-rule:evenodd;stroke-width:1pt" transform="matrix(-1 0 0 1 637.795 74.41)"/><path d="m265.748 485.433 116.929 106.299" style="fill:#fff;fill-rule:evenodd;stroke-width:1pt" transform="matrix(-1 0 0 1 637.795 85.04)"/><path d="m265.748 485.433 109.842 99.212" style="fill:#fff;fill-rule:evenodd;stroke-width:1pt" transform="matrix(-1 0 0 1 637.795 95.67)"/><path d="m265.748 485.433 99.212 88.583" style="fill:#fff;fill-rule:evenodd;stroke-width:1pt" transform="matrix(-1 0 0 1 637.795 106.3)"/><path d="m265.748 485.433 77.953 70.866" style="fill:#fff;fill-rule:evenodd;stroke-width:1pt" transform="matrix(-1 0 0 1 634.252 120.472)"/><path d="m265.748 485.433 63.779 56.693" style="fill:#fff;fill-rule:evenodd;stroke-width:1pt" transform="matrix(-1 0 0 1 630.709 134.646)"/><path d="m265.748 485.433 31.89 28.346" style="fill:#fff;fill-rule:evenodd;stroke-width:1pt" transform="matrix(-1 0 0 1 623.622 152.363)"/><path d="m265.748 485.433 102.756 92.126" style="fill:#fff;fill-rule:evenodd;stroke-width:1pt" transform="translate(0 21.26)"/><path d="m269.291 488.976 102.756 92.126" style="fill:#fff;fill-rule:evenodd;stroke-width:1pt" transform="translate(-3.543 28.347)"/><path d="m269.291 488.976 99.213 88.583" style="fill:#fff;fill-rule:evenodd;stroke-width:1pt" transform="translate(-3.543 38.977)"/><path d="m269.291 488.976 99.213 88.583" style="fill:#fff;fill-rule:evenodd;stroke-width:1pt" transform="translate(-3.543 49.607)"/><path d="m272.835 492.52 95.669 85.039" style="fill:#fff;fill-rule:evenodd;stroke-width:1pt" transform="translate(-7.087 56.693)"/><path d="m269.291 488.976 95.669 85.04" style="fill:#fff;fill-rule:evenodd;stroke-width:1pt" transform="translate(-7.086 67.323)"/><path d="m269.291 488.976 88.583 77.953" style="fill:#fff;fill-rule:evenodd;stroke-width:1pt" transform="translate(-7.086 77.953)"/><path d="m265.748 485.433 88.583 77.953" style="fill:#fff;fill-rule:evenodd;stroke-width:1pt" transform="translate(-7.087 88.583)"/><path d="m262.204 481.89 85.04 74.409" style="fill:#fff;fill-rule:evenodd;stroke-width:1pt" transform="translate(-7.086 99.213)"/><path d="m262.205 481.89 81.496 70.865" style="fill:#fff;fill-rule:evenodd;stroke-width:1pt" transform="translate(-7.087 109.843)"/><path d="m262.205 481.89 70.866 63.779" style="fill:#fff;fill-rule:evenodd;stroke-width:1pt" transform="translate(-7.087 120.472)"/><path d="M265.748 396.85v17.717q53.15 8.859 106.299 0V396.85q-53.15 8.859-106.299 0z" style="fill:#fff;fill-rule:evenodd;stroke-width:1pt" transform="matrix(1 0 0 .99999 0 70.87)"/><path d="m262.204 481.89 63.78 56.692" style="fill:#fff;fill-rule:evenodd;stroke-width:1pt" transform="translate(-7.086 131.103)"/><path d="m262.204 481.889 56.693 49.606" style="fill:#fff;fill-rule:evenodd;stroke-width:1pt" transform="translate(-7.086 141.733)"/><path d="m262.205 481.89 49.606 42.519" style="fill:#fff;fill-rule:evenodd;stroke-width:1pt" transform="translate(-7.087 152.362)"/><path d="m262.204 481.89 35.434 31.889" style="fill:#fff;fill-rule:evenodd;stroke-width:1pt" transform="translate(-7.086 162.992)"/><path d="m262.204 481.889 28.347 24.804" style="fill:#fff;fill-rule:evenodd;stroke-width:1pt" transform="translate(-7.086 173.622)"/><path d="m262.205 481.89 17.716 14.173" style="fill:#fff;fill-rule:evenodd;stroke-width:1pt" transform="translate(-7.087 184.252)"/><ellipse cx="256.89" cy="210.827" rx="8.858" ry="26.575" style="fill:#fff;fill-rule:evenodd;stroke-width:4.46283007" transform="matrix(.54545 0 0 .14383 130.458 447.466)"/><ellipse cx="292.323" cy="246.26" rx="8.858" ry="26.575" style="fill:#fff;fill-rule:evenodd;stroke-width:4.46283007" transform="matrix(.54545 0 0 .14383 130.458 444.281)"/><ellipse cx="327.756" cy="263.976" rx="8.858" ry="26.575" style="fill:#fff;fill-rule:evenodd;stroke-width:4.46285009" transform="matrix(.54545 0 0 .14383 130.458 443.644)"/><ellipse cx="363.189" cy="263.976" rx="8.858" ry="26.575" style="fill:#fff;fill-rule:evenodd;stroke-width:4.46285009" transform="matrix(.54545 0 0 .14383 130.458 443.644)"/><ellipse cx="398.622" cy="246.26" rx="8.858" ry="26.575" style="fill:#fff;fill-rule:evenodd;stroke-width:4.46283007" transform="matrix(.54545 0 0 .14383 130.458 444.281)"/><ellipse cx="434.055" cy="210.827" rx="8.858" ry="26.575" style="fill:#fff;fill-rule:evenodd;stroke-width:4.46283007" transform="matrix(.54545 0 0 .14383 130.458 447.466)"/><path d="m113.386 651.968 127.559-74.409" style="fill:#fff;fill-rule:evenodd;stroke-width:1pt"/><path d="m113.386 651.968 120.472-70.866" style="fill:#fff;fill-rule:evenodd;stroke-width:1pt" transform="translate(-7.087 -3.543)"/><path d="m113.386 651.968 109.842-63.78" style="fill:#fff;fill-rule:evenodd;stroke-width:1pt" transform="translate(-10.63 -10.63)"/><path d="m113.386 651.968 95.669-56.693" style="fill:#fff;fill-rule:evenodd;stroke-width:1pt" transform="translate(-14.173 -17.716)"/><path d="m116.929 648.425 88.583-49.606" style="fill:#fff;fill-rule:evenodd;stroke-width:1pt" transform="translate(-24.803 -21.26)"/><path d="m131.103 641.338 60.236-35.433" style="fill:#fff;fill-rule:evenodd;stroke-width:1pt" transform="translate(-35.433 -24.803)"/><path d="m138.189 637.795 46.063-28.346" style="fill:#fff;fill-rule:evenodd;stroke-width:1pt" transform="translate(-46.063 -28.346)"/><path d="m141.732 634.252 31.89-17.717" style="fill:#fff;fill-rule:evenodd;stroke-width:1pt" transform="translate(-49.606 -35.433)"/><path d="m120.473 648.425 120.472-70.866" style="fill:#fff;fill-rule:evenodd;stroke-width:1pt" transform="translate(3.543 7.087)"/><path d="m127.559 644.881 113.386-67.322" style="fill:#fff;fill-rule:evenodd;stroke-width:1pt" transform="translate(7.087 14.174)"/><path d="m134.646 641.339 106.299-63.78" style="fill:#fff;fill-rule:evenodd;stroke-width:1pt" transform="translate(10.63 21.26)"/><path d="m134.646 641.338 88.583-53.15" style="fill:#fff;fill-rule:evenodd;stroke-width:1pt" transform="translate(21.26 24.804)"/><path d="m155.906 627.165 77.952-46.063" style="fill:#fff;fill-rule:evenodd;stroke-width:1pt" transform="translate(14.173 38.976)"/><path d="m155.906 627.165 67.323-38.976" style="fill:#fff;fill-rule:evenodd;stroke-width:1pt" transform="translate(24.803 42.52)"/><path d="m162.992 623.622 53.15-31.89" style="fill:#fff;fill-rule:evenodd;stroke-width:1pt" transform="translate(28.346 49.607)"/><path d="m173.622 616.535 42.52-24.803" style="fill:#fff;fill-rule:evenodd;stroke-width:1pt" transform="translate(31.89 56.693)"/><path d="m177.165 616.535 28.347-17.717" style="fill:#fff;fill-rule:evenodd;stroke-width:1pt" transform="translate(42.52 60.237)"/><path d="m187.795 609.448 17.717-10.63" style="fill:#fff;fill-rule:evenodd;stroke-width:1pt" transform="translate(46.063 67.323)"/><path d="M265.748 396.85v17.717q53.15 8.859 106.299 0V396.85q-53.15 8.859-106.299 0z" style="fill:#fff;fill-rule:evenodd;stroke-width:1pt" transform="matrix(0 1 -.99999 0 655.507 308.268)"/><path d="m166.535 630.708 42.52-35.433" style="fill:#fff;fill-rule:evenodd;stroke-width:1pt" transform="translate(-116.929 -7.086)"/><path d="m166.535 637.795 42.52-42.52" style="fill:#fff;fill-rule:evenodd;stroke-width:1pt" transform="matrix(1 0 0 -1 -116.929 1236.614)"/><path d="m260.153 387.992 5.595 26.575c35.433 5.906 65.271 5.906 100.704 0l11.19-26.575c-35.433 5.906-82.056 5.906-117.489 0z" style="fill:#fff;fill-rule:evenodd;stroke-width:1pt" transform="matrix(0 .63333 -.8 0 423.778 416.339)"/><path d="M258.661 350.787v-17.865c-10.63.149-17.716-10.481-17.717-21.26l-35.432.149c0 10.63-7.087 21.26-17.717 21.26v17.716z" style="fill:#fff;fill-rule:evenodd;stroke-width:1pt" transform="matrix(1.49834 0 0 1 -15.633 53.15)"/><path d="M296.085 343.701h45.506v21.26h-45.506zM299.878 322.441H337.8v21.26h-37.922zM299.878 301.181H337.8v21.26h-37.922zM303.67 272.834h30.337v28.346H303.67z" style="fill:#fff;fill-rule:evenodd;stroke-width:1.03451996pt"/><path d="M302.362 248.031h32.953v24.803h-32.953z" style="fill:#fff;fill-rule:evenodd;stroke-width:1.07819004pt"/><ellipse cx="237.402" cy="161.22" rx="42.52" ry="33.661" style="fill:#fff;fill-rule:evenodd;stroke-width:1pt" transform="matrix(1.03333 0 0 1 75.354 63.78)"/><path d="M258.661 159.449c0 9.291 10.63 24.803 10.63 24.803-7.696 6.093-20.154 10.63-31.889 10.63s-26.349-2.528-31.89-10.63c0 0 10.63-15.512 10.63-24.803s-10.63-21.26-10.63-21.26c7.696-6.093 20.154-10.63 31.89-10.63 11.735 0 24.193 4.537 31.889 10.63 0 0-10.63 11.969-10.63 21.26z" style="fill:#fff;fill-rule:evenodd;stroke-width:1pt" transform="matrix(1.03333 0 0 1 75.354 63.78)"/><path d="M251.575 159.449c0 9.291 10.63 28.346 10.63 28.346-7.696 6.093-13.068 7.087-24.803 7.087s-19.262 1.015-24.803-7.087c0 0 10.63-19.055 10.63-28.346s-10.63-24.803-10.63-24.803c7.696-6.093 13.067-7.087 24.803-7.087 11.735 0 17.107.994 24.803 7.087 0 0-10.63 15.512-10.63 24.803z" style="fill:#fff;fill-rule:evenodd;stroke-width:1pt" transform="matrix(1.03333 0 0 1 75.354 63.78)"/><circle cx="194.882" cy="166.535" r="10.63" style="fill:#fff;fill-rule:evenodd;stroke-width:1pt" transform="matrix(1.03333 0 0 1 75.354 60.236)"/><circle cx="194.882" cy="166.535" r="10.63" style="fill:#fff;fill-rule:evenodd;stroke-width:1pt" transform="matrix(1.03333 0 0 1 163.228 60.236)"/><circle cx="194.882" cy="166.535" r="10.63" style="fill:#fff;fill-rule:evenodd;stroke-width:1pt" transform="matrix(1.03333 0 0 1 119.291 60.236)"/><circle cx="194.882" cy="166.535" r="10.63" style="fill:#fff;fill-rule:evenodd;stroke-width:1pt" transform="matrix(1.03333 0 0 1 119.291 24.803)"/><circle cx="194.882" cy="166.535" r="10.63" style="fill:#fff;fill-rule:evenodd;stroke-width:1pt" transform="matrix(1.07024 0 0 1 79.931 226.772)"/><circle cx="194.882" cy="166.535" r="10.63" style="fill:#fff;fill-rule:evenodd;stroke-width:1pt" transform="matrix(1.07024 0 0 1 140.606 226.772)"/><path d="M212.598 311.811h49.607l-24.803 31.89z" style="fill:#fff;fill-rule:evenodd;stroke-width:1pt" transform="matrix(1.07024 0 0 1 64.762 53.15)"/><circle cx="194.882" cy="166.535" r="10.63" style="fill:#fff;fill-rule:evenodd;stroke-width:1pt" transform="matrix(1.42698 0 0 1.33333 40.745 167.716)"/></g><g transform="matrix(.23319 0 0 .20791 50.335 -17.595)"><rect width="81.496" height="21.26" x="262.205" y="524.409" rx="4.423" ry="3.76" style="fill:#fff;fill-rule:evenodd;stroke-width:1.25"/><path d="M478.346 237.401c-9.814 0-17.716 8.259-17.716 18.519v16.111c0 10.26 7.902 18.52 17.716 18.52s17.717-8.26 17.717-18.52V255.92c0-10.26-7.902-18.519-17.717-18.519zm0 7.087c-5.888 0-10.63 6.608-10.63 14.816v9.345c0 8.208 4.742 14.816 10.63 14.816s10.63-6.608 10.63-14.816v-9.345c0-8.208-4.741-14.816-10.63-14.816z" style="fill:#fff;fill-rule:evenodd;stroke-width:1.25" transform="translate(-109.843 269.292)"/><path d="M478.346 237.401c-5.888 0-10.63 6.608-10.63 14.816v16.432c0 8.208 4.742 14.816 10.63 14.816s10.63-6.608 10.63-14.816v-16.432c0-8.208-4.741-14.816-10.63-14.816zm0-7.087c-9.814 0-17.716 8.259-17.716 18.519v23.198c0 10.26 7.902 18.52 17.716 18.52s17.717-8.26 17.717-18.52v-23.198c0-10.26-7.902-18.519-17.717-18.519z" style="fill:#fff;fill-rule:evenodd;stroke-width:1.25" transform="translate(-201.969 272.836)"/><path d="M478.347 247.229c-5.888 0-10.63 6.608-10.63 14.816l-.001 3.864c0 8.208 4.742 14.816 10.63 14.816s10.63-6.608 10.63-14.816l.001-3.864c0-8.208-4.741-14.816-10.63-14.816zm0-7.087c-9.814 0-17.716 8.259-17.716 18.519l-.001 10.63c0 10.26 7.902 18.52 17.716 18.52s17.717-8.26 17.717-18.52l.001-10.63c0-10.26-7.902-18.519-17.717-18.519z" style="fill:#fff;fill-rule:evenodd;stroke-width:1.25" transform="translate(-230.316 270.094)"/><path d="M478.346 237.401c-5.888 0-10.63 6.608-10.63 14.816v16.432c0 8.208 4.742 14.816 10.63 14.816s10.63-6.608 10.63-14.816v-16.432c0-8.208-4.741-14.816-10.63-14.816zm0-7.087c-9.814 0-17.716 8.259-17.716 18.519v23.198c0 10.26 7.902 18.52 17.716 18.52s17.717-8.26 17.717-18.52v-23.198c0-10.26-7.902-18.519-17.717-18.519z" style="fill:#fff;fill-rule:evenodd;stroke-width:.88129997" transform="matrix(1.8 0 0 1.11763 -655.513 242.2)"/><path d="M478.346 237.401c-5.888 0-10.63 6.608-10.63 14.816v16.432c0 8.208 4.742 14.816 10.63 14.816s10.63-6.608 10.63-14.816v-16.432c0-8.208-4.741-14.816-10.63-14.816zm0-7.087c-9.814 0-17.716 8.259-17.716 18.519v23.198c0 10.26 7.902 18.52 17.716 18.52s17.717-8.26 17.717-18.52v-23.198c0-10.26-7.902-18.519-17.717-18.519z" style="fill:#fff;fill-rule:evenodd;stroke-width:.88129997" transform="matrix(1.8 0 0 1.11763 -425.198 245.743)"/><rect width="42.52" height="21.26" x="375.591" y="524.409" rx="2.308" ry="3.76" style="fill:#fff;fill-rule:evenodd;stroke-width:1.25"/><rect width="24.803" height="28.346" x="336.614" y="520.866" rx="1.346" ry="5.013" style="fill:#fff;fill-rule:evenodd;stroke-width:1.25"/><rect width="24.803" height="28.346" x="219.685" y="520.866" rx="1.346" ry="5.013" style="fill:#fff;fill-rule:evenodd;stroke-width:1.25"/><rect width="49.606" height="35.433" x="141.732" y="517.323" rx="2.692" ry="6.267" style="fill:#fff;fill-rule:evenodd;stroke-width:1.25"/><rect width="46.063" height="35.433" x="450" y="520.866" rx="2.5" ry="6.267" style="fill:#fff;fill-rule:evenodd;stroke-width:1.25"/></g></g></svg>