<svg xmlns="http://www.w3.org/2000/svg" xml:space="preserve" id="svg1589" width="750" height="500" style="shape-rendering:geometricPrecision;text-rendering:geometricPrecision;image-rendering:optimizeQuality" version="1.0" viewBox="-1502 0 3004 2004"><defs id="defs1591"><style id="style1593" type="text/css">.fil1{fill:#fff}</style></defs><path id="21461584" d="M1503 2004V0h-3006v2004z" style="fill:#009530;fill-opacity:1;stroke:none;stroke-width:3"/><path id="21459296" d="M468.469 339.781c-.539.093-1.187.667-2.063 2.031-1.993 3.244-2.49 3.758.75 7.5l.094 3c-76.22.957-160.834.122-233.094-.75 7.975 13.224 33.64 12.22 58.313 12.47 21.932.443 86.596.285 175.094-2.032l.093 3.531c-3.24 3.743-2.743 4.225-.5 7.469.982 1.419 1.695 1.886 2.25 1.813.698-.118 1.197-1.094 1.75-2.063.499-.499.751-1.001 1-1.5l11.938-.25c0 .175.055.368.125.531.024.054.063.135.094.188.538.888 1.935 1.531 2.53 1.531.998 0 2.75-1.003 2.75-2.5l12.844-.187c1.284 2.022 3.284 3.058 5.094 2.937 4.735-.25 6.717-5.732 6.219-12.469-.748-7.984-4.717-9.5-13.937-9.25-9.681.202-19.564.399-29.594.531l-.063-3.25c2.99-3.742 2.743-4.256.5-7.5-.477-.573-.9-1.192-1.344-1.53a2 2 0 0 0-.25-.157 1 1 0 0 0-.593-.094m33.344 21.25c-.791 2.534-.868 4.738-.5 6.563l-11.72.156a1.5 1.5 0 0 0-.062-.344c-.334-1.068-2.016-1.875-2.687-1.875-.997 0-2.75.972-2.75 2.469l-11.438.25c-.498-.748-1.004-1.721-2.25-2.969l-.062-3.344c10.188-.27 20.69-.576 31.469-.906" style="fill:#fff" transform="translate(-1503)scale(4.008)"/><g id="g4297"><path id="21461496" d="M-704.384 564c9.988-28 10.987-53-1-44-9.988 8-15.981 0-7.99-9 9.988-13 22.973-17 25.97 5 .999 17-10.987 38-16.98 48" class="fil1" style="fill:#fff"/><path id="21461408" d="M-618.483 721c2.996 36 12.985 103 12.985 126 .999 24 3.995 17 9.988 4s4.994-27 3.996-46c-1.998-20-2.997-53-6.992-98 7.99-6 14.982-16 17.979-22 7.99-15 9.988-14 12.985-2 5.993 24 29.966 40 61.929 17 29.965-21 16.98-65 3.995-113 10.987 2 14.983-7 7.991-19-2.997-7-8.99-13-13.984-19s-9.988-11-14.983-5c-3.995 6-8.99 11-11.986 15s-2.996 8 .999 18c11.986 28 19.977 58 21.975 75 2.996 16-2.997 20-13.984 20s-25.97-3-31.963-27-8.99-35-7.991-51 2.996-27-7.991-43c-11.986-16-12.985-13-15.982-5-1.997 9-5.993 22-1.997 37 4.994 22 7.99 41 10.987 54 1.998 9-6.992 28-19.977 38-2.997-30-7.99-70-9.989-102 16.981-6 7.991-29-5.993-54-9.988-19-13.983-11-20.975 1s-1.998 17 2.996 27c-3.995 8 2.997 20 5.993 42 .999 14 3.996 54 6.992 89-13.984 0-21.974-9-26.969-21-10.987-25-7.99-48-2.996-63s9.988-38 .999-44c-7.991-6-18.979 1-25.97 12-11.987 18-22.974 44-23.973 71-.999 11-3.995 32-8.99 40-3.995 8-10.987 9-17.98-3-11.985-19-15.98-67-14.982-92 0-12-2.996-14-6.992 0-12.985 48 1.998 100 12.985 122s24.972 17 34.96-1c14.983-27 8.99-51 22.974-91 7.99-25 10.987-6 7.99 9-6.992 40-4.994 105 51.94 104" class="fil1" style="fill:#fff"/><path id="21461320" d="M-575.533 511c-2.996 8-.999 18 3.996 24 4.994 7 13.984 7 19.977 2 4.994-6 4.994-7 9.988 1 2.997 6 12.985 4 15.982-2 1.997-5 4.994-10 1.997-17s-2.996-5-4.994 3c-1.997 13-13.984 10-14.982-6 0-15-2.997-7-6.992 3-6.992 15-16.981 12-16.981-1 0-11-2.997-20-7.99-7" class="fil1" style="fill:#fff"/><path id="21461232" d="M-738.345 812c28.966-35 65.924-53 84.902-59 11.986-4 17.98-9 17.98 3 .998 11 0 12-9.99 15-22.973 6-70.918 30-86.9 42-7.99 6-17.979 13-5.992-1" class="fil1" style="fill:#fff"/><path id="21461144" d="M-717.37 875c1 10 1 17 1 21 0 7-3.996 14-5.994 23-11.986 43 5.993 64 15.982 48 8.99-16 13.984-14 12.985-1-.999 43-41.952 46-44.948 10-4.995-57 7.99-66 11.986-85 2.996-13 6.992-23 8.99-16" class="fil1" style="fill:#fff"/><path id="21461056" d="M-506.612 789c-3.996 1-7.99 3-10.987 4-17.98 5-20.976-2-19.977-13s1.997-14 13.983-9c4.995 2 10.988 9 16.981 18l26.969-10c-4.994-11-11.986-20-22.974-31-17.979-18-32.962-19-47.944 3-13.984 21-12.986 26-11.987 45s-2.996 26 11.987 31c13.983 5 19.977 3 28.966 0 6.992-2 16.98-5 26.97-9 1.997 10 .998 21-4.995 29-36.958 44-93.892 76-118.863 47-13.984-16-19.977-41-15.982-71 3.996-25-3.995-14-6.992-5-8.99 29-11.986 71 0 92 16.98 29 43.95 42 86.9 23s84.902-53 82.905-100c0-9-1-17-1-23 3.996-2 10.988-7 15.983-9 .998 16-1 36 0 52 1.997 51-17.98 66-35.96 80-24.97 20-58.931 33-87.898 38-68.92 10-84.902-34-83.904-93 0-9 3.996-15 3.996-28-.999-25-3.996-21-11.986 4-6.992 24-15.982 80 6.992 126 23.972 46 104.879 33 167.806 3 61.93-30 68.921-87 65.925-144 0-15-1-31-1.998-48 1.998-1 2.997-3 3.995-4 8.99 29 50.942 21 63.927 4 6.992-8 6.992-9 12.985 0 8.99 13 39.954 17 47.945-1 6.992-19 5.993-37 3.995-51s-4.994-13-13.984-6c-9.988 8-1.998 9-.999 19 3.996 38-28.966 35-32.962-4-1.997-24-5.993-15-8.99-4-13.983 47-54.936 56-50.94 2 .998-16-8.99-11-13.985-5-4.994 4-8.99 9-13.984 12-2.996-44-5.993-94-10.987-154 11.986 15 22.974-2 14.983-19-5.993-13-14.983-42-20.976-58-4.994-16-7.99-11-20.976 2-11.986 14-9.988 17-3.995 31-1.998 17 .999 34 4.994 69 2.997 25 10.987 77 14.983 143-5.993 3-14.983 9-20.976 12z" class="fil1" style="fill:#fff"/><path id="21460968" d="M-363.776 859c1.997 7 .998 23-1.998 30-3.995 9 0 13 5.993 2 5.993-12 9.988-26 6.992-40-1-10-1-13-9.989-17-9.988-4-12.985 2-15.981 10-3.996 10 .999 21 14.983 15" class="fil1" style="fill:#fff"/><path id="21460880" d="M-336.808 639c-11.986 15-20.975 37-3.995 50 8.99 8 27.968-1 34.96-16 6.992-16 3.995-18-7.99-5-16.981 19-33.962 2-15.983-24 11.987-18 4.995-22-6.992-5" class="fil1" style="fill:#fff"/><path id="21460704" d="M-310.837 550c1.997-4 3.995-9 4.994-13 1.998-6-2.997-12-6.992-3-2.997 7-3.996 12 1.998 16l-10.988 19c-12.985-11-12.985-27-7.99-41 11.986-31 51.94-27 40.952 13-.998 6-3.995 14-7.99 22 5.993 8 2.996 18-8.99 16-12.985 21-37.956 44-80.907 63-19.977 9-22.974 2-7.99-7 28.966-19 55.935-42 72.915-66z" class="fil1" style="fill:#fff"/><path id="21460792" d="M-264.89 554c-15.982 45-14.983 88 17.98 125 18.977 21 32.961 11 40.952-12 8.99-22 14.983-44 20.976-59s10.987-12 9.988 2c-2.996 28-4.994 73 22.974 90s70.918-12 85.901-42c44.948 60 84.902 32 89.897-26 .998-18-6.992-57-11.987-68-4.994-12-1.997-12 4.995-6 6.992 7 18.978 11 12.985-9-6.992-19-14.983-30-25.97-39-9.989-9-11.987-4-15.982 3s-2.997 9-8.99 14c-5.993 6-4.994 9 0 20 16.98 44 32.962 108 5.993 114-24.97 5-40.952-49-41.951-73-1-32-4.995-59-10.988-76-6.992-17-8.99-20-13.984-11-3.995 7-4.994 12-8.99 19-3.995 7 0 9 2.997 23 14.983 70 12.985 102-18.978 120-31.963 19-48.944 1-48.944-21-.998-22-.998-49 1.998-69 1.998-20 6.992-23 0-33-6.992-11-12.985-7-21.975 6-19.976 28-39.954 75-46.946 97-6.992 23-20.975 15-30.964-4-10.987-23-9.988-64-5.993-80s1.998-23-4.994-5" class="fil1" style="fill:#fff"/><path id="21460616" d="M-129.047 515c-6.992 7-6.992 8-.999 17 5.994 7 14.983 29 11.987 52-1 10 .999 20 5.993 2 3.995-18 2.997-43-1.998-58-4.994-15-10.987-19-14.983-13" class="fil1" style="fill:#fff"/><path id="21460440" d="M15.787 774c6.992-2 13.984-3 21.974-5 20.976-5 8.99-7-4.994-16-14.983-9-20.976-9-19.977 1 1 6 1 12 2.997 20l-25.97 8c-16.98-25-5.993-43 6.992-62 15.981-23 41.951-16 71.917 5 29.965 21 17.98 54-10.988 71q-10.487 6-26.968 12c2.996 7-1 9-9.989 3-25.97 9-59.931 22-83.903 35 28.966 2 148.828 0 172.8-3 23.973-2 19.978 2 12.986 23-6.992 20-14.983 18-34.96 21-31.963 6-78.91 20-112.87 34s-21.975 39 12.985 52c26.969 7 23.972 10 18.978 26-3.995 15-3.995 19-36.957 14-80.907-13-109.874-58-122.859-93-49.942 71-98.886 110-144.833 98-22.974-5-33.961-26-35.959-52-31.963 15-68.92 28-116.865 42-10.988 4-19.977-1-4.995-8 31.963-16 81.906-43 122.859-72 3.995-18 12.985-43 21.975-61 4.994-11 7.99-7 7.99 2 0 7-1.997 25-.998 38 6.992-6 16.98-12 21.974-17 27.968-25 58.932-41 37.957-81-8.99-18-15.982-31-18.979-39-17.979-7-12.985-17-4.994-34s10.988-21 26.97-2c22.973 27 25.97 39 9.988 37 24.97 64 18.978 97-19.977 135-17.98 19-36.958 34-58.933 46-1.997 17 4.995 34 36.958 29 41.952-6 88.898-61 108.875-103-8.99-35-28.967-98-40.953-130-5.993-16 0-23 4.994-36 5.993-13 8.99-21 15.982-3 6.992 17 28.966 60 38.955 111 10.987 51 8.99 95 34.96 119 11.986 11 26.969 18 42.95 22-11.986-34 12.985-60 45.947-72-19.977-19-50.941-16-85.9-18-25.971-1-22.975-4-15.982-27 6.992-23 14.982-26 33.96-34 25.97-10 51.94-20 78.91-28z" class="fil1" style="fill:#fff"/><path id="21460528" d="M-100.08 733c-1.998 14 .999 23 5.993 30s14.983 6 17.98-2c2.996-9 4.994-10 10.987-3 6.992 7 29.965 1 18.978-34-4.994-14-6.992-11-6.992 5 0 25-7.99 25-16.98 1-2.997-9-6.992-9-7.991 3 0 23-9.989 26-15.982 3-1.997-10-3.995-18-5.993-3" class="fil1" style="fill:#fff"/><path id="21460352" d="M195.58 515c-3.996 8-6.992 14 .999 20s19.977 22 14.982 40c-2.996 14 0 25 8.99 5 8.99-21 1.998-46-6.992-62-7.99-14-12.985-11-17.98-3" class="fil1" style="fill:#fff"/><path id="21460264" d="M270.494 880c-8.99-45-49.943-117-110.873-211q-2.996-37.5-2.996-69c8.99 10 14.982 4 11.986-9-5.993-23-14.983-42-25.97-68-3.996-11-14.983-14-19.977 2-6.992 19-7.991 23 .999 36-1 14 3.995 38 5.993 60-10.988-16-24.972-36-35.959-53 16.98 7 26.969 2 11.986-14-14.982-17-35.958-34-48.943-46s-18.979-4-16.98 7c.998 11 1.997 19 .998 28s1.998 15 14.983 20c25.97 34 51.94 69 75.912 105 2.997 30 8.99 63 11.987 90 7.99 64 19.977 147 9.988 183-7.99 27 0 39 12.985-2 11.986-41 10.988-80 2.997-141-2.997-24-3.996-54-6.992-82 41.952 65 79.908 127 96.888 170 8.99 23 16.98 28 10.988-6" class="fil1" style="fill:#fff"/><path id="21460176" d="M203.57 628c3.996 12 8.99 18 11.987 3 1.998-13 5.993-17 7.99-3 2.997 14 10.988 12 12.986-1 2.996-13 6.992-20 8.99-6 1.997 15 .998 20-1 25-.998 4-8.99 9-14.982 3-6.992-6-8.99-6-13.984-1-10.987 10-14.983 3-16.98-11-1-12 2.996-17 4.994-9" class="fil1" style="fill:#fff"/><path id="21460088" d="M42.756 968c9.988-6 14.982-11 22.973-14 7.991-4 13.984-3 7.991 14-5.993 20-2.996 26 9.989 21 11.986-4 18.978-9 28.966-13 8.99-4 18.978-4 4.995 7-10.988 9-26.97 21-35.96 23-19.976 5-29.965-3-25.97-19 3.996-15 6.993-21-4.993-16-13.984 6-12.986 0-7.991-3" class="fil1" style="fill:#fff"/><path id="21460000" d="M293.467 586c7.991 7 16.98 7 11.986-8s-8.99-33-13.983-50c-4.995-17-7.991-21-13.984-13-6.992 9-11.987 12-16.98 18-4.995 5-5.994 16 0 26 21.974 151 22.973 218 25.97 274s10.987 82-23.973 120c-37.956 41-60.93 51-77.91 55-20.976 6-28.967 15 2.996 13 46.946-3 53.938-4 91.894-49 21.975-24 32.962-56 30.965-130-1.998-130-19.977-186-16.98-256" class="fil1" style="fill:#fff"/><path id="21459912" d="M362.388 591c13.984 7 28.967 11 17.98-6-10.988-16-19.978-43-25.971-63-6.992-20-8.99-19-19.977-2-16.98 26-1.998 51 1.998 81 13.984 107 27.968 216 31.963 245 3.995 32 8.99 53 .999 88-2.997 11 .999 14 7.99 1 27.968-53 8.99-99 5.994-129-4.995-46-20.976-168-23.973-217" style="fill:#fff;fill-opacity:1;stroke:#fff;stroke-width:6.99999905;stroke-opacity:1"/><path id="21459824" d="M431.309 672c-1.998 9-13.984 9-12.985-1 .998-10 0-8 0-16-1-8 8.99-13 13.983-6 5.994 7 15.982 29 18.979 37 3.995 8 5.993 6 5.993-5-1-13-2.997-25-1.998-34 .999-5 3.995-11 9.989-16 6.991-5 10.987-6 13.983 3 1.998 8 7.991 9 4.995 16-3.996 10-12.985-10-18.978 4-2.997 10 0 38-1 48 0 9-3.995 22-10.987 7-4.994-10-11.986-27-21.974-37" class="fil1" style="fill:#fff"/><path id="21459736" d="M428.312 795c0-7 2.997-9 14.983-19 9.988-8 37.956-28 46.946-37s15.981-17 17.98-6c.998 11 2.996 15-7.992 21-10.987 5-39.954 23-48.943 30-9.989 8-22.974 18-22.974 11" class="fil1" style="fill:#fff"/><path id="21459648" d="M701.997 874c-1.998-14-5.993-28-23.972-55-17.98-26-33.961-50-49.943-73-4.994-60-11.986-124-11.986-158 7.99 8 13.984 0 9.988-13-3.995-13-11.986-48-17.979-63-4.994-14-10.987-11-18.978 2-6.992 13-11.986 19-6.992 29 1.998 58 9.989 114 18.978 165-15.981-22-30.964-43-44.948-62-.999-22-2.997-44-3.995-66 8.99 7 12.985 5 7.99-8-3.995-14-14.982-43-19.977-56-4.994-13-7.99-13-14.982-3-10.988 17-13.984 29-4.995 45 1 14 2.997 29 3.996 42-8.99-12-16.98-24-23.973-35 8.99 5 15.982-3 5.993-12-8.99-9-27.967-24-35.958-35-8.99-11-16.98-11-16.98-1s.998 19 0 28c-1.998 8-1.998 16 9.988 30 22.973 28 44.948 57 65.924 84 7.99 100 12.985 164 10.987 204-.999 24-8.99 38-21.974 42-12.985 5-25.97-4-37.957-22-21.974-32-29.965-26-46.946 2-15.981 26-26.969 48-35.958 67-7.991 18-21.975 34-34.96 10-11.986-24-13.984-51-12.985-70 0-19-2.997-34-9.989-4-17.979 74-6.992 90 12.985 106 24.972 22 32.962 24 45.948 5 25.97-36 32.962-68 47.944-86 11.987-14 11.987-3 17.98 4 14.982 19 27.967 26 48.943 29 20.976 4 58.933-14 55.936-84-1.998-42-4.994-99-8.99-160 19.977 28 37.957 53 51.94 73 6.992 40 10.988 76 8.99 105-1.998 33 4.994 33 11.986-1 1.998-14 1.998-43-.998-78 26.969 36 42.95 60 53.937 77 11.987 21 18.979 39 15.982-4" class="fil1" style="fill:#fff"/><path id="21459560" d="M644.064 543c-5.993 10-4.995 12 1.997 23 6.992 12 12.986 34 12.986 51s5.993 15 8.99-1c2.996-15 1.997-45-6.993-66-8.99-22-11.986-14-16.98-7" class="fil1" style="fill:#fff"/><path id="21459472" d="M724.97 575c10.988 10 16.981 7 9.99-10-7.992-17-15.982-35-22.974-51-7.991-17-9.989-13-18.979-1-9.988 12-10.987 21-6.992 28 18.979 159 27.968 242 29.966 290 3.995 70-12.985 109-80.907 154-21.975 15-46.946 32 5.993 19 51.94-13 107.876-48 101.883-193-4.994-130-21.975-187-17.98-236" class="fil1" style="fill:#fff"/><path id="path2695" d="M481.624 787.133c-3.995 5.939-6.992 10.393 1 14.847 7.99 4.454 19.976 16.33 14.982 29.692-2.997 10.393 0 18.559 8.99 3.712 8.99-15.589 1.997-34.147-6.992-46.024-7.991-10.392-12.985-8.165-17.98-2.227" class="fil1" style="fill:#fff"/><path id="path819" d="M536.533 974.993c2.868 3.65 4.723 7.028-.23 13.026-4.695 4.302-8.002 6.67-12.697 10.973-2.217 3.78-3.633 9.517 3.147 11.344 12.52 3.52 36.151-12.13 36.151-12.522 4.695-3.52 3.13-10.169 2.737-10.169-2.737-3.13-8.905-1.271-13.054-1.777-1.976 0-3.138-4.109-.054-9.845 2.574-3.569 3.495-5.754 5.24-10.151 1.955-4.302.276-7.173-6.766-9.521-7.173-1.303-10.038-.651-17.994 0-4.302.914-5.771 2.836-6.554 8.052.308 7.91 5.12 7.46 10.074 10.59" style="fill:#fff;fill-opacity:1;fill-rule:evenodd;stroke:none;stroke-width:1pt;stroke-linecap:butt;stroke-linejoin:miter;stroke-opacity:1"/></g></svg>