<svg xmlns="http://www.w3.org/2000/svg" xml:space="preserve" width="1200" height="600" version="1.0" viewBox="0 0 226.801 289.606"><path d="M-176.206 0h579.212v289.606h-579.212z" style="opacity:1;fill:#fff;fill-opacity:1;fill-rule:evenodd;stroke:none;stroke-width:2.20000005;stroke-linecap:round;stroke-linejoin:round;stroke-miterlimit:4;stroke-dasharray:none;stroke-opacity:1"/><path d="M-176.206 193.071h579.212v96.535h-579.212z" style="opacity:1;fill:red;fill-opacity:1;fill-rule:evenodd;stroke:none;stroke-width:2.20000005;stroke-linecap:round;stroke-linejoin:round;stroke-miterlimit:4;stroke-dasharray:none;stroke-opacity:1"/><path d="M-176.206 96.535h579.212v96.535h-579.212z" style="opacity:1;fill:#005ce6;fill-opacity:1;fill-rule:evenodd;stroke:none;stroke-width:2.20000005;stroke-linecap:round;stroke-linejoin:round;stroke-miterlimit:4;stroke-dasharray:none;stroke-opacity:1"/><path d="M-66.438 55.67q-1.338.59-2.656 1.225l2.768 43.8a49.3 49.3 0 0 0 35.027 44.108A49.3 49.3 0 0 0 3.73 100.694l2.768-43.799A87 87 0 0 0 3.84 55.67l-2.833 44.837a46.57 46.57 0 0 1-32.306 41.44 46.569 46.569 0 0 1-32.305-41.44z" style="fill:red"/><path d="M3.841 55.67a87.086 87.086 0 0 0-70.28 0l2.835 44.837a46.57 46.57 0 0 0 32.305 41.44 46.56 46.56 0 0 0 18.757-11.431 46.57 46.57 0 0 0 13.549-30.009" style="fill:#005ce6;fill-opacity:1"/><path d="m119.764 62.917 4.67-6.378-7.86.855-3.188-7.233-3.189 7.233-7.859-.855 4.67 6.378-4.67 6.378 7.859-.855 3.189 7.233 3.188-7.233 7.86.855M90 23.232l4.669-6.378-7.858.855-3.189-7.233-3.189 7.233-7.858-.855 4.669 6.378-4.669 6.378 7.858-.855 3.189 7.233 3.189-7.233 7.858.855M149.527 23.232l4.668-6.378-7.857.855-3.19-7.233-3.189 7.233-7.857-.855 4.669 6.378-4.669 6.378 7.857-.855 3.189 7.233 3.19-7.233 7.857.855" style="fill:#ffe600;fill-opacity:1" transform="matrix(.33333 0 0 .33333 -69.094 48.268)"/><path d="m-2.952 107.036-14.173-18.898-5.67 7.559-8.504-17.008-8.504 17.008-5.67-7.56-14.172 18.899a9.448 9.448 0 0 0 14.174 8.182c.009-.006-.012.007-.003.001a9.451 9.451 0 0 1 9.45-.001 9.45 9.45 0 0 0 4.726 1.266h-.002c1.645 0 3.277-.43 4.726-1.266a9.45 9.45 0 0 1 9.45.001c.01.006-.011-.007-.002-.001a9.448 9.448 0 0 0 14.174-8.182" style="fill:#fff"/><path d="M-56.288 117.296a44 44 0 0 0 2.143 3.778v.001a9.45 9.45 0 0 0 8.675-.402l-.002.001a9.44 9.44 0 0 1 4.725-1.266h-.001c1.644 0 3.276.429 4.725 1.266a9.45 9.45 0 0 0 9.45-.001c.01-.005-.01.007-.002.001a9.44 9.44 0 0 1 4.726-1.266h-.002c1.645 0 3.277.429 4.726 1.266a9.45 9.45 0 0 0 8.674.4 44 44 0 0 0 2.142-3.777 9.5 9.5 0 0 0-1.368.65c-.01.005.012-.007.003-.001a9.449 9.449 0 0 1-9.45 0 9.45 9.45 0 0 0-4.726-1.265c-.004 0 .004 0 0 0a9.45 9.45 0 0 0-4.724 1.266c-.01.005.011-.007.002-.001a9.446 9.446 0 0 1-9.45.001 9.45 9.45 0 0 0-4.726-1.266c-.004 0 .004 0 0 0a9.44 9.44 0 0 0-4.724 1.267c-.01.005.011-.007.002-.002a9.449 9.449 0 0 1-9.45 0 9.5 9.5 0 0 0-1.367-.648" style="fill:#fff"/><path d="M-10.9 124.547a43.9 43.9 0 0 1-20.399 14.528 43.85 43.85 0 0 1-20.4-14.528 9.46 9.46 0 0 0 6.228-1.146c.01-.005-.011.007-.002.001a9.44 9.44 0 0 1 4.725-1.266c.004 0-.004 0 0 0 1.644 0 3.276.429 4.725 1.266a9.45 9.45 0 0 0 9.45-.001c.01-.005-.011.007-.002.001a9.44 9.44 0 0 1 4.725-1.266c.003 0-.004 0 0 0 1.644 0 3.275.429 4.725 1.266a9.45 9.45 0 0 0 6.226 1.145" style="fill:#fff"/></svg>