<svg xmlns="http://www.w3.org/2000/svg" width="900" height="600" version="1.0" viewBox="0 0 450 300"><path fill="#fff" d="M0 0h450v300H0z"/><path fill="#0038a8" d="M0 100h450v200H0z"/><path fill="#ce1126" d="M0 200h450v100H0z"/><path d="M77.802 70.52c-6.044.457-4.339 7.787-5.089 11.95-2.132 28.68-5.077 58.287 3.683 86.22 6.91 22.545 23.423 41.15 43.433 53.148 4.925 2.74 9.723 6.18 15.17 7.662 5.704-1.6 10.742-5.19 15.888-8.107 19.696-11.985 35.886-30.44 42.716-52.702 8.895-28.401 5.728-58.49 3.572-87.635-.314-4.01.291-10.97-5.633-10.537z" style="fill:#fff;fill-opacity:1;fill-rule:evenodd;stroke:none;stroke-width:1pt;stroke-linecap:butt;stroke-linejoin:miter;stroke-opacity:1"/><path d="M270-150V149.98C131.271 82.771 146.44-28.55 155.593-150zm0 0V149.98C408.73 82.771 393.56-28.55 384.407-150z" style="fill:#ce1126;fill-opacity:1;fill-rule:evenodd;stroke:none;stroke-width:1pt;stroke-linecap:butt;stroke-linejoin:miter;stroke-opacity:1" transform="matrix(.5 0 0 .5 0 150)"/><path d="M286.2-67.713c14.599 0 29.479 2.659 43.798 5.494-4.238-13.906-4.238-22.403 0-36.31-14.32 2.836-29.2 5.495-43.799 5.495h-32.398c-14.6 0-29.48-2.66-43.799-5.494 4.238 13.906 4.238 22.403 0 36.309 14.32-2.835 29.2-5.494 43.799-5.494zM298.799-13.082c14.6 0 29.48 2.659 43.798 5.494-4.238-13.906-4.238-22.403 0-36.31-14.319 2.836-29.199 5.495-43.798 5.495h-57.598c-14.6 0-29.48-2.66-43.798-5.494 4.238 13.906 4.238 22.403 0 36.309 14.319-2.835 29.199-5.494 43.798-5.494z" style="fill:#fff;fill-opacity:1;fill-rule:evenodd;stroke:none;stroke-width:1pt;stroke-linecap:butt;stroke-linejoin:miter;stroke-opacity:1" transform="matrix(.5 0 0 .5 0 150)"/><path d="M251.756-138.504c2.848 14.253 5.52 29.064 5.52 43.595V90.878h25.439V-94.91c0-14.531 2.671-29.342 5.52-43.595-13.971 4.219-22.508 4.219-36.479 0" style="fill:#fff;fill-opacity:1;fill-rule:evenodd;stroke:none;stroke-width:1pt;stroke-linecap:butt;stroke-linejoin:miter;stroke-opacity:1" transform="matrix(.5 0 0 .5 0 150)"/><g style="fill:#0038a8;fill-opacity:1"><path d="M157.5 623.344c-8.565 0-15.5 6.935-15.5 15.5 0 .653.11 1.274.188 1.906 2.985 4.43 6.477 8.678 10.5 12.781 1.525.502 3.12.844 4.812.844 8.565 0 15.531-6.967 15.531-15.531s-6.966-15.5-15.531-15.5" style="fill-rule:evenodd;stroke:none;stroke-width:1pt;stroke-linecap:butt;stroke-linejoin:miter;stroke-opacity:1" transform="matrix(.95996 0 0 .9555 -44.995 -422.714)"/><path d="M187.5 614.188c-10.888 0-19.719 8.861-19.719 19.75s8.83 19.718 19.719 19.718c10.888 0 19.719-8.83 19.719-19.718s-8.83-19.75-19.719-19.75" style="fill-rule:evenodd;stroke:none;stroke-width:1pt;stroke-linecap:butt;stroke-linejoin:miter;stroke-opacity:1" transform="matrix(.95996 0 0 .9555 -44.995 -422.714)"/><path d="M217.5 623.344c-8.565 0-15.5 6.935-15.5 15.5 0 8.564 6.935 15.531 15.5 15.531 1.693 0 3.287-.342 4.813-.844 4.033-4.114 7.54-8.37 10.53-12.812.077-.622.188-1.233.188-1.875 0-8.565-6.966-15.5-15.531-15.5" style="fill-rule:evenodd;stroke:none;stroke-width:1pt;stroke-linecap:butt;stroke-linejoin:miter;stroke-opacity:1" transform="matrix(.95996 0 0 .9555 -44.995 -422.714)"/><path d="M144.625 644.125c9.475 12.718 23.1 24.125 42.875 33.75 19.775-9.625 33.4-21.032 42.875-33.75z" style="fill-rule:evenodd;stroke:none;stroke-width:1pt;stroke-linecap:butt;stroke-linejoin:miter;stroke-opacity:1" transform="matrix(.95996 0 0 .9555 -44.995 -422.714)"/></g></svg>