<svg xmlns="http://www.w3.org/2000/svg" xmlns:xlink="http://www.w3.org/1999/xlink" width="900" height="600" viewBox="-45 -45 243 162"><rect width="100%" height="100%" x="-45" y="-45" fill="#fff"/><path fill="none" stroke="#0038a8" stroke-width="18" d="M45-18h153M45 18h153M-45 54h243M-45 90h243"/><g fill="#fcd116" stroke="#000" stroke-miterlimit="20" stroke-width=".6"><g id="c"><g id="b"><g id="a"><path d="m0 0 .951 13.383c-12.366 8.949-4.816 14.24-13.58 17.105 5.834-6.243-1.782-6.15 4.882-19.626"/><path fill="none" d="M-4.21 10.163c-6.822 11.245-2.348 17.428-8.419 20.325"/></g><use xlink:href="#a" transform="scale(-1)"/></g><use xlink:href="#b" transform="rotate(90)"/></g><use xlink:href="#c" transform="rotate(45)"/><g id="f"><g id="e"><path id="d" d="M0 0h6L0 33-6 0h6v33"/><use xlink:href="#d" transform="scale(-1)"/></g><use xlink:href="#e" transform="rotate(90)"/></g><use xlink:href="#f" transform="rotate(45)"/><circle r="11"/><g fill="#000" stroke="none" transform="scale(.1)"><g id="g"><path d="M81-44c-7 8-11-6-36-6S16-35 12-38s21-21 29-22 31 7 40 16M52-35c7 6 1 19-6 19S26-28 32-36"/><path d="M19-26c1-12 11-14 27-14s23 12 29 15c-7 0-13-10-29-10s-16 0-27 10"/><path d="M22-23c4-6 9 6 20 6s17-3 24-8-10 12-21 12-26-6-23-10"/><path d="M56-17c13-7 5-17 0-19 2 2 10 12 0 19M0 43c6 0 8-2 16-2s27 11 38 7c-23 9-14 3-54 3h-5"/><path d="M58 57c-4-7-3-5-11-16 8 6 10 9 11 16"/><path d="M0 67c25 0 21-5 54-19-24 3-29 11-54 11h-5M0 30c7 0 9-5 17-5s19 3 24 7c1 1-3-8-11-9S25 9 16 7c0 4 3 3 4 9 0 5-9 5-11 0 2 8-4 8-9 8"/></g><use xlink:href="#g" transform="scale(-1 1)"/><path d="M0 76c-5 0-18 3 0 3s5-3 0-3"/></g></g></svg>