<svg xmlns="http://www.w3.org/2000/svg" xmlns:xlink="http://www.w3.org/1999/xlink" width="1000" height="500" viewBox="0 0 500 250"><path fill="#0099b5" d="M0 0h500v80H0z"/><path fill="#ce1126" d="M0 80h500v5H0z"/><path fill="#fff" d="M0 85h500v80H0z"/><path fill="#ce1126" d="M0 165h500v5H0z"/><path fill="#1eb53a" d="M0 170h500v80H0z"/><defs><g id="c" fill="#fff"><g id="b"><path id="a" d="M0 0v1h.5z" transform="rotate(18 3.157 -.5)"/><use xlink:href="#a" transform="scale(-1 1)"/></g><use xlink:href="#b" transform="rotate(72)"/><use xlink:href="#b" transform="rotate(-72)"/><use xlink:href="#b" transform="rotate(144)"/><use xlink:href="#b" transform="rotate(-144)"/></g></defs><circle cx="70" cy="40" r="30" fill="#fff"/><circle cx="83.5" cy="40" r="25" fill="#0099b5"/><g transform="translate(10)"><g id="d"><use xlink:href="#c" transform="matrix(6 0 0 6 136 16)"/><use xlink:href="#c" transform="matrix(6 0 0 6 160 16)"/><use xlink:href="#c" transform="matrix(6 0 0 6 184 16)"/></g><g id="e"><use xlink:href="#c" transform="matrix(6 0 0 6 112 40)"/><use xlink:href="#d" transform="translate(0 24)"/></g><use xlink:href="#c" transform="matrix(6 0 0 6 88 64)"/><use xlink:href="#e" transform="translate(0 24)"/></g></svg>